STARTFONT 2.1
FONT -FontForge-Rajdhani-Book-R-Normal--20-200-72-72-P-123-ISO10646-1
SIZE 20 72 72
FONTBOUNDINGBOX 48 24 -8 -6
COMMENT "Generated by fontforge, http://fontforge.sourceforge.net"
COMMENT "Copyright (c) 2014 Indian Type Foundry (info@indiantypefoundry.com)"
STARTPROPERTIES 40
FOUNDRY "FontForge"
FAMILY_NAME "Rajdhani"
WEIGHT_NAME "Book"
SLANT "R"
SETWIDTH_NAME "Normal"
ADD_STYLE_NAME ""
PIXEL_SIZE 20
POINT_SIZE 200
RESOLUTION_X 72
RESOLUTION_Y 72
SPACING "P"
AVERAGE_WIDTH 123
CHARSET_REGISTRY "ISO10646"
CHARSET_ENCODING "1"
FONTNAME_REGISTRY ""
CHARSET_COLLECTIONS "ISO8859-2 ISO8859-9 ISO8859-4 ISO10646-1"
FONT_NAME "Rajdhani-Regular"
FACE_NAME "Rajdhani Regular"
COPYRIGHT "Copyright (c) 2014 Indian Type Foundry (info@indiantypefoundry.com)"
FONT_VERSION "1.201;PS 1.0;hotconv 1.0.78;makeotf.lib2.5.61930; ttfautohint (v1.1) -l 7 -r 28 -G 50 -x 13 -D latn -f deva -w G"
FONT_ASCENT 16
FONT_DESCENT 4
UNDERLINE_POSITION -2
UNDERLINE_THICKNESS 1
X_HEIGHT 9
CAP_HEIGHT 12
DEFAULT_CHAR 3
RAW_ASCENT 800
RAW_DESCENT 200
NORM_SPACE 5
RELATIVE_WEIGHT 40
RELATIVE_SETWIDTH 50
SUPERSCRIPT_X 0
SUPERSCRIPT_Y 7
SUPERSCRIPT_SIZE 12
SUBSCRIPT_X 0
SUBSCRIPT_Y 1
SUBSCRIPT_SIZE 12
AVG_LOWERCASE_WIDTH 90
AVG_UPPERCASE_WIDTH 105
ENDPROPERTIES
CHARS 1043
STARTCHAR NULL.dup1
ENCODING 0
SWIDTH 0 0
DWIDTH 0 0
BBX 1 1 0 0
BITMAP
00
ENDCHAR
STARTCHAR CR
ENCODING 13
SWIDTH 0 0
DWIDTH 0 0
BBX 1 1 0 0
BITMAP
00
ENDCHAR
STARTCHAR space
ENCODING 32
SWIDTH 267 0
DWIDTH 5 0
BBX 1 1 0 0
BITMAP
00
ENDCHAR
STARTCHAR exclam
ENCODING 33
SWIDTH 237 0
DWIDTH 5 0
BBX 1 13 2 0
BITMAP
80
80
80
80
80
80
80
80
80
00
80
80
80
ENDCHAR
STARTCHAR quotedbl
ENCODING 34
SWIDTH 330 0
DWIDTH 7 0
BBX 4 4 1 9
BITMAP
90
90
90
90
ENDCHAR
STARTCHAR numbersign
ENCODING 35
SWIDTH 677 0
DWIDTH 14 0
BBX 11 13 1 0
BITMAP
0440
0840
0840
0840
7FE0
1080
1080
1100
2100
FFC0
2100
2200
4200
ENDCHAR
STARTCHAR dollar
ENCODING 36
SWIDTH 504 0
DWIDTH 10 0
BBX 8 17 1 -2
BITMAP
08
08
7E
42
81
81
80
40
7E
03
01
81
81
42
7E
08
08
ENDCHAR
STARTCHAR percent
ENCODING 37
SWIDTH 717 0
DWIDTH 14 0
BBX 12 13 1 0
BITMAP
7080
8880
8900
8900
8900
7200
0200
04F0
0510
0910
0910
0910
10F0
ENDCHAR
STARTCHAR ampersand
ENCODING 38
SWIDTH 597 0
DWIDTH 12 0
BBX 10 13 1 0
BITMAP
1E00
2300
2100
2100
2000
2000
7000
4FC0
8400
8600
8300
4380
7EC0
ENDCHAR
STARTCHAR quotesingle
ENCODING 39
SWIDTH 186 0
DWIDTH 4 0
BBX 1 4 1 9
BITMAP
80
80
80
80
ENDCHAR
STARTCHAR parenleft
ENCODING 40
SWIDTH 283 0
DWIDTH 6 0
BBX 3 15 1 -2
BITMAP
60
C0
80
80
80
80
80
80
80
80
80
80
80
C0
60
ENDCHAR
STARTCHAR parenright
ENCODING 41
SWIDTH 283 0
DWIDTH 6 0
BBX 3 15 1 -2
BITMAP
C0
20
20
20
20
20
20
20
20
20
20
20
20
20
C0
ENDCHAR
STARTCHAR asterisk
ENCODING 42
SWIDTH 406 0
DWIDTH 8 0
BBX 6 5 1 8
BITMAP
10
10
EC
30
48
ENDCHAR
STARTCHAR plus
ENCODING 43
SWIDTH 523 0
DWIDTH 10 0
BBX 8 8 1 2
BITMAP
08
08
08
08
FF
08
08
08
ENDCHAR
STARTCHAR comma
ENCODING 44
SWIDTH 191 0
DWIDTH 4 0
BBX 1 5 1 -2
BITMAP
80
80
80
80
80
ENDCHAR
STARTCHAR hyphen
ENCODING 45
SWIDTH 312 0
DWIDTH 6 0
BBX 4 1 1 6
BITMAP
F0
ENDCHAR
STARTCHAR period
ENCODING 46
SWIDTH 191 0
DWIDTH 4 0
BBX 1 3 1 0
BITMAP
80
80
80
ENDCHAR
STARTCHAR slash
ENCODING 47
SWIDTH 396 0
DWIDTH 8 0
BBX 6 13 1 0
BITMAP
04
08
08
08
10
10
20
20
20
40
40
40
80
ENDCHAR
STARTCHAR zero
ENCODING 48
SWIDTH 514 0
DWIDTH 10 0
BBX 8 13 1 0
BITMAP
7E
41
81
81
81
81
81
81
81
81
81
41
7E
ENDCHAR
STARTCHAR one
ENCODING 49
SWIDTH 317 0
DWIDTH 6 0
BBX 4 13 1 0
BITMAP
30
D0
90
10
10
10
10
10
10
10
10
10
10
ENDCHAR
STARTCHAR two
ENCODING 50
SWIDTH 478 0
DWIDTH 10 0
BBX 7 13 1 0
BITMAP
7C
C2
82
82
02
02
0C
10
20
40
80
80
FE
ENDCHAR
STARTCHAR three
ENCODING 51
SWIDTH 496 0
DWIDTH 10 0
BBX 8 13 1 0
BITMAP
7E
42
81
81
01
02
1C
02
01
81
81
42
7E
ENDCHAR
STARTCHAR four
ENCODING 52
SWIDTH 520 0
DWIDTH 10 0
BBX 9 13 1 0
BITMAP
0600
0600
0A00
1200
1200
2200
2200
4200
8200
FF80
0200
0200
0200
ENDCHAR
STARTCHAR five
ENCODING 53
SWIDTH 482 0
DWIDTH 10 0
BBX 8 13 1 0
BITMAP
FE
80
80
80
80
BC
C2
03
01
81
81
42
7C
ENDCHAR
STARTCHAR six
ENCODING 54
SWIDTH 497 0
DWIDTH 10 0
BBX 8 13 1 0
BITMAP
7E
C0
80
80
80
FC
82
81
81
81
81
C2
7E
ENDCHAR
STARTCHAR seven
ENCODING 55
SWIDTH 380 0
DWIDTH 8 0
BBX 7 13 0 0
BITMAP
FE
02
02
04
04
08
08
08
10
10
10
20
20
ENDCHAR
STARTCHAR eight
ENCODING 56
SWIDTH 519 0
DWIDTH 10 0
BBX 8 13 1 0
BITMAP
7E
41
81
81
81
41
3E
41
81
81
81
41
7E
ENDCHAR
STARTCHAR nine
ENCODING 57
SWIDTH 497 0
DWIDTH 10 0
BBX 8 13 1 0
BITMAP
7E
C2
81
81
81
81
C1
7F
01
01
01
02
7E
ENDCHAR
STARTCHAR colon
ENCODING 58
SWIDTH 191 0
DWIDTH 4 0
BBX 1 10 1 0
BITMAP
80
80
80
00
00
00
00
80
80
80
ENDCHAR
STARTCHAR semicolon
ENCODING 59
SWIDTH 191 0
DWIDTH 4 0
BBX 1 12 1 -2
BITMAP
80
80
80
00
00
00
00
80
80
80
80
80
ENDCHAR
STARTCHAR less
ENCODING 60
SWIDTH 513 0
DWIDTH 10 0
BBX 8 7 1 3
BITMAP
01
06
38
C0
70
0C
03
ENDCHAR
STARTCHAR equal
ENCODING 61
SWIDTH 531 0
DWIDTH 11 0
BBX 8 4 1 4
BITMAP
FF
00
00
FF
ENDCHAR
STARTCHAR greater
ENCODING 62
SWIDTH 531 0
DWIDTH 11 0
BBX 8 7 1 3
BITMAP
80
70
0E
01
06
38
C0
ENDCHAR
STARTCHAR question
ENCODING 63
SWIDTH 473 0
DWIDTH 9 0
BBX 7 13 1 0
BITMAP
7C
42
82
82
02
04
08
10
10
00
10
10
10
ENDCHAR
STARTCHAR at
ENCODING 64
SWIDTH 753 0
DWIDTH 15 0
BBX 11 13 2 -1
BITMAP
3FC0
4020
8020
8F20
9120
9120
9120
9120
9120
8FC0
8000
4000
3F80
ENDCHAR
STARTCHAR A
ENCODING 65
SWIDTH 533 0
DWIDTH 11 0
BBX 9 13 1 0
BITMAP
1800
1800
1400
1400
2400
2200
2200
4200
4100
7F00
8100
8080
8080
ENDCHAR
STARTCHAR B
ENCODING 66
SWIDTH 546 0
DWIDTH 11 0
BBX 8 13 2 0
BITMAP
FC
82
82
82
82
82
FC
82
82
81
81
82
FC
ENDCHAR
STARTCHAR C
ENCODING 67
SWIDTH 542 0
DWIDTH 11 0
BBX 9 13 1 0
BITMAP
3F00
4100
4080
C080
C000
C000
C000
C000
C000
C080
4080
4100
3F00
ENDCHAR
STARTCHAR D
ENCODING 68
SWIDTH 557 0
DWIDTH 11 0
BBX 8 13 2 0
BITMAP
FE
82
81
81
81
81
81
81
81
81
81
82
FE
ENDCHAR
STARTCHAR E
ENCODING 69
SWIDTH 481 0
DWIDTH 10 0
BBX 6 13 2 0
BITMAP
FC
80
80
80
80
80
FC
80
80
80
80
80
FC
ENDCHAR
STARTCHAR F
ENCODING 70
SWIDTH 459 0
DWIDTH 9 0
BBX 6 13 2 0
BITMAP
FC
80
80
80
80
80
FC
80
80
80
80
80
80
ENDCHAR
STARTCHAR G
ENCODING 71
SWIDTH 539 0
DWIDTH 11 0
BBX 8 13 1 0
BITMAP
3E
41
41
C1
C0
C0
C7
C1
C1
C1
41
41
3E
ENDCHAR
STARTCHAR H
ENCODING 72
SWIDTH 570 0
DWIDTH 11 0
BBX 8 13 2 0
BITMAP
81
81
81
81
81
81
FF
81
81
81
81
81
81
ENDCHAR
STARTCHAR I
ENCODING 73
SWIDTH 230 0
DWIDTH 5 0
BBX 1 13 2 0
BITMAP
80
80
80
80
80
80
80
80
80
80
80
80
80
ENDCHAR
STARTCHAR J
ENCODING 74
SWIDTH 499 0
DWIDTH 10 0
BBX 7 13 1 0
BITMAP
02
02
02
02
02
02
02
02
82
82
82
82
7C
ENDCHAR
STARTCHAR K
ENCODING 75
SWIDTH 530 0
DWIDTH 11 0
BBX 8 13 2 0
BITMAP
82
86
84
88
90
B0
B0
D8
88
84
86
82
81
ENDCHAR
STARTCHAR L
ENCODING 76
SWIDTH 451 0
DWIDTH 9 0
BBX 7 13 2 0
BITMAP
80
80
80
80
80
80
80
80
80
80
80
80
FE
ENDCHAR
STARTCHAR M
ENCODING 77
SWIDTH 696 0
DWIDTH 14 0
BBX 10 13 2 0
BITMAP
8040
C0C0
C0C0
A140
A140
A340
9240
9240
8C40
8C40
8040
8040
8040
ENDCHAR
STARTCHAR N
ENCODING 78
SWIDTH 579 0
DWIDTH 12 0
BBX 8 13 2 0
BITMAP
81
81
C1
E1
A1
91
91
89
89
85
83
83
81
ENDCHAR
STARTCHAR O
ENCODING 79
SWIDTH 553 0
DWIDTH 11 0
BBX 9 13 1 0
BITMAP
3F00
4100
4080
C080
C080
C080
C080
C080
C080
C080
4080
4100
3F00
ENDCHAR
STARTCHAR P
ENCODING 80
SWIDTH 524 0
DWIDTH 10 0
BBX 7 13 2 0
BITMAP
FC
82
82
82
82
82
82
FC
80
80
80
80
80
ENDCHAR
STARTCHAR Q
ENCODING 81
SWIDTH 556 0
DWIDTH 11 0
BBX 8 16 2 -3
BITMAP
7E
82
81
81
81
81
81
81
81
81
81
82
7E
08
04
04
ENDCHAR
STARTCHAR R
ENCODING 82
SWIDTH 534 0
DWIDTH 11 0
BBX 8 13 2 0
BITMAP
FC
82
82
82
82
82
82
FC
88
84
84
82
83
ENDCHAR
STARTCHAR S
ENCODING 83
SWIDTH 562 0
DWIDTH 11 0
BBX 8 13 2 0
BITMAP
7E
82
81
81
80
C0
3C
06
03
81
81
82
7E
ENDCHAR
STARTCHAR T
ENCODING 84
SWIDTH 420 0
DWIDTH 8 0
BBX 8 13 0 0
BITMAP
FF
08
08
08
08
08
08
08
08
08
08
08
08
ENDCHAR
STARTCHAR U
ENCODING 85
SWIDTH 552 0
DWIDTH 11 0
BBX 7 13 2 0
BITMAP
82
82
82
82
82
82
82
82
82
82
82
82
7C
ENDCHAR
STARTCHAR V
ENCODING 86
SWIDTH 500 0
DWIDTH 10 0
BBX 8 13 1 0
BITMAP
81
81
81
42
42
42
42
24
24
24
18
18
18
ENDCHAR
STARTCHAR W
ENCODING 87
SWIDTH 794 0
DWIDTH 16 0
BBX 14 13 1 0
BITMAP
8304
8304
8304
850C
4488
4488
4488
4848
4850
2850
2850
3030
3030
ENDCHAR
STARTCHAR X
ENCODING 88
SWIDTH 504 0
DWIDTH 10 0
BBX 8 13 1 0
BITMAP
81
42
42
24
24
18
18
18
24
26
42
C1
81
ENDCHAR
STARTCHAR Y
ENCODING 89
SWIDTH 493 0
DWIDTH 10 0
BBX 8 13 1 0
BITMAP
81
81
42
42
24
24
18
18
10
10
10
10
10
ENDCHAR
STARTCHAR Z
ENCODING 90
SWIDTH 482 0
DWIDTH 10 0
BBX 8 13 1 0
BITMAP
FF
02
06
04
0C
08
10
10
20
60
40
80
FF
ENDCHAR
STARTCHAR bracketleft
ENCODING 91
SWIDTH 287 0
DWIDTH 6 0
BBX 3 15 1 -2
BITMAP
E0
80
80
80
80
80
80
80
80
80
80
80
80
80
E0
ENDCHAR
STARTCHAR backslash
ENCODING 92
SWIDTH 396 0
DWIDTH 8 0
BBX 6 13 1 0
BITMAP
80
40
40
40
20
20
30
10
10
08
08
08
04
ENDCHAR
STARTCHAR bracketright
ENCODING 93
SWIDTH 287 0
DWIDTH 6 0
BBX 3 15 1 -2
BITMAP
E0
20
20
20
20
20
20
20
20
20
20
20
20
20
E0
ENDCHAR
STARTCHAR asciicircum
ENCODING 94
SWIDTH 465 0
DWIDTH 9 0
BBX 7 5 1 8
BITMAP
18
28
24
44
C2
ENDCHAR
STARTCHAR underscore
ENCODING 95
SWIDTH 372 0
DWIDTH 7 0
BBX 7 1 0 -2
BITMAP
FE
ENDCHAR
STARTCHAR grave
ENCODING 96
SWIDTH 269 0
DWIDTH 5 0
BBX 3 2 1 12
BITMAP
C0
60
ENDCHAR
STARTCHAR a
ENCODING 97
SWIDTH 502 0
DWIDTH 10 0
BBX 8 10 1 0
BITMAP
7F
41
81
81
81
81
81
81
43
7D
ENDCHAR
STARTCHAR b
ENCODING 98
SWIDTH 504 0
DWIDTH 10 0
BBX 8 14 1 0
BITMAP
C0
C0
C0
C0
FE
C3
C1
C1
C1
C1
C1
C1
C3
FE
ENDCHAR
STARTCHAR c
ENCODING 99
SWIDTH 394 0
DWIDTH 8 0
BBX 6 10 1 0
BITMAP
7C
40
80
80
80
80
80
80
40
7C
ENDCHAR
STARTCHAR d
ENCODING 100
SWIDTH 504 0
DWIDTH 10 0
BBX 8 14 1 0
BITMAP
01
01
01
01
7D
43
81
81
81
81
81
81
43
7D
ENDCHAR
STARTCHAR e
ENCODING 101
SWIDTH 492 0
DWIDTH 10 0
BBX 8 10 1 0
BITMAP
7E
42
81
81
81
FF
80
80
40
7F
ENDCHAR
STARTCHAR f
ENCODING 102
SWIDTH 303 0
DWIDTH 6 0
BBX 5 14 1 0
BITMAP
38
20
40
40
F8
40
40
40
40
40
40
40
40
40
ENDCHAR
STARTCHAR g
ENCODING 103
SWIDTH 506 0
DWIDTH 10 0
BBX 8 13 1 -3
BITMAP
7F
41
81
81
81
81
81
81
43
3D
01
02
7E
ENDCHAR
STARTCHAR h
ENCODING 104
SWIDTH 507 0
DWIDTH 10 0
BBX 8 14 1 0
BITMAP
C0
C0
C0
C0
FE
C3
C1
C1
C1
C1
C1
C1
C1
C1
ENDCHAR
STARTCHAR i
ENCODING 105
SWIDTH 210 0
DWIDTH 4 0
BBX 1 14 2 0
BITMAP
80
80
00
00
80
80
80
80
80
80
80
80
80
80
ENDCHAR
STARTCHAR j
ENCODING 106
SWIDTH 210 0
DWIDTH 4 0
BBX 4 17 -1 -3
BITMAP
10
10
00
00
10
10
10
10
10
10
10
10
10
10
10
20
E0
ENDCHAR
STARTCHAR k
ENCODING 107
SWIDTH 431 0
DWIDTH 9 0
BBX 7 14 1 0
BITMAP
C0
C0
C0
C0
C2
C4
C8
C8
D0
D0
C8
C4
C4
C2
ENDCHAR
STARTCHAR l
ENCODING 108
SWIDTH 210 0
DWIDTH 4 0
BBX 1 14 2 0
BITMAP
80
80
80
80
80
80
80
80
80
80
80
80
80
80
ENDCHAR
STARTCHAR m
ENCODING 109
SWIDTH 769 0
DWIDTH 15 0
BBX 13 10 1 0
BITMAP
FCF0
C308
C208
C208
C208
C208
C208
C208
C208
C208
ENDCHAR
STARTCHAR n
ENCODING 110
SWIDTH 507 0
DWIDTH 10 0
BBX 8 10 1 0
BITMAP
FE
C3
C1
C1
C1
C1
C1
C1
C1
C1
ENDCHAR
STARTCHAR o
ENCODING 111
SWIDTH 496 0
DWIDTH 10 0
BBX 8 10 1 0
BITMAP
7E
42
81
81
81
81
81
81
42
7E
ENDCHAR
STARTCHAR p
ENCODING 112
SWIDTH 504 0
DWIDTH 10 0
BBX 8 13 1 -3
BITMAP
FE
C3
C1
C1
C1
C1
C1
C1
C3
FE
C0
C0
C0
ENDCHAR
STARTCHAR q
ENCODING 113
SWIDTH 502 0
DWIDTH 10 0
BBX 8 13 1 -3
BITMAP
7F
41
81
81
81
81
81
81
43
7D
01
01
01
ENDCHAR
STARTCHAR r
ENCODING 114
SWIDTH 313 0
DWIDTH 6 0
BBX 5 10 1 0
BITMAP
F8
C0
C0
C0
C0
C0
C0
C0
C0
C0
ENDCHAR
STARTCHAR s
ENCODING 115
SWIDTH 431 0
DWIDTH 9 0
BBX 7 10 1 0
BITMAP
7C
80
80
80
70
0C
04
06
04
FC
ENDCHAR
STARTCHAR t
ENCODING 116
SWIDTH 347 0
DWIDTH 7 0
BBX 6 12 0 0
BITMAP
20
20
FC
20
20
20
20
20
20
20
30
1C
ENDCHAR
STARTCHAR u
ENCODING 117
SWIDTH 507 0
DWIDTH 10 0
BBX 8 10 1 0
BITMAP
81
81
81
81
81
81
81
81
43
7D
ENDCHAR
STARTCHAR v
ENCODING 118
SWIDTH 416 0
DWIDTH 8 0
BBX 8 10 0 0
BITMAP
C1
43
42
42
22
24
24
14
18
18
ENDCHAR
STARTCHAR w
ENCODING 119
SWIDTH 683 0
DWIDTH 14 0
BBX 13 10 0 0
BITMAP
C208
4308
4308
4510
2490
2490
28A0
18A0
1860
1860
ENDCHAR
STARTCHAR x
ENCODING 120
SWIDTH 413 0
DWIDTH 8 0
BBX 8 10 0 0
BITMAP
43
62
24
14
18
18
14
24
42
C3
ENDCHAR
STARTCHAR y
ENCODING 121
SWIDTH 459 0
DWIDTH 9 0
BBX 8 13 1 -3
BITMAP
83
82
82
44
44
44
28
28
18
10
10
30
E0
ENDCHAR
STARTCHAR z
ENCODING 122
SWIDTH 405 0
DWIDTH 8 0
BBX 6 10 1 0
BITMAP
FC
04
08
18
10
20
60
40
80
FC
ENDCHAR
STARTCHAR braceleft
ENCODING 123
SWIDTH 298 0
DWIDTH 6 0
BBX 4 15 1 -2
BITMAP
30
40
40
40
40
40
40
80
40
40
40
40
40
40
30
ENDCHAR
STARTCHAR bar
ENCODING 124
SWIDTH 207 0
DWIDTH 4 0
BBX 1 13 2 0
BITMAP
80
80
80
80
80
80
80
80
80
80
80
80
80
ENDCHAR
STARTCHAR braceright
ENCODING 125
SWIDTH 298 0
DWIDTH 6 0
BBX 4 15 1 -2
BITMAP
C0
40
40
40
40
40
20
30
20
40
40
40
40
40
80
ENDCHAR
STARTCHAR asciitilde
ENCODING 126
SWIDTH 523 0
DWIDTH 10 0
BBX 8 1 1 6
BITMAP
FF
ENDCHAR
STARTCHAR uni00A0
ENCODING 160
SWIDTH 267 0
DWIDTH 5 0
BBX 1 1 0 0
BITMAP
00
ENDCHAR
STARTCHAR exclamdown
ENCODING 161
SWIDTH 237 0
DWIDTH 5 0
BBX 1 13 2 0
BITMAP
80
80
80
00
80
80
80
80
80
80
80
80
80
ENDCHAR
STARTCHAR cent
ENCODING 162
SWIDTH 414 0
DWIDTH 8 0
BBX 7 13 1 -1
BITMAP
08
08
7E
40
80
80
80
80
80
80
40
7E
08
ENDCHAR
STARTCHAR sterling
ENCODING 163
SWIDTH 528 0
DWIDTH 11 0
BBX 8 13 1 0
BITMAP
3E
61
41
41
40
40
40
FC
40
40
40
40
FF
ENDCHAR
STARTCHAR yen
ENCODING 165
SWIDTH 499 0
DWIDTH 10 0
BBX 8 13 1 0
BITMAP
81
81
42
42
24
24
FF
18
18
FF
10
10
10
ENDCHAR
STARTCHAR brokenbar
ENCODING 166
SWIDTH 201 0
DWIDTH 4 0
BBX 1 13 2 0
BITMAP
80
80
80
80
80
00
00
00
80
80
80
80
80
ENDCHAR
STARTCHAR section
ENCODING 167
SWIDTH 454 0
DWIDTH 9 0
BBX 7 13 1 0
BITMAP
7C
80
80
80
F8
86
82
42
3E
02
02
02
FC
ENDCHAR
STARTCHAR dieresis
ENCODING 168
SWIDTH 345 0
DWIDTH 7 0
BBX 5 3 1 11
BITMAP
88
88
88
ENDCHAR
STARTCHAR copyright
ENCODING 169
SWIDTH 723 0
DWIDTH 14 0
BBX 12 13 1 0
BITMAP
7FE0
4010
8010
8F10
8890
9090
9010
9010
9090
8890
8F10
4010
7FE0
ENDCHAR
STARTCHAR guillemotleft
ENCODING 171
SWIDTH 431 0
DWIDTH 9 0
BBX 6 6 1 2
BITMAP
34
48
90
90
68
34
ENDCHAR
STARTCHAR registered
ENCODING 174
SWIDTH 439 0
DWIDTH 9 0
BBX 6 6 1 8
BITMAP
7C
BC
AC
BC
AC
7C
ENDCHAR
STARTCHAR macron
ENCODING 175
SWIDTH 358 0
DWIDTH 7 0
BBX 5 1 1 12
BITMAP
F8
ENDCHAR
STARTCHAR degree
ENCODING 176
SWIDTH 298 0
DWIDTH 6 0
BBX 2 4 2 10
BITMAP
C0
C0
C0
C0
ENDCHAR
STARTCHAR plusminus
ENCODING 177
SWIDTH 523 0
DWIDTH 10 0
BBX 8 8 1 2
BITMAP
08
08
08
FF
08
08
00
FF
ENDCHAR
STARTCHAR acute
ENCODING 180
SWIDTH 269 0
DWIDTH 5 0
BBX 3 2 1 12
BITMAP
60
C0
ENDCHAR
STARTCHAR paragraph
ENCODING 182
SWIDTH 513 0
DWIDTH 10 0
BBX 8 13 1 0
BITMAP
7F
E1
E1
E1
E1
E1
21
21
21
21
21
21
21
ENDCHAR
STARTCHAR periodcentered
ENCODING 183
SWIDTH 207 0
DWIDTH 4 0
BBX 2 3 1 5
BITMAP
C0
C0
C0
ENDCHAR
STARTCHAR cedilla
ENCODING 184
SWIDTH 257 0
DWIDTH 5 0
BBX 3 4 1 -4
BITMAP
40
C0
20
E0
ENDCHAR
STARTCHAR guillemotright
ENCODING 187
SWIDTH 431 0
DWIDTH 9 0
BBX 6 6 1 2
BITMAP
90
48
34
24
48
90
ENDCHAR
STARTCHAR questiondown
ENCODING 191
SWIDTH 473 0
DWIDTH 9 0
BBX 7 13 1 0
BITMAP
10
10
10
00
10
10
10
20
40
82
82
42
7C
ENDCHAR
STARTCHAR Agrave
ENCODING 192
SWIDTH 532 0
DWIDTH 11 0
BBX 9 17 1 0
BITMAP
2000
1000
1800
0000
1800
1800
1400
1400
2400
2200
2200
4200
4100
7F00
8100
8080
8080
ENDCHAR
STARTCHAR Aacute
ENCODING 193
SWIDTH 532 0
DWIDTH 11 0
BBX 9 17 1 0
BITMAP
0200
0400
0800
0000
1800
1800
1400
1400
2400
2200
2200
4200
4100
7F00
8100
8080
8080
ENDCHAR
STARTCHAR Acircumflex
ENCODING 194
SWIDTH 532 0
DWIDTH 11 0
BBX 9 17 1 0
BITMAP
0800
1400
3400
0000
1800
1800
1400
1400
2400
2200
2200
4200
4100
7F00
8100
8080
8080
ENDCHAR
STARTCHAR Atilde
ENCODING 195
SWIDTH 532 0
DWIDTH 11 0
BBX 9 17 1 0
BITMAP
2C00
2A00
1200
0000
1800
1800
1400
1400
2400
2200
2200
4200
4100
7F00
8100
8080
8080
ENDCHAR
STARTCHAR Adieresis
ENCODING 196
SWIDTH 532 0
DWIDTH 11 0
BBX 9 17 1 0
BITMAP
2400
2400
2400
0000
1800
1800
1400
1400
2400
2200
2200
4200
4100
7F00
8100
8080
8080
ENDCHAR
STARTCHAR Aring
ENCODING 197
SWIDTH 532 0
DWIDTH 11 0
BBX 9 17 1 0
BITMAP
1C00
2400
2400
1C00
1800
1800
1400
1400
2400
2200
2200
4200
4100
7F00
8100
8080
8080
ENDCHAR
STARTCHAR AE
ENCODING 198
SWIDTH 773 0
DWIDTH 15 0
BBX 14 13 0 0
BITMAP
01FC
0280
0280
0480
0480
0880
18FC
1080
3080
3F80
6080
4080
80FC
ENDCHAR
STARTCHAR Ccedilla
ENCODING 199
SWIDTH 542 0
DWIDTH 11 0
BBX 9 17 1 -4
BITMAP
3F00
4100
4080
C080
C000
C000
C000
C000
C000
C080
4080
4100
3F00
0800
0C00
0400
0C00
ENDCHAR
STARTCHAR Egrave
ENCODING 200
SWIDTH 481 0
DWIDTH 10 0
BBX 6 17 2 0
BITMAP
40
20
30
00
FC
80
80
80
80
80
FC
80
80
80
80
80
FC
ENDCHAR
STARTCHAR Eacute
ENCODING 201
SWIDTH 481 0
DWIDTH 10 0
BBX 6 17 2 0
BITMAP
08
10
10
00
FC
80
80
80
80
80
FC
80
80
80
80
80
FC
ENDCHAR
STARTCHAR Ecircumflex
ENCODING 202
SWIDTH 481 0
DWIDTH 10 0
BBX 6 17 2 0
BITMAP
20
30
48
00
FC
80
80
80
80
80
FC
80
80
80
80
80
FC
ENDCHAR
STARTCHAR Edieresis
ENCODING 203
SWIDTH 481 0
DWIDTH 10 0
BBX 6 17 2 0
BITMAP
48
48
48
00
FC
80
80
80
80
80
FC
80
80
80
80
80
FC
ENDCHAR
STARTCHAR Igrave
ENCODING 204
SWIDTH 230 0
DWIDTH 5 0
BBX 3 17 0 0
BITMAP
80
40
60
00
20
20
20
20
20
20
20
20
20
20
20
20
20
ENDCHAR
STARTCHAR Iacute
ENCODING 205
SWIDTH 231 0
DWIDTH 5 0
BBX 3 17 2 0
BITMAP
20
40
80
00
80
80
80
80
80
80
80
80
80
80
80
80
80
ENDCHAR
STARTCHAR Icircumflex
ENCODING 206
SWIDTH 229 0
DWIDTH 5 0
BBX 4 17 0 0
BITMAP
20
60
D0
00
20
20
20
20
20
20
20
20
20
20
20
20
20
ENDCHAR
STARTCHAR Idieresis
ENCODING 207
SWIDTH 230 0
DWIDTH 5 0
BBX 4 17 0 0
BITMAP
90
90
90
00
20
20
20
20
20
20
20
20
20
20
20
20
20
ENDCHAR
STARTCHAR Eth
ENCODING 208
SWIDTH 514 0
DWIDTH 10 0
BBX 10 13 0 0
BITMAP
3F80
2080
2040
2040
2040
2040
FC40
2040
2040
2040
2040
2080
3F80
ENDCHAR
STARTCHAR Ntilde
ENCODING 209
SWIDTH 579 0
DWIDTH 12 0
BBX 8 17 2 0
BITMAP
4C
54
34
00
81
81
C1
E1
A1
91
91
89
89
85
83
83
81
ENDCHAR
STARTCHAR Ograve
ENCODING 210
SWIDTH 553 0
DWIDTH 11 0
BBX 9 17 1 0
BITMAP
2000
1000
0800
0000
3F00
4100
4080
C080
C080
C080
C080
C080
C080
C080
4080
4100
3F00
ENDCHAR
STARTCHAR Oacute
ENCODING 211
SWIDTH 553 0
DWIDTH 11 0
BBX 9 17 1 0
BITMAP
0200
0400
0800
0000
3F00
4100
4080
C080
C080
C080
C080
C080
C080
C080
4080
4100
3F00
ENDCHAR
STARTCHAR Ocircumflex
ENCODING 212
SWIDTH 553 0
DWIDTH 11 0
BBX 9 17 1 0
BITMAP
0800
1400
1400
0000
3F00
4100
4080
C080
C080
C080
C080
C080
C080
C080
4080
4100
3F00
ENDCHAR
STARTCHAR Otilde
ENCODING 213
SWIDTH 553 0
DWIDTH 11 0
BBX 9 17 1 0
BITMAP
2400
2A00
1200
0000
3F00
4100
4080
C080
C080
C080
C080
C080
C080
C080
4080
4100
3F00
ENDCHAR
STARTCHAR Odieresis
ENCODING 214
SWIDTH 553 0
DWIDTH 11 0
BBX 9 17 1 0
BITMAP
2200
2200
2200
0000
3F00
4100
4080
C080
C080
C080
C080
C080
C080
C080
4080
4100
3F00
ENDCHAR
STARTCHAR multiply
ENCODING 215
SWIDTH 493 0
DWIDTH 10 0
BBX 6 6 2 3
BITMAP
8C
58
30
70
C8
84
ENDCHAR
STARTCHAR Oslash
ENCODING 216
SWIDTH 559 0
DWIDTH 11 0
BBX 9 13 1 0
BITMAP
3F80
4180
4180
4280
4280
4480
4880
5080
5080
6080
4080
4100
BF00
ENDCHAR
STARTCHAR Ugrave
ENCODING 217
SWIDTH 552 0
DWIDTH 11 0
BBX 7 17 2 0
BITMAP
40
20
10
00
82
82
82
82
82
82
82
82
82
82
82
82
7C
ENDCHAR
STARTCHAR Uacute
ENCODING 218
SWIDTH 552 0
DWIDTH 11 0
BBX 7 17 2 0
BITMAP
04
08
10
00
82
82
82
82
82
82
82
82
82
82
82
82
7C
ENDCHAR
STARTCHAR Ucircumflex
ENCODING 219
SWIDTH 552 0
DWIDTH 11 0
BBX 7 17 2 0
BITMAP
10
28
28
00
82
82
82
82
82
82
82
82
82
82
82
82
7C
ENDCHAR
STARTCHAR Udieresis
ENCODING 220
SWIDTH 552 0
DWIDTH 11 0
BBX 7 17 2 0
BITMAP
44
44
44
00
82
82
82
82
82
82
82
82
82
82
82
82
7C
ENDCHAR
STARTCHAR Yacute
ENCODING 221
SWIDTH 493 0
DWIDTH 10 0
BBX 8 17 1 0
BITMAP
04
08
08
00
81
81
42
42
24
24
18
18
10
10
10
10
10
ENDCHAR
STARTCHAR Thorn
ENCODING 222
SWIDTH 501 0
DWIDTH 10 0
BBX 7 13 2 0
BITMAP
80
80
80
FC
84
82
82
82
84
FC
80
80
80
ENDCHAR
STARTCHAR germandbls
ENCODING 223
SWIDTH 540 0
DWIDTH 11 0
BBX 7 13 2 0
BITMAP
7C
82
82
82
82
82
9C
82
82
82
82
82
BC
ENDCHAR
STARTCHAR agrave
ENCODING 224
SWIDTH 502 0
DWIDTH 10 0
BBX 8 14 1 0
BITMAP
30
10
08
00
7F
41
81
81
81
81
81
81
43
7D
ENDCHAR
STARTCHAR aacute
ENCODING 225
SWIDTH 502 0
DWIDTH 10 0
BBX 8 14 1 0
BITMAP
04
08
08
00
7F
41
81
81
81
81
81
81
43
7D
ENDCHAR
STARTCHAR acircumflex
ENCODING 226
SWIDTH 502 0
DWIDTH 10 0
BBX 8 14 1 0
BITMAP
18
14
24
00
7F
41
81
81
81
81
81
81
43
7D
ENDCHAR
STARTCHAR atilde
ENCODING 227
SWIDTH 504 0
DWIDTH 10 0
BBX 8 14 1 0
BITMAP
2C
2A
12
00
7F
41
81
81
81
81
81
81
43
7D
ENDCHAR
STARTCHAR adieresis
ENCODING 228
SWIDTH 502 0
DWIDTH 10 0
BBX 8 14 1 0
BITMAP
24
24
24
00
7F
41
81
81
81
81
81
81
43
7D
ENDCHAR
STARTCHAR aring
ENCODING 229
SWIDTH 502 0
DWIDTH 10 0
BBX 8 15 1 0
BITMAP
18
24
24
18
00
7F
41
81
81
81
81
81
81
43
7D
ENDCHAR
STARTCHAR ae
ENCODING 230
SWIDTH 795 0
DWIDTH 16 0
BBX 14 10 1 0
BITMAP
7CF8
0308
0304
0304
7F04
43FC
8300
8300
4300
7CFC
ENDCHAR
STARTCHAR ccedilla
ENCODING 231
SWIDTH 394 0
DWIDTH 8 0
BBX 6 14 1 -4
BITMAP
7C
40
80
80
80
80
80
80
40
7C
10
18
08
18
ENDCHAR
STARTCHAR egrave
ENCODING 232
SWIDTH 492 0
DWIDTH 10 0
BBX 8 14 1 0
BITMAP
20
10
08
00
7E
42
81
81
81
FF
80
80
40
7F
ENDCHAR
STARTCHAR eacute
ENCODING 233
SWIDTH 492 0
DWIDTH 10 0
BBX 8 14 1 0
BITMAP
0C
08
10
00
7E
42
81
81
81
FF
80
80
40
7F
ENDCHAR
STARTCHAR ecircumflex
ENCODING 234
SWIDTH 492 0
DWIDTH 10 0
BBX 8 14 1 0
BITMAP
18
18
24
00
7E
42
81
81
81
FF
80
80
40
7F
ENDCHAR
STARTCHAR edieresis
ENCODING 235
SWIDTH 492 0
DWIDTH 10 0
BBX 8 14 1 0
BITMAP
24
24
24
00
7E
42
81
81
81
FF
80
80
40
7F
ENDCHAR
STARTCHAR igrave
ENCODING 236
SWIDTH 210 0
DWIDTH 4 0
BBX 3 14 0 0
BITMAP
80
40
40
00
20
20
20
20
20
20
20
20
20
20
ENDCHAR
STARTCHAR iacute
ENCODING 237
SWIDTH 208 0
DWIDTH 4 0
BBX 2 14 2 0
BITMAP
40
80
80
00
80
80
80
80
80
80
80
80
80
80
ENDCHAR
STARTCHAR icircumflex
ENCODING 238
SWIDTH 210 0
DWIDTH 4 0
BBX 4 14 0 0
BITMAP
60
50
90
00
20
20
20
20
20
20
20
20
20
20
ENDCHAR
STARTCHAR idieresis
ENCODING 239
SWIDTH 210 0
DWIDTH 4 0
BBX 4 14 0 0
BITMAP
90
90
90
00
20
20
20
20
20
20
20
20
20
20
ENDCHAR
STARTCHAR eth
ENCODING 240
SWIDTH 488 0
DWIDTH 10 0
BBX 8 14 1 0
BITMAP
22
24
18
18
64
02
7E
43
83
83
83
83
42
7C
ENDCHAR
STARTCHAR ntilde
ENCODING 241
SWIDTH 507 0
DWIDTH 10 0
BBX 8 14 1 0
BITMAP
2C
2C
34
00
FE
C3
C1
C1
C1
C1
C1
C1
C1
C1
ENDCHAR
STARTCHAR ograve
ENCODING 242
SWIDTH 496 0
DWIDTH 10 0
BBX 8 14 1 0
BITMAP
20
10
10
00
7E
42
81
81
81
81
81
81
42
7E
ENDCHAR
STARTCHAR oacute
ENCODING 243
SWIDTH 496 0
DWIDTH 10 0
BBX 8 14 1 0
BITMAP
04
08
08
00
7E
42
81
81
81
81
81
81
42
7E
ENDCHAR
STARTCHAR ocircumflex
ENCODING 244
SWIDTH 496 0
DWIDTH 10 0
BBX 8 14 1 0
BITMAP
18
18
24
00
7E
42
81
81
81
81
81
81
42
7E
ENDCHAR
STARTCHAR otilde
ENCODING 245
SWIDTH 496 0
DWIDTH 10 0
BBX 8 14 1 0
BITMAP
2C
34
34
00
7E
42
81
81
81
81
81
81
42
7E
ENDCHAR
STARTCHAR odieresis
ENCODING 246
SWIDTH 496 0
DWIDTH 10 0
BBX 8 14 1 0
BITMAP
24
24
24
00
7E
42
81
81
81
81
81
81
42
7E
ENDCHAR
STARTCHAR divide
ENCODING 247
SWIDTH 510 0
DWIDTH 10 0
BBX 8 8 1 2
BITMAP
08
08
00
FF
00
00
08
08
ENDCHAR
STARTCHAR oslash
ENCODING 248
SWIDTH 521 0
DWIDTH 10 0
BBX 10 10 0 0
BITMAP
1F40
2180
2180
2280
2480
2880
3080
2080
6180
9F00
ENDCHAR
STARTCHAR ugrave
ENCODING 249
SWIDTH 507 0
DWIDTH 10 0
BBX 8 14 1 0
BITMAP
20
10
08
00
81
81
81
81
81
81
81
81
43
7D
ENDCHAR
STARTCHAR uacute
ENCODING 250
SWIDTH 507 0
DWIDTH 10 0
BBX 8 14 1 0
BITMAP
04
08
08
00
81
81
81
81
81
81
81
81
43
7D
ENDCHAR
STARTCHAR ucircumflex
ENCODING 251
SWIDTH 507 0
DWIDTH 10 0
BBX 8 14 1 0
BITMAP
18
18
24
00
81
81
81
81
81
81
81
81
43
7D
ENDCHAR
STARTCHAR udieresis
ENCODING 252
SWIDTH 507 0
DWIDTH 10 0
BBX 8 14 1 0
BITMAP
24
24
24
00
81
81
81
81
81
81
81
81
43
7D
ENDCHAR
STARTCHAR yacute
ENCODING 253
SWIDTH 459 0
DWIDTH 9 0
BBX 8 17 1 -3
BITMAP
0C
08
10
00
83
82
82
44
44
44
28
28
18
10
10
30
E0
ENDCHAR
STARTCHAR thorn
ENCODING 254
SWIDTH 508 0
DWIDTH 10 0
BBX 7 17 2 -3
BITMAP
80
80
80
80
FC
86
82
82
82
82
82
82
86
FC
80
80
80
ENDCHAR
STARTCHAR ydieresis
ENCODING 255
SWIDTH 459 0
DWIDTH 9 0
BBX 8 17 1 -3
BITMAP
44
44
44
00
83
82
82
44
44
44
28
28
18
10
10
30
E0
ENDCHAR
STARTCHAR Amacron
ENCODING 256
SWIDTH 532 0
DWIDTH 11 0
BBX 9 16 1 0
BITMAP
3E00
0000
0000
1800
1800
1400
1400
2400
2200
2200
4200
4100
7F00
8100
8080
8080
ENDCHAR
STARTCHAR amacron
ENCODING 257
SWIDTH 502 0
DWIDTH 10 0
BBX 8 13 1 0
BITMAP
3E
00
00
7F
41
81
81
81
81
81
81
43
7D
ENDCHAR
STARTCHAR Abreve
ENCODING 258
SWIDTH 532 0
DWIDTH 11 0
BBX 9 17 1 0
BITMAP
2400
2400
1C00
0000
1800
1800
1400
1400
2400
2200
2200
4200
4100
7F00
8100
8080
8080
ENDCHAR
STARTCHAR abreve
ENCODING 259
SWIDTH 502 0
DWIDTH 10 0
BBX 8 14 1 0
BITMAP
22
24
1C
00
7F
41
81
81
81
81
81
81
43
7D
ENDCHAR
STARTCHAR Aogonek
ENCODING 260
SWIDTH 532 0
DWIDTH 11 0
BBX 9 15 1 -2
BITMAP
1800
1800
1400
1400
2400
2200
2200
4200
4100
7F00
8100
8080
8080
0100
0180
ENDCHAR
STARTCHAR aogonek
ENCODING 261
SWIDTH 502 0
DWIDTH 10 0
BBX 8 12 1 -2
BITMAP
7F
41
81
81
81
81
81
81
43
7D
02
06
ENDCHAR
STARTCHAR Cacute
ENCODING 262
SWIDTH 542 0
DWIDTH 11 0
BBX 9 17 1 0
BITMAP
0200
0400
0800
0000
3F00
4100
4080
C080
C000
C000
C000
C000
C000
C080
4080
4100
3F00
ENDCHAR
STARTCHAR cacute
ENCODING 263
SWIDTH 394 0
DWIDTH 8 0
BBX 6 14 1 0
BITMAP
0C
08
10
00
7C
40
80
80
80
80
80
80
40
7C
ENDCHAR
STARTCHAR Cdotaccent
ENCODING 266
SWIDTH 542 0
DWIDTH 11 0
BBX 9 16 1 0
BITMAP
0800
0800
0000
3F00
4100
4080
C080
C000
C000
C000
C000
C000
C080
4080
4100
3F00
ENDCHAR
STARTCHAR cdotaccent
ENCODING 267
SWIDTH 394 0
DWIDTH 8 0
BBX 6 14 1 0
BITMAP
10
10
00
00
7C
40
80
80
80
80
80
80
40
7C
ENDCHAR
STARTCHAR Ccaron
ENCODING 268
SWIDTH 542 0
DWIDTH 11 0
BBX 9 17 1 0
BITMAP
1200
1400
0800
0000
3F00
4100
4080
C080
C000
C000
C000
C000
C000
C080
4080
4100
3F00
ENDCHAR
STARTCHAR ccaron
ENCODING 269
SWIDTH 394 0
DWIDTH 8 0
BBX 6 14 1 0
BITMAP
24
28
10
00
7C
40
80
80
80
80
80
80
40
7C
ENDCHAR
STARTCHAR Dcaron
ENCODING 270
SWIDTH 557 0
DWIDTH 11 0
BBX 8 17 2 0
BITMAP
44
28
10
00
FE
82
81
81
81
81
81
81
81
81
81
82
FE
ENDCHAR
STARTCHAR dcaron
ENCODING 271
SWIDTH 534 0
DWIDTH 11 0
BBX 10 14 1 0
BITMAP
0140
0140
0140
0140
7D80
4300
8100
8100
8100
8100
8100
8100
4300
7D00
ENDCHAR
STARTCHAR Dcroat
ENCODING 272
SWIDTH 514 0
DWIDTH 10 0
BBX 10 13 0 0
BITMAP
3F80
2080
2040
2040
2040
FC40
2040
2040
2040
2040
2040
2080
3F80
ENDCHAR
STARTCHAR dcroat
ENCODING 273
SWIDTH 539 0
DWIDTH 11 0
BBX 9 14 1 0
BITMAP
0100
0100
1F80
0100
0100
7D00
4300
8100
8100
8100
8100
8100
4300
7D00
ENDCHAR
STARTCHAR Emacron
ENCODING 274
SWIDTH 481 0
DWIDTH 10 0
BBX 6 16 2 0
BITMAP
78
00
00
FC
80
80
80
80
80
FC
80
80
80
80
80
FC
ENDCHAR
STARTCHAR emacron
ENCODING 275
SWIDTH 492 0
DWIDTH 10 0
BBX 8 13 1 0
BITMAP
3C
00
00
7E
42
81
81
81
FF
80
80
40
7F
ENDCHAR
STARTCHAR Ebreve
ENCODING 276
SWIDTH 481 0
DWIDTH 10 0
BBX 6 17 2 0
BITMAP
48
48
30
00
FC
80
80
80
80
80
FC
80
80
80
80
80
FC
ENDCHAR
STARTCHAR ebreve
ENCODING 277
SWIDTH 492 0
DWIDTH 10 0
BBX 8 14 1 0
BITMAP
24
24
18
00
7E
42
81
81
81
FF
80
80
40
7F
ENDCHAR
STARTCHAR Edotaccent
ENCODING 278
SWIDTH 496 0
DWIDTH 10 0
BBX 6 16 2 0
BITMAP
30
30
00
FC
80
80
80
80
80
FC
80
80
80
80
80
FC
ENDCHAR
STARTCHAR edotaccent
ENCODING 279
SWIDTH 492 0
DWIDTH 10 0
BBX 8 14 1 0
BITMAP
18
18
00
00
7E
42
81
81
81
FF
80
80
40
7F
ENDCHAR
STARTCHAR Eogonek
ENCODING 280
SWIDTH 481 0
DWIDTH 10 0
BBX 6 15 2 -2
BITMAP
FC
80
80
80
80
80
FC
80
80
80
80
80
FC
08
18
ENDCHAR
STARTCHAR eogonek
ENCODING 281
SWIDTH 492 0
DWIDTH 10 0
BBX 8 12 1 -2
BITMAP
7E
42
81
81
81
FF
80
80
40
7F
04
0C
ENDCHAR
STARTCHAR Ecaron
ENCODING 282
SWIDTH 481 0
DWIDTH 10 0
BBX 6 17 2 0
BITMAP
48
28
30
00
FC
80
80
80
80
80
FC
80
80
80
80
80
FC
ENDCHAR
STARTCHAR ecaron
ENCODING 283
SWIDTH 492 0
DWIDTH 10 0
BBX 8 14 1 0
BITMAP
24
18
18
00
7E
42
81
81
81
FF
80
80
40
7F
ENDCHAR
STARTCHAR Gcircumflex
ENCODING 284
SWIDTH 539 0
DWIDTH 11 0
BBX 8 17 1 0
BITMAP
08
14
34
00
3E
41
41
C1
C0
C0
C7
C1
C1
C1
41
41
3E
ENDCHAR
STARTCHAR gcircumflex
ENCODING 285
SWIDTH 506 0
DWIDTH 10 0
BBX 8 17 1 -3
BITMAP
08
14
24
00
7F
41
81
81
81
81
81
81
43
3D
01
02
7E
ENDCHAR
STARTCHAR Gbreve
ENCODING 286
SWIDTH 539 0
DWIDTH 11 0
BBX 8 17 1 0
BITMAP
22
24
1C
00
3E
41
41
C1
C0
C0
C7
C1
C1
C1
41
41
3E
ENDCHAR
STARTCHAR gbreve
ENCODING 287
SWIDTH 506 0
DWIDTH 10 0
BBX 8 17 1 -3
BITMAP
22
12
1C
00
7F
41
81
81
81
81
81
81
43
3D
01
02
7E
ENDCHAR
STARTCHAR Gdotaccent
ENCODING 288
SWIDTH 539 0
DWIDTH 11 0
BBX 8 16 1 0
BITMAP
08
08
00
3E
41
41
C1
C0
C0
C7
C1
C1
C1
41
41
3E
ENDCHAR
STARTCHAR gdotaccent
ENCODING 289
SWIDTH 506 0
DWIDTH 10 0
BBX 8 17 1 -3
BITMAP
08
08
00
00
7F
41
81
81
81
81
81
81
43
3D
01
02
7E
ENDCHAR
STARTCHAR uni0122
ENCODING 290
SWIDTH 539 0
DWIDTH 11 0
BBX 8 18 1 -5
BITMAP
3E
41
41
C1
C0
C0
C7
C1
C1
C1
41
41
3E
00
08
08
08
08
ENDCHAR
STARTCHAR uni0123
ENCODING 291
SWIDTH 506 0
DWIDTH 10 0
BBX 8 18 1 -3
BITMAP
08
08
08
08
00
7F
41
81
81
81
81
81
81
43
3D
01
02
7E
ENDCHAR
STARTCHAR hcircumflex
ENCODING 293
SWIDTH 507 0
DWIDTH 10 0
BBX 8 15 1 0
BITMAP
08
D4
C0
C0
C0
FE
C3
C1
C1
C1
C1
C1
C1
C1
C1
ENDCHAR
STARTCHAR Hbar
ENCODING 294
SWIDTH 523 0
DWIDTH 10 0
BBX 11 13 0 0
BITMAP
2040
2040
2040
FFE0
2040
2040
3FC0
2040
2040
2040
2040
2040
2040
ENDCHAR
STARTCHAR hbar
ENCODING 295
SWIDTH 544 0
DWIDTH 11 0
BBX 9 14 0 0
BITMAP
2000
2000
FE00
2000
2000
2F00
3080
2080
2080
2080
2080
2080
2080
2080
ENDCHAR
STARTCHAR Itilde
ENCODING 296
SWIDTH 230 0
DWIDTH 5 0
BBX 4 17 0 0
BITMAP
B0
B0
D0
00
20
20
20
20
20
20
20
20
20
20
20
20
20
ENDCHAR
STARTCHAR itilde
ENCODING 297
SWIDTH 210 0
DWIDTH 4 0
BBX 4 14 0 0
BITMAP
B0
B0
D0
00
20
20
20
20
20
20
20
20
20
20
ENDCHAR
STARTCHAR Imacron
ENCODING 298
SWIDTH 230 0
DWIDTH 5 0
BBX 5 16 0 0
BITMAP
F8
00
00
20
20
20
20
20
20
20
20
20
20
20
20
20
ENDCHAR
STARTCHAR imacron
ENCODING 299
SWIDTH 208 0
DWIDTH 4 0
BBX 4 13 0 0
BITMAP
F0
00
00
20
20
20
20
20
20
20
20
20
20
ENDCHAR
STARTCHAR Ibreve
ENCODING 300
SWIDTH 231 0
DWIDTH 5 0
BBX 4 17 0 0
BITMAP
90
90
70
00
20
20
20
20
20
20
20
20
20
20
20
20
20
ENDCHAR
STARTCHAR ibreve
ENCODING 301
SWIDTH 211 0
DWIDTH 4 0
BBX 4 14 0 0
BITMAP
90
90
60
00
20
20
20
20
20
20
20
20
20
20
ENDCHAR
STARTCHAR Iogonek
ENCODING 302
SWIDTH 230 0
DWIDTH 5 0
BBX 2 15 1 -2
BITMAP
40
40
40
40
40
40
40
40
40
40
40
40
40
80
C0
ENDCHAR
STARTCHAR iogonek
ENCODING 303
SWIDTH 210 0
DWIDTH 4 0
BBX 3 16 0 -2
BITMAP
20
20
00
00
20
20
20
20
20
20
20
20
20
20
40
C0
ENDCHAR
STARTCHAR Idotaccent
ENCODING 304
SWIDTH 230 0
DWIDTH 5 0
BBX 1 16 2 0
BITMAP
80
80
00
80
80
80
80
80
80
80
80
80
80
80
80
80
ENDCHAR
STARTCHAR dotlessi
ENCODING 305
SWIDTH 212 0
DWIDTH 4 0
BBX 1 10 2 0
BITMAP
80
80
80
80
80
80
80
80
80
80
ENDCHAR
STARTCHAR IJ
ENCODING 306
SWIDTH 721 0
DWIDTH 14 0
BBX 11 13 2 0
BITMAP
8020
8020
8020
8020
8020
8020
8020
8020
9020
9020
9020
8860
8FC0
ENDCHAR
STARTCHAR ij
ENCODING 307
SWIDTH 419 0
DWIDTH 8 0
BBX 5 17 2 -3
BITMAP
88
88
00
00
88
88
88
88
88
88
88
88
88
88
08
18
70
ENDCHAR
STARTCHAR Jcircumflex
ENCODING 308
SWIDTH 494 0
DWIDTH 10 0
BBX 9 17 1 0
BITMAP
0200
0300
0480
0000
0200
0200
0200
0200
0200
0200
0200
0200
8200
8200
8200
8200
7C00
ENDCHAR
STARTCHAR jcircumflex
ENCODING 309
SWIDTH 209 0
DWIDTH 4 0
BBX 5 17 -1 -3
BITMAP
30
28
48
00
10
10
10
10
10
10
10
10
10
10
10
20
E0
ENDCHAR
STARTCHAR uni0136
ENCODING 310
SWIDTH 530 0
DWIDTH 11 0
BBX 8 18 2 -5
BITMAP
82
86
84
88
90
B0
B0
D8
88
84
86
82
81
10
10
10
10
10
ENDCHAR
STARTCHAR uni0137
ENCODING 311
SWIDTH 431 0
DWIDTH 9 0
BBX 7 19 1 -5
BITMAP
C0
C0
C0
C0
C2
C4
C8
C8
D0
D0
C8
C4
C4
C2
00
10
10
10
10
ENDCHAR
STARTCHAR Lacute
ENCODING 313
SWIDTH 451 0
DWIDTH 9 0
BBX 7 17 2 0
BITMAP
60
40
80
00
80
80
80
80
80
80
80
80
80
80
80
80
FE
ENDCHAR
STARTCHAR lacute
ENCODING 314
SWIDTH 207 0
DWIDTH 4 0
BBX 2 18 2 0
BITMAP
40
40
80
80
80
80
80
80
80
80
80
80
80
80
80
80
80
80
ENDCHAR
STARTCHAR uni013B
ENCODING 315
SWIDTH 451 0
DWIDTH 9 0
BBX 7 18 2 -5
BITMAP
80
80
80
80
80
80
80
80
80
80
80
80
FE
00
10
10
20
20
ENDCHAR
STARTCHAR uni013C
ENCODING 316
SWIDTH 211 0
DWIDTH 4 0
BBX 1 19 2 -5
BITMAP
80
80
80
80
80
80
80
80
80
80
80
80
80
80
00
80
80
80
80
ENDCHAR
STARTCHAR Lcaron
ENCODING 317
SWIDTH 451 0
DWIDTH 9 0
BBX 7 13 2 0
BITMAP
88
88
88
88
88
80
80
80
80
80
80
80
FE
ENDCHAR
STARTCHAR lcaron
ENCODING 318
SWIDTH 274 0
DWIDTH 5 0
BBX 3 14 2 0
BITMAP
A0
A0
A0
A0
A0
80
80
80
80
80
80
80
80
80
ENDCHAR
STARTCHAR Ldot
ENCODING 319
SWIDTH 500 0
DWIDTH 10 0
BBX 7 13 2 0
BITMAP
80
80
80
80
80
88
88
88
80
80
80
80
FE
ENDCHAR
STARTCHAR ldot
ENCODING 320
SWIDTH 314 0
DWIDTH 6 0
BBX 3 14 2 0
BITMAP
80
80
80
80
80
80
A0
A0
A0
80
80
80
80
80
ENDCHAR
STARTCHAR Lslash
ENCODING 321
SWIDTH 504 0
DWIDTH 10 0
BBX 9 13 0 0
BITMAP
2000
2000
2000
2800
3000
E000
2000
2000
2000
2000
2000
2000
3F80
ENDCHAR
STARTCHAR lslash
ENCODING 322
SWIDTH 296 0
DWIDTH 6 0
BBX 4 14 1 0
BITMAP
40
40
40
40
50
60
C0
40
40
40
40
40
40
40
ENDCHAR
STARTCHAR Nacute
ENCODING 323
SWIDTH 579 0
DWIDTH 12 0
BBX 8 17 2 0
BITMAP
04
0C
08
00
81
81
C1
E1
A1
91
91
89
89
85
83
83
81
ENDCHAR
STARTCHAR nacute
ENCODING 324
SWIDTH 507 0
DWIDTH 10 0
BBX 8 14 1 0
BITMAP
04
08
08
00
FE
C3
C1
C1
C1
C1
C1
C1
C1
C1
ENDCHAR
STARTCHAR uni0145
ENCODING 325
SWIDTH 579 0
DWIDTH 12 0
BBX 8 18 2 -5
BITMAP
81
81
C1
E1
A1
91
91
89
89
85
83
83
81
00
10
10
10
10
ENDCHAR
STARTCHAR uni0146
ENCODING 326
SWIDTH 505 0
DWIDTH 10 0
BBX 8 15 1 -5
BITMAP
FE
C3
C1
C1
C1
C1
C1
C1
C1
C1
00
08
08
10
10
ENDCHAR
STARTCHAR Ncaron
ENCODING 327
SWIDTH 579 0
DWIDTH 12 0
BBX 8 17 2 0
BITMAP
24
28
18
00
81
81
C1
E1
A1
91
91
89
89
85
83
83
81
ENDCHAR
STARTCHAR ncaron
ENCODING 328
SWIDTH 507 0
DWIDTH 10 0
BBX 8 14 1 0
BITMAP
24
18
08
00
FE
C3
C1
C1
C1
C1
C1
C1
C1
C1
ENDCHAR
STARTCHAR Eng
ENCODING 330
SWIDTH 519 0
DWIDTH 10 0
BBX 8 16 2 -3
BITMAP
81
C1
C1
A1
A1
91
91
89
8D
85
83
83
81
01
03
0E
ENDCHAR
STARTCHAR eng
ENCODING 331
SWIDTH 507 0
DWIDTH 10 0
BBX 8 13 1 -3
BITMAP
FE
C2
C1
C1
C1
C1
C1
C1
C1
C1
01
02
0E
ENDCHAR
STARTCHAR Omacron
ENCODING 332
SWIDTH 553 0
DWIDTH 11 0
BBX 9 16 1 0
BITMAP
3E00
0000
0000
3F00
4100
4080
C080
C080
C080
C080
C080
C080
C080
4080
4100
3F00
ENDCHAR
STARTCHAR omacron
ENCODING 333
SWIDTH 496 0
DWIDTH 10 0
BBX 8 13 1 0
BITMAP
3C
00
00
7E
42
81
81
81
81
81
81
42
7E
ENDCHAR
STARTCHAR Obreve
ENCODING 334
SWIDTH 553 0
DWIDTH 11 0
BBX 9 17 1 0
BITMAP
2200
2200
1C00
0000
3F00
4100
4080
C080
C080
C080
C080
C080
C080
C080
4080
4100
3F00
ENDCHAR
STARTCHAR obreve
ENCODING 335
SWIDTH 496 0
DWIDTH 10 0
BBX 8 14 1 0
BITMAP
24
24
18
00
7E
42
81
81
81
81
81
81
42
7E
ENDCHAR
STARTCHAR Ohungarumlaut
ENCODING 336
SWIDTH 553 0
DWIDTH 11 0
BBX 9 17 1 0
BITMAP
0900
0A00
1400
0000
3F00
4100
4080
C080
C080
C080
C080
C080
C080
C080
4080
4100
3F00
ENDCHAR
STARTCHAR ohungarumlaut
ENCODING 337
SWIDTH 496 0
DWIDTH 10 0
BBX 8 14 1 0
BITMAP
0A
14
24
00
7E
42
81
81
81
81
81
81
42
7E
ENDCHAR
STARTCHAR OE
ENCODING 338
SWIDTH 775 0
DWIDTH 16 0
BBX 12 13 2 0
BITMAP
7FF0
8400
8400
8400
8400
8400
87E0
8400
8400
8400
8400
8400
7FF0
ENDCHAR
STARTCHAR oe
ENCODING 339
SWIDTH 812 0
DWIDTH 16 0
BBX 14 10 1 0
BITMAP
7CF8
4304
8104
8104
8104
81FC
8100
8100
4300
7CFC
ENDCHAR
STARTCHAR Racute
ENCODING 340
SWIDTH 534 0
DWIDTH 11 0
BBX 8 17 2 0
BITMAP
08
18
10
00
FC
82
82
82
82
82
82
FC
88
84
84
82
83
ENDCHAR
STARTCHAR racute
ENCODING 341
SWIDTH 313 0
DWIDTH 6 0
BBX 5 14 1 0
BITMAP
10
20
20
00
F8
C0
C0
C0
C0
C0
C0
C0
C0
C0
ENDCHAR
STARTCHAR uni0156
ENCODING 342
SWIDTH 534 0
DWIDTH 11 0
BBX 8 18 2 -5
BITMAP
FC
82
82
82
82
82
82
FC
88
84
84
82
83
00
10
10
10
10
ENDCHAR
STARTCHAR uni0157
ENCODING 343
SWIDTH 313 0
DWIDTH 6 0
BBX 5 15 1 -5
BITMAP
F8
C0
C0
C0
C0
C0
C0
C0
C0
C0
00
C0
C0
80
80
ENDCHAR
STARTCHAR Rcaron
ENCODING 344
SWIDTH 534 0
DWIDTH 11 0
BBX 8 17 2 0
BITMAP
48
28
30
00
FC
82
82
82
82
82
82
FC
88
84
84
82
83
ENDCHAR
STARTCHAR rcaron
ENCODING 345
SWIDTH 313 0
DWIDTH 6 0
BBX 5 14 1 0
BITMAP
50
50
20
00
F8
C0
C0
C0
C0
C0
C0
C0
C0
C0
ENDCHAR
STARTCHAR Sacute
ENCODING 346
SWIDTH 562 0
DWIDTH 11 0
BBX 8 17 2 0
BITMAP
04
08
10
00
7E
82
81
81
80
C0
3C
06
03
81
81
82
7E
ENDCHAR
STARTCHAR sacute
ENCODING 347
SWIDTH 427 0
DWIDTH 9 0
BBX 7 14 1 0
BITMAP
08
10
20
00
7C
80
80
80
70
0C
04
06
04
FC
ENDCHAR
STARTCHAR Scircumflex
ENCODING 348
SWIDTH 562 0
DWIDTH 11 0
BBX 8 17 2 0
BITMAP
10
28
2C
00
7E
82
81
81
80
C0
3C
06
03
81
81
82
7E
ENDCHAR
STARTCHAR scircumflex
ENCODING 349
SWIDTH 427 0
DWIDTH 9 0
BBX 7 14 1 0
BITMAP
30
28
48
00
7C
80
80
80
70
0C
04
06
04
FC
ENDCHAR
STARTCHAR uni015E
ENCODING 350
SWIDTH 562 0
DWIDTH 11 0
BBX 8 17 2 -4
BITMAP
7E
82
81
81
80
C0
3C
06
03
81
81
82
7E
10
18
08
18
ENDCHAR
STARTCHAR uni015F
ENCODING 351
SWIDTH 427 0
DWIDTH 9 0
BBX 7 14 1 -4
BITMAP
7C
80
80
80
70
0C
04
06
04
FC
10
38
08
30
ENDCHAR
STARTCHAR Scaron
ENCODING 352
SWIDTH 562 0
DWIDTH 11 0
BBX 8 17 2 0
BITMAP
24
28
10
00
7E
82
81
81
80
C0
3C
06
03
81
81
82
7E
ENDCHAR
STARTCHAR scaron
ENCODING 353
SWIDTH 427 0
DWIDTH 9 0
BBX 7 14 1 0
BITMAP
48
30
10
00
7C
80
80
80
70
0C
04
06
04
FC
ENDCHAR
STARTCHAR uni0162
ENCODING 354
SWIDTH 420 0
DWIDTH 8 0
BBX 8 18 0 -5
BITMAP
FF
08
08
08
08
08
08
08
08
08
08
08
08
08
08
08
10
10
ENDCHAR
STARTCHAR uni0163
ENCODING 355
SWIDTH 347 0
DWIDTH 7 0
BBX 6 17 0 -5
BITMAP
20
20
FC
20
20
20
20
20
20
20
30
1C
08
08
08
10
10
ENDCHAR
STARTCHAR Tcaron
ENCODING 356
SWIDTH 420 0
DWIDTH 8 0
BBX 8 17 0 0
BITMAP
24
14
18
00
FF
08
08
08
08
08
08
08
08
08
08
08
08
ENDCHAR
STARTCHAR tcaron
ENCODING 357
SWIDTH 396 0
DWIDTH 8 0
BBX 8 13 0 0
BITMAP
01
21
21
FD
22
20
20
20
20
20
20
30
1C
ENDCHAR
STARTCHAR Tbar
ENCODING 358
SWIDTH 501 0
DWIDTH 10 0
BBX 8 13 0 0
BITMAP
FF
08
08
08
08
08
7E
08
08
08
08
08
08
ENDCHAR
STARTCHAR tbar
ENCODING 359
SWIDTH 350 0
DWIDTH 7 0
BBX 6 12 0 0
BITMAP
20
20
FC
20
20
20
FC
20
20
20
30
1C
ENDCHAR
STARTCHAR Utilde
ENCODING 360
SWIDTH 552 0
DWIDTH 11 0
BBX 7 17 2 0
BITMAP
48
54
24
00
82
82
82
82
82
82
82
82
82
82
82
82
7C
ENDCHAR
STARTCHAR utilde
ENCODING 361
SWIDTH 507 0
DWIDTH 10 0
BBX 8 14 1 0
BITMAP
2C
34
34
00
81
81
81
81
81
81
81
81
43
7D
ENDCHAR
STARTCHAR Umacron
ENCODING 362
SWIDTH 552 0
DWIDTH 11 0
BBX 7 16 2 0
BITMAP
7C
00
00
82
82
82
82
82
82
82
82
82
82
82
82
7C
ENDCHAR
STARTCHAR umacron
ENCODING 363
SWIDTH 507 0
DWIDTH 10 0
BBX 8 13 1 0
BITMAP
3C
00
00
81
81
81
81
81
81
81
81
43
7D
ENDCHAR
STARTCHAR Ubreve
ENCODING 364
SWIDTH 552 0
DWIDTH 11 0
BBX 7 17 2 0
BITMAP
44
44
38
00
82
82
82
82
82
82
82
82
82
82
82
82
7C
ENDCHAR
STARTCHAR ubreve
ENCODING 365
SWIDTH 507 0
DWIDTH 10 0
BBX 8 14 1 0
BITMAP
24
24
18
00
81
81
81
81
81
81
81
81
43
7D
ENDCHAR
STARTCHAR Uring
ENCODING 366
SWIDTH 552 0
DWIDTH 11 0
BBX 7 17 2 0
BITMAP
38
28
28
38
82
82
82
82
82
82
82
82
82
82
82
82
7C
ENDCHAR
STARTCHAR uring
ENCODING 367
SWIDTH 507 0
DWIDTH 10 0
BBX 8 15 1 0
BITMAP
38
24
24
38
00
81
81
81
81
81
81
81
81
43
7D
ENDCHAR
STARTCHAR Uhungarumlaut
ENCODING 368
SWIDTH 552 0
DWIDTH 11 0
BBX 7 17 2 0
BITMAP
12
24
28
00
82
82
82
82
82
82
82
82
82
82
82
82
7C
ENDCHAR
STARTCHAR uhungarumlaut
ENCODING 369
SWIDTH 507 0
DWIDTH 10 0
BBX 8 14 1 0
BITMAP
0A
14
24
00
81
81
81
81
81
81
81
81
43
7D
ENDCHAR
STARTCHAR Uogonek
ENCODING 370
SWIDTH 552 0
DWIDTH 11 0
BBX 7 15 2 -2
BITMAP
82
82
82
82
82
82
82
82
82
82
82
82
7C
10
38
ENDCHAR
STARTCHAR uogonek
ENCODING 371
SWIDTH 503 0
DWIDTH 10 0
BBX 8 12 1 -2
BITMAP
81
81
81
81
81
81
81
81
43
7D
02
06
ENDCHAR
STARTCHAR Wcircumflex
ENCODING 372
SWIDTH 795 0
DWIDTH 16 0
BBX 14 17 1 0
BITMAP
0200
0300
0480
0000
8304
8304
8304
850C
4488
4488
4488
4848
4850
2850
2850
3030
3030
ENDCHAR
STARTCHAR wcircumflex
ENCODING 373
SWIDTH 682 0
DWIDTH 14 0
BBX 13 14 0 0
BITMAP
0300
0500
0480
0000
C208
4308
4308
4510
2490
2490
28A0
18A0
1860
1860
ENDCHAR
STARTCHAR Ycircumflex
ENCODING 374
SWIDTH 493 0
DWIDTH 10 0
BBX 8 17 1 0
BITMAP
10
18
24
00
81
81
42
42
24
24
18
18
10
10
10
10
10
ENDCHAR
STARTCHAR ycircumflex
ENCODING 375
SWIDTH 459 0
DWIDTH 9 0
BBX 8 17 1 -3
BITMAP
18
28
24
00
83
82
82
44
44
44
28
28
18
10
10
30
E0
ENDCHAR
STARTCHAR Ydieresis
ENCODING 376
SWIDTH 493 0
DWIDTH 10 0
BBX 8 17 1 0
BITMAP
24
24
24
00
81
81
42
42
24
24
18
18
10
10
10
10
10
ENDCHAR
STARTCHAR Zacute
ENCODING 377
SWIDTH 482 0
DWIDTH 10 0
BBX 8 17 1 0
BITMAP
04
04
08
00
FF
02
06
04
0C
08
10
10
20
60
40
80
FF
ENDCHAR
STARTCHAR zacute
ENCODING 378
SWIDTH 405 0
DWIDTH 8 0
BBX 6 14 1 0
BITMAP
0C
08
10
00
FC
04
08
18
10
20
60
40
80
FC
ENDCHAR
STARTCHAR Zdotaccent
ENCODING 379
SWIDTH 482 0
DWIDTH 10 0
BBX 8 16 1 0
BITMAP
08
08
00
FF
02
06
04
0C
08
10
10
20
60
40
80
FF
ENDCHAR
STARTCHAR zdotaccent
ENCODING 380
SWIDTH 405 0
DWIDTH 8 0
BBX 6 14 1 0
BITMAP
10
10
00
00
FC
04
08
18
10
20
60
40
80
FC
ENDCHAR
STARTCHAR Zcaron
ENCODING 381
SWIDTH 482 0
DWIDTH 10 0
BBX 8 17 1 0
BITMAP
24
14
18
00
FF
02
06
04
0C
08
10
10
20
60
40
80
FF
ENDCHAR
STARTCHAR zcaron
ENCODING 382
SWIDTH 405 0
DWIDTH 8 0
BBX 6 14 1 0
BITMAP
28
28
10
00
FC
04
08
18
10
20
60
40
80
FC
ENDCHAR
STARTCHAR florin
ENCODING 402
SWIDTH 494 0
DWIDTH 10 0
BBX 10 17 0 -3
BITMAP
01C0
0200
0200
0400
0400
0400
1F00
0400
0800
0800
0800
0800
0800
1000
1000
1000
E000
ENDCHAR
STARTCHAR AEacute
ENCODING 508
SWIDTH 773 0
DWIDTH 15 0
BBX 14 17 0 0
BITMAP
0020
0040
0080
0000
01FC
0280
0280
0480
0480
0880
18FC
1080
3080
3F80
6080
4080
80FC
ENDCHAR
STARTCHAR aeacute
ENCODING 509
SWIDTH 795 0
DWIDTH 16 0
BBX 14 14 1 0
BITMAP
0080
0100
0100
0000
7CF8
0308
0304
0304
7F04
43FC
8300
8300
4300
7CFC
ENDCHAR
STARTCHAR Oslashacute
ENCODING 510
SWIDTH 558 0
DWIDTH 11 0
BBX 9 17 1 0
BITMAP
0200
0400
0800
0000
3F80
4180
4180
4280
4280
4480
4880
5080
5080
6080
4080
4100
BF00
ENDCHAR
STARTCHAR oslashacute
ENCODING 511
SWIDTH 521 0
DWIDTH 10 0
BBX 10 14 0 0
BITMAP
0300
0200
0400
0000
1F40
2180
2180
2280
2480
2880
3080
2080
6180
9F00
ENDCHAR
STARTCHAR uni0218
ENCODING 536
SWIDTH 562 0
DWIDTH 11 0
BBX 8 18 2 -5
BITMAP
7E
82
81
81
80
C0
3C
06
03
81
81
82
7E
00
10
10
10
10
ENDCHAR
STARTCHAR uni0219
ENCODING 537
SWIDTH 427 0
DWIDTH 9 0
BBX 7 15 1 -5
BITMAP
7C
80
80
80
70
0C
04
06
04
FC
10
10
10
10
10
ENDCHAR
STARTCHAR circumflex
ENCODING 710
SWIDTH 326 0
DWIDTH 7 0
BBX 4 2 1 12
BITMAP
60
D0
ENDCHAR
STARTCHAR caron
ENCODING 711
SWIDTH 326 0
DWIDTH 7 0
BBX 4 2 1 12
BITMAP
90
60
ENDCHAR
STARTCHAR uni02C9
ENCODING 713
SWIDTH 358 0
DWIDTH 7 0
BBX 5 1 1 12
BITMAP
F8
ENDCHAR
STARTCHAR breve
ENCODING 728
SWIDTH 332 0
DWIDTH 7 0
BBX 4 3 1 11
BITMAP
90
90
70
ENDCHAR
STARTCHAR dotaccent
ENCODING 729
SWIDTH 183 0
DWIDTH 4 0
BBX 1 2 1 12
BITMAP
80
80
ENDCHAR
STARTCHAR ring
ENCODING 730
SWIDTH 297 0
DWIDTH 6 0
BBX 3 4 1 11
BITMAP
E0
A0
A0
E0
ENDCHAR
STARTCHAR ogonek
ENCODING 731
SWIDTH 243 0
DWIDTH 5 0
BBX 2 3 1 -2
BITMAP
40
40
C0
ENDCHAR
STARTCHAR tilde
ENCODING 732
SWIDTH 369 0
DWIDTH 7 0
BBX 5 3 1 11
BITMAP
90
A8
48
ENDCHAR
STARTCHAR hungarumlaut
ENCODING 733
SWIDTH 377 0
DWIDTH 8 0
BBX 5 3 1 11
BITMAP
68
50
90
ENDCHAR
STARTCHAR Mu
ENCODING 924
SWIDTH 527 0
DWIDTH 11 0
BBX 7 13 2 -2
BITMAP
82
82
82
82
82
82
82
82
82
86
FA
80
80
ENDCHAR
STARTCHAR Pi
ENCODING 928
SWIDTH 605 0
DWIDTH 12 0
BBX 10 13 1 0
BITMAP
FFC0
2100
2100
2100
2100
2100
2100
2100
2100
2100
2100
2100
2100
ENDCHAR
STARTCHAR Sigma
ENCODING 931
SWIDTH 481 0
DWIDTH 10 0
BBX 7 13 1 0
BITMAP
FE
40
40
20
30
10
08
10
30
20
40
40
FE
ENDCHAR
STARTCHAR uni0901
ENCODING 2305
SWIDTH 0 0
DWIDTH 0 0
BBX 6 4 -5 14
BITMAP
20
84
84
F8
ENDCHAR
STARTCHAR uni0902
ENCODING 2306
SWIDTH 0 0
DWIDTH 0 0
BBX 1 1 -3 15
BITMAP
80
ENDCHAR
STARTCHAR uni0903
ENCODING 2307
SWIDTH 247 0
DWIDTH 5 0
BBX 1 7 2 2
BITMAP
80
00
00
00
00
00
80
ENDCHAR
STARTCHAR uni0905
ENCODING 2309
SWIDTH 598 0
DWIDTH 12 0
BBX 11 13 1 0
BITMAP
F0E0
0880
0880
0880
0880
7080
0880
0F80
0880
0880
0880
F080
0080
ENDCHAR
STARTCHAR uni0906
ENCODING 2310
SWIDTH 828 0
DWIDTH 17 0
BBX 16 13 1 0
BITMAP
F0FF
0884
0884
0884
0884
7084
0884
0F84
0884
0884
0884
F084
0084
ENDCHAR
STARTCHAR uni0907
ENCODING 2311
SWIDTH 478 0
DWIDTH 10 0
BBX 10 14 0 -1
BITMAP
FFC0
0100
0100
3F00
2000
4000
2000
3F00
0100
0100
4100
6100
5E00
4000
ENDCHAR
STARTCHAR uni0908
ENCODING 2312
SWIDTH 478 0
DWIDTH 10 0
BBX 10 19 0 -1
BITMAP
0380
0400
0400
0400
0400
FFC0
0100
0100
3F00
2000
4000
2000
3F00
0100
0100
4100
6100
5E00
4000
ENDCHAR
STARTCHAR uni0909
ENCODING 2313
SWIDTH 471 0
DWIDTH 9 0
BBX 10 13 0 0
BITMAP
FFC0
0100
0100
0100
0100
0100
0E00
0100
0100
4100
4100
4100
3E00
ENDCHAR
STARTCHAR uni090A
ENCODING 2314
SWIDTH 661 0
DWIDTH 13 0
BBX 14 13 0 0
BITMAP
FFFC
0100
0100
0100
0100
0200
0FE0
0110
4108
4108
4108
4110
3E60
ENDCHAR
STARTCHAR uni090B
ENCODING 2315
SWIDTH 753 0
DWIDTH 15 0
BBX 15 13 0 0
BITMAP
FFFE
0100
0100
0100
3F1C
2134
4164
4184
411C
0320
0D20
1120
611C
ENDCHAR
STARTCHAR uni090C
ENCODING 2316
SWIDTH 676 0
DWIDTH 14 0
BBX 14 17 0 -4
BITMAP
FFFC
0010
0010
0010
3DD0
2230
4210
4210
4210
4010
2010
3C10
0070
0080
0080
0084
0078
ENDCHAR
STARTCHAR uni090D
ENCODING 2317
SWIDTH 521 0
DWIDTH 10 0
BBX 11 17 0 1
BITMAP
2080
1100
1F00
0000
0000
FFE0
2080
2080
2080
2080
2080
2700
2000
2000
2000
2000
1F80
ENDCHAR
STARTCHAR uni090E
ENCODING 2318
SWIDTH 522 0
DWIDTH 10 0
BBX 11 17 0 1
BITMAP
0800
0800
0600
0180
0080
FFE0
2080
2080
2080
2080
2080
2700
2000
2000
2000
2000
1F80
ENDCHAR
STARTCHAR uni090F
ENCODING 2319
SWIDTH 526 0
DWIDTH 11 0
BBX 11 12 0 1
BITMAP
FFE0
2080
2080
2080
2080
2080
2700
2000
2000
2000
2000
1F80
ENDCHAR
STARTCHAR uni0910
ENCODING 2320
SWIDTH 526 0
DWIDTH 11 0
BBX 11 17 0 1
BITMAP
0400
0200
0200
0100
0080
FFE0
2080
2080
2080
2080
2080
2700
2000
2000
2000
2000
1F80
ENDCHAR
STARTCHAR uni0911
ENCODING 2321
SWIDTH 829 0
DWIDTH 17 0
BBX 16 17 1 0
BITMAP
0084
0084
0078
0000
F0FF
0884
0884
0884
0884
7084
0884
0F84
0884
0884
0884
F084
0084
ENDCHAR
STARTCHAR uni0912
ENCODING 2322
SWIDTH 828 0
DWIDTH 17 0
BBX 16 18 1 0
BITMAP
0040
0040
0020
0018
0004
F0FF
0884
0884
0884
0884
7084
0884
0F84
0884
0884
0884
F084
0084
ENDCHAR
STARTCHAR uni0913
ENCODING 2323
SWIDTH 829 0
DWIDTH 17 0
BBX 16 18 1 0
BITMAP
0060
0020
0010
0008
0008
F0FF
0884
0884
0884
0884
7084
0884
0F84
0884
0884
0884
F084
0084
ENDCHAR
STARTCHAR uni0914
ENCODING 2324
SWIDTH 829 0
DWIDTH 17 0
BBX 16 18 1 0
BITMAP
0064
0024
0014
0014
000C
F0FF
0884
0884
0884
0884
7084
0884
0F84
0884
0884
0884
F084
0084
ENDCHAR
STARTCHAR uni0915
ENCODING 2325
SWIDTH 725 0
DWIDTH 15 0
BBX 15 13 0 0
BITMAP
FFFE
0100
0100
39F0
2108
4108
4108
4108
4108
2308
3D70
0100
0100
ENDCHAR
STARTCHAR uni0916
ENCODING 2326
SWIDTH 696 0
DWIDTH 14 0
BBX 14 13 0 0
BITMAP
FFFC
0810
0810
09D0
0910
0A10
7210
4210
2110
31F0
1010
0810
0C10
ENDCHAR
STARTCHAR uni0917
ENCODING 2327
SWIDTH 494 0
DWIDTH 10 0
BBX 10 13 0 0
BITMAP
FFC0
1100
1100
1100
1100
1100
2100
E100
0100
0100
0100
0100
0100
ENDCHAR
STARTCHAR uni0918
ENCODING 2328
SWIDTH 559 0
DWIDTH 11 0
BBX 11 13 0 0
BITMAP
FFE0
2080
4080
4080
2080
1C80
2080
4080
4080
2080
3F80
0080
0080
ENDCHAR
STARTCHAR uni0919
ENCODING 2329
SWIDTH 505 0
DWIDTH 10 0
BBX 10 13 0 0
BITMAP
FFC0
0100
0100
3F00
2000
4080
2000
3E00
0100
0100
4100
2100
3E00
ENDCHAR
STARTCHAR uni091A
ENCODING 2330
SWIDTH 563 0
DWIDTH 11 0
BBX 12 13 0 0
BITMAP
FFF0
0080
0080
0080
FC80
3080
2080
2080
2080
3080
1F80
0080
0080
ENDCHAR
STARTCHAR uni091B
ENCODING 2331
SWIDTH 581 0
DWIDTH 12 0
BBX 12 12 0 1
BITMAP
FFF0
2040
2040
2040
2180
2040
1840
2040
2040
2040
2040
3F80
ENDCHAR
STARTCHAR uni091C
ENCODING 2332
SWIDTH 547 0
DWIDTH 11 0
BBX 11 13 0 0
BITMAP
FFE0
0080
0080
0080
7F80
0880
0480
0480
0480
0480
0880
7080
0080
ENDCHAR
STARTCHAR uni091D
ENCODING 2333
SWIDTH 664 0
DWIDTH 13 0
BBX 14 14 0 -1
BITMAP
FFFC
0220
0220
3E20
2020
4020
2020
3FE0
0120
4120
6120
5E20
4020
4000
ENDCHAR
STARTCHAR uni091E
ENCODING 2334
SWIDTH 592 0
DWIDTH 12 0
BBX 12 13 0 0
BITMAP
FFF0
0040
0040
7840
0840
0440
0440
07C0
0440
0440
7840
0040
0040
ENDCHAR
STARTCHAR uni091F
ENCODING 2335
SWIDTH 485 0
DWIDTH 10 0
BBX 10 12 0 1
BITMAP
FFC0
0100
0100
0100
3F00
2000
4000
4000
4080
4080
2100
3F00
ENDCHAR
STARTCHAR uni0920
ENCODING 2336
SWIDTH 512 0
DWIDTH 10 0
BBX 11 12 0 1
BITMAP
FFE0
0100
0100
0100
3E00
2100
4080
4080
4080
4080
2100
3F00
ENDCHAR
STARTCHAR uni0921
ENCODING 2337
SWIDTH 475 0
DWIDTH 10 0
BBX 10 13 0 0
BITMAP
FFC0
0100
0100
3F00
2000
4000
2000
3E00
0100
0100
4100
2100
3E00
ENDCHAR
STARTCHAR uni0922
ENCODING 2338
SWIDTH 485 0
DWIDTH 10 0
BBX 10 12 0 1
BITMAP
FFC0
0100
0100
0100
3F00
2000
4000
4700
4480
4480
2080
1F00
ENDCHAR
STARTCHAR uni0923
ENCODING 2339
SWIDTH 681 0
DWIDTH 14 0
BBX 14 13 0 0
BITMAP
FFFC
2210
2210
2210
2210
2210
2210
2210
1C10
0010
0010
0010
0010
ENDCHAR
STARTCHAR uni0924
ENCODING 2340
SWIDTH 496 0
DWIDTH 10 0
BBX 10 13 0 0
BITMAP
FFC0
0100
0100
0100
3F00
2100
4100
4100
4100
4100
4100
2100
3900
ENDCHAR
STARTCHAR uni0925
ENCODING 2341
SWIDTH 593 0
DWIDTH 12 0
BBX 11 13 1 0
BITMAP
78E0
4880
4480
0480
0880
F880
8080
8080
8080
4180
3E80
0080
0080
ENDCHAR
STARTCHAR uni0926
ENCODING 2342
SWIDTH 489 0
DWIDTH 10 0
BBX 10 13 0 0
BITMAP
FFC0
0100
0100
1F00
2000
4000
4000
4000
4100
2100
1F00
0100
0100
ENDCHAR
STARTCHAR uni0927
ENCODING 2343
SWIDTH 560 0
DWIDTH 11 0
BBX 11 13 0 0
BITMAP
FBE0
2080
4080
4080
2080
1C80
2080
4080
4080
4080
2080
1F80
0080
ENDCHAR
STARTCHAR uni0928
ENCODING 2344
SWIDTH 473 0
DWIDTH 9 0
BBX 10 13 0 0
BITMAP
FFC0
0100
0100
0100
0100
3F00
4100
4100
4100
0100
0100
0100
0100
ENDCHAR
STARTCHAR uni0928093C
ENCODING 2345
SWIDTH 473 0
DWIDTH 9 0
BBX 10 13 0 0
BITMAP
FFC0
0100
0100
0100
0100
7F00
4100
4100
4100
0100
0100
0100
1100
ENDCHAR
STARTCHAR uni092A
ENCODING 2346
SWIDTH 503 0
DWIDTH 10 0
BBX 10 13 0 0
BITMAP
FFC0
2100
2100
2100
2100
2100
2100
2100
1F00
0100
0100
0100
0100
ENDCHAR
STARTCHAR uni092B
ENCODING 2347
SWIDTH 739 0
DWIDTH 15 0
BBX 15 13 0 0
BITMAP
FFFE
2100
2100
21F0
2108
2104
2104
2104
1F04
0108
0170
0100
0100
ENDCHAR
STARTCHAR uni092C
ENCODING 2348
SWIDTH 491 0
DWIDTH 10 0
BBX 10 13 0 0
BITMAP
FFC0
0100
0100
3D00
2100
5100
4900
4500
4300
2100
3F00
0100
0100
ENDCHAR
STARTCHAR uni092D
ENCODING 2349
SWIDTH 491 0
DWIDTH 10 0
BBX 10 13 0 0
BITMAP
C7C0
4100
2100
2100
2100
2100
3F00
2100
2100
0100
0100
0100
0100
ENDCHAR
STARTCHAR uni092E
ENCODING 2350
SWIDTH 490 0
DWIDTH 10 0
BBX 10 13 0 0
BITMAP
FFC0
2100
2100
2100
2100
2100
3F00
2100
2100
0100
0100
0100
0100
ENDCHAR
STARTCHAR uni092F
ENCODING 2351
SWIDTH 564 0
DWIDTH 11 0
BBX 12 13 0 0
BITMAP
FFF0
0880
0880
0880
0880
7080
4080
4080
4080
2080
1F80
0080
0080
ENDCHAR
STARTCHAR uni0930
ENCODING 2352
SWIDTH 337 0
DWIDTH 7 0
BBX 7 13 0 0
BITMAP
FE
08
08
08
08
08
70
40
20
20
10
08
08
ENDCHAR
STARTCHAR uni0930093C
ENCODING 2353
SWIDTH 347 0
DWIDTH 7 0
BBX 7 14 0 -1
BITMAP
FE
08
08
08
08
08
70
40
20
30
10
08
08
84
ENDCHAR
STARTCHAR uni0932
ENCODING 2354
SWIDTH 676 0
DWIDTH 14 0
BBX 14 13 0 0
BITMAP
FFFC
0010
0010
0010
3DD0
2230
4210
4210
4210
4010
2010
3C10
0010
ENDCHAR
STARTCHAR uni0933
ENCODING 2355
SWIDTH 672 0
DWIDTH 13 0
BBX 14 12 0 1
BITMAP
FFFC
0040
0040
0040
3DE0
2310
4210
4210
4210
4210
2310
3DE0
ENDCHAR
STARTCHAR uni0933093C
ENCODING 2356
SWIDTH 672 0
DWIDTH 13 0
BBX 14 14 0 -1
BITMAP
FFFC
0040
0040
0040
3DE0
2310
4210
4210
4210
4210
2310
3DE0
0000
0800
ENDCHAR
STARTCHAR uni0935
ENCODING 2357
SWIDTH 484 0
DWIDTH 10 0
BBX 10 13 0 0
BITMAP
FFC0
0100
0100
3900
2100
4100
4100
4100
4100
2300
3D00
0100
0100
ENDCHAR
STARTCHAR uni0936
ENCODING 2358
SWIDTH 614 0
DWIDTH 12 0
BBX 12 13 1 0
BITMAP
78F0
4480
8480
8480
0480
0880
F880
8080
4080
2080
2080
1080
1880
ENDCHAR
STARTCHAR uni0937
ENCODING 2359
SWIDTH 505 0
DWIDTH 10 0
BBX 10 13 0 0
BITMAP
FFC0
2100
3100
2900
2500
2300
2100
2100
1F00
0100
0100
0100
0100
ENDCHAR
STARTCHAR uni0938
ENCODING 2360
SWIDTH 575 0
DWIDTH 12 0
BBX 12 13 0 0
BITMAP
FFF0
0840
0840
0840
0840
1040
7FC0
4040
2040
2040
1040
1040
0840
ENDCHAR
STARTCHAR uni0939
ENCODING 2361
SWIDTH 481 0
DWIDTH 10 0
BBX 10 14 0 -1
BITMAP
FFC0
0100
0100
3F00
2000
2000
2000
1E00
2100
2100
4100
2000
2000
1F00
ENDCHAR
STARTCHAR uni093C
ENCODING 2364
SWIDTH 0 0
DWIDTH 0 0
BBX 1 1 -3 -2
BITMAP
80
ENDCHAR
STARTCHAR uni093D
ENCODING 2365
SWIDTH 529 0
DWIDTH 11 0
BBX 7 13 2 0
BITMAP
7C
40
80
40
40
30
0C
06
02
02
82
C2
3C
ENDCHAR
STARTCHAR uni093E
ENCODING 2366
SWIDTH 231 0
DWIDTH 5 0
BBX 5 13 0 0
BITMAP
F8
20
20
20
20
20
20
20
20
20
20
20
20
ENDCHAR
STARTCHAR uni093F
ENCODING 2367
SWIDTH 231 0
DWIDTH 5 0
BBX 13 18 0 0
BITMAP
1FF0
2010
2008
2008
2000
F800
2000
2000
2000
2000
2000
2000
2000
2000
2000
2000
2000
2000
ENDCHAR
STARTCHAR uni0940
ENCODING 2368
SWIDTH 231 0
DWIDTH 5 0
BBX 8 18 -3 0
BITMAP
78
84
84
84
04
1F
04
04
04
04
04
04
04
04
04
04
04
04
ENDCHAR
STARTCHAR uni0941
ENCODING 2369
SWIDTH 0 0
DWIDTH 0 0
BBX 8 5 -7 -5
BITMAP
0E
81
41
42
3E
ENDCHAR
STARTCHAR uni0942
ENCODING 2370
SWIDTH 0 0
DWIDTH 0 0
BBX 7 5 -5 -5
BITMAP
78
84
84
82
E2
ENDCHAR
STARTCHAR uni0943
ENCODING 2371
SWIDTH 0 0
DWIDTH 0 0
BBX 6 5 -5 -5
BITMAP
E0
80
80
8C
F0
ENDCHAR
STARTCHAR uni0945
ENCODING 2373
SWIDTH 0 0
DWIDTH 0 0
BBX 6 3 -5 14
BITMAP
84
84
F8
ENDCHAR
STARTCHAR uni0946
ENCODING 2374
SWIDTH 0 0
DWIDTH 0 0
BBX 6 6 -7 12
BITMAP
80
80
60
18
08
0C
ENDCHAR
STARTCHAR uni0947
ENCODING 2375
SWIDTH 0 0
DWIDTH 0 0
BBX 5 6 -6 12
BITMAP
80
40
40
20
10
18
ENDCHAR
STARTCHAR uni0948
ENCODING 2376
SWIDTH 0 0
DWIDTH 0 0
BBX 5 6 -6 12
BITMAP
90
D0
50
30
30
18
ENDCHAR
STARTCHAR uni0949
ENCODING 2377
SWIDTH 231 0
DWIDTH 5 0
BBX 6 17 -1 0
BITMAP
84
84
7C
00
7C
10
10
10
10
10
10
10
10
10
10
10
10
ENDCHAR
STARTCHAR uni094A
ENCODING 2378
SWIDTH 231 0
DWIDTH 5 0
BBX 7 18 -2 0
BITMAP
80
80
40
30
08
3E
08
08
08
08
08
08
08
08
08
08
08
08
ENDCHAR
STARTCHAR uni094B
ENCODING 2379
SWIDTH 231 0
DWIDTH 5 0
BBX 7 18 -2 0
BITMAP
C0
40
20
10
10
3E
08
08
08
08
08
08
08
08
08
08
08
08
ENDCHAR
STARTCHAR uni094C
ENCODING 2380
SWIDTH 231 0
DWIDTH 5 0
BBX 7 18 -2 0
BITMAP
C8
48
28
18
18
3E
08
08
08
08
08
08
08
08
08
08
08
08
ENDCHAR
STARTCHAR uni094D
ENCODING 2381
SWIDTH 0 0
DWIDTH 0 0
BBX 3 4 -3 -4
BITMAP
80
40
40
20
ENDCHAR
STARTCHAR uni0950
ENCODING 2384
SWIDTH 847 0
DWIDTH 17 0
BBX 14 16 1 1
BITMAP
0040
0000
0000
0004
3C78
0400
0200
0278
0404
3804
0404
03C4
8244
8244
C444
7838
ENDCHAR
STARTCHAR uni0951
ENCODING 2385
SWIDTH 0 0
DWIDTH 0 0
BBX 1 4 -3 14
BITMAP
80
80
80
80
ENDCHAR
STARTCHAR uni0952
ENCODING 2386
SWIDTH 0 0
DWIDTH 0 0
BBX 6 1 -8 -2
BITMAP
FC
ENDCHAR
STARTCHAR uni0953
ENCODING 2387
SWIDTH 0 0
DWIDTH 0 0
BBX 3 4 -5 14
BITMAP
80
40
40
20
ENDCHAR
STARTCHAR uni0954
ENCODING 2388
SWIDTH 0 0
DWIDTH 0 0
BBX 3 4 -3 14
BITMAP
20
20
40
80
ENDCHAR
STARTCHAR uni0915093C
ENCODING 2392
SWIDTH 725 0
DWIDTH 15 0
BBX 15 14 0 -1
BITMAP
FFFE
0100
0100
39F0
2108
4108
4108
4108
4108
2308
3D70
0100
0100
1000
ENDCHAR
STARTCHAR uni0916093C
ENCODING 2393
SWIDTH 696 0
DWIDTH 14 0
BBX 14 14 0 -1
BITMAP
FFFC
0810
0810
09D0
0910
0A10
7210
4210
2110
21F0
1010
0810
0810
4400
ENDCHAR
STARTCHAR uni0917093C
ENCODING 2394
SWIDTH 494 0
DWIDTH 10 0
BBX 10 14 0 -1
BITMAP
FFC0
1100
1100
1100
1100
1100
2100
E100
0100
0100
0100
0100
0100
2000
ENDCHAR
STARTCHAR uni091C093C
ENCODING 2395
SWIDTH 547 0
DWIDTH 11 0
BBX 11 14 0 -1
BITMAP
FFE0
0080
0080
0080
7F80
0880
0480
0480
0480
0480
0880
7080
0080
2000
ENDCHAR
STARTCHAR uni0921093C
ENCODING 2396
SWIDTH 475 0
DWIDTH 10 0
BBX 10 16 0 -3
BITMAP
FFC0
0100
0100
3F00
2000
4000
2000
3E00
0100
0100
4100
2100
3E00
0000
0000
0800
ENDCHAR
STARTCHAR uni0922093C
ENCODING 2397
SWIDTH 485 0
DWIDTH 10 0
BBX 10 15 0 -2
BITMAP
FFC0
0100
0100
0100
3F00
2000
4000
4700
4480
4480
2080
1F00
0000
0000
0C00
ENDCHAR
STARTCHAR uni092B093C
ENCODING 2398
SWIDTH 739 0
DWIDTH 15 0
BBX 15 14 0 -1
BITMAP
FFFE
2100
2100
21F0
2108
2104
2104
2104
1F04
0108
0170
0100
0100
1000
ENDCHAR
STARTCHAR uni092F093C
ENCODING 2399
SWIDTH 564 0
DWIDTH 11 0
BBX 12 14 0 -1
BITMAP
FFF0
0880
0880
0880
0880
7080
4080
4080
4080
2080
1F80
0080
0080
2000
ENDCHAR
STARTCHAR uni0960
ENCODING 2400
SWIDTH 753 0
DWIDTH 15 0
BBX 15 16 0 -3
BITMAP
FFFE
0100
0100
0100
3F1C
6134
4144
419C
0120
0720
0D20
191C
2120
4020
0020
001C
ENDCHAR
STARTCHAR uni0961
ENCODING 2401
SWIDTH 676 0
DWIDTH 14 0
BBX 14 18 0 -5
BITMAP
FFFC
0010
0010
0010
1DD0
2230
4210
4210
4210
4010
4070
2080
1C80
0070
0080
0080
0080
0070
ENDCHAR
STARTCHAR uni0964
ENCODING 2404
SWIDTH 286 0
DWIDTH 6 0
BBX 1 13 3 0
BITMAP
80
80
80
80
80
80
80
80
80
80
80
80
80
ENDCHAR
STARTCHAR uni0965
ENCODING 2405
SWIDTH 518 0
DWIDTH 10 0
BBX 5 13 3 0
BITMAP
88
88
88
88
88
88
88
88
88
88
88
88
88
ENDCHAR
STARTCHAR uni0966
ENCODING 2406
SWIDTH 519 0
DWIDTH 10 0
BBX 8 13 1 0
BITMAP
7E
41
81
81
81
81
81
81
81
81
81
41
3E
ENDCHAR
STARTCHAR uni0967
ENCODING 2407
SWIDTH 288 0
DWIDTH 6 0
BBX 4 13 0 0
BITMAP
30
70
90
10
10
10
10
10
10
10
10
10
10
ENDCHAR
STARTCHAR uni0968
ENCODING 2408
SWIDTH 453 0
DWIDTH 9 0
BBX 7 13 1 0
BITMAP
7C
82
82
82
02
06
0C
10
60
C0
80
80
FE
ENDCHAR
STARTCHAR uni0969
ENCODING 2409
SWIDTH 489 0
DWIDTH 10 0
BBX 7 13 1 0
BITMAP
7C
82
82
82
02
02
1C
02
02
82
82
82
7C
ENDCHAR
STARTCHAR uni096A
ENCODING 2410
SWIDTH 453 0
DWIDTH 9 0
BBX 9 13 0 0
BITMAP
0200
0600
0600
0A00
1200
1200
2200
2200
4200
4200
FF80
0200
0200
ENDCHAR
STARTCHAR uni096B
ENCODING 2411
SWIDTH 480 0
DWIDTH 10 0
BBX 8 13 1 0
BITMAP
FE
80
80
80
80
BC
C2
01
01
81
81
42
7C
ENDCHAR
STARTCHAR uni096C
ENCODING 2412
SWIDTH 495 0
DWIDTH 10 0
BBX 8 13 1 0
BITMAP
7E
40
80
80
80
BE
C3
81
81
81
81
43
3E
ENDCHAR
STARTCHAR uni096D
ENCODING 2413
SWIDTH 380 0
DWIDTH 8 0
BBX 7 13 0 0
BITMAP
FE
02
02
04
04
0C
08
08
10
10
10
20
20
ENDCHAR
STARTCHAR uni096E
ENCODING 2414
SWIDTH 523 0
DWIDTH 10 0
BBX 8 13 1 0
BITMAP
7E
41
81
81
81
41
3E
41
81
81
81
41
3E
ENDCHAR
STARTCHAR uni096F
ENCODING 2415
SWIDTH 493 0
DWIDTH 10 0
BBX 7 13 1 0
BITMAP
7C
82
82
82
82
82
82
7E
02
02
02
02
7C
ENDCHAR
STARTCHAR uni0970
ENCODING 2416
SWIDTH 391 0
DWIDTH 8 0
BBX 6 7 1 3
BITMAP
78
84
84
84
84
84
78
ENDCHAR
STARTCHAR uni0972
ENCODING 2418
SWIDTH 598 0
DWIDTH 12 0
BBX 12 17 1 0
BITMAP
0410
0210
03E0
0000
F0E0
0880
0880
0880
0880
7080
0880
0F80
0880
0880
0880
F080
0080
ENDCHAR
STARTCHAR Wgrave
ENCODING 7808
SWIDTH 795 0
DWIDTH 16 0
BBX 14 17 1 0
BITMAP
0400
0400
0200
0000
8304
8304
8304
850C
4488
4488
4488
4848
4850
2850
2850
3030
3030
ENDCHAR
STARTCHAR wgrave
ENCODING 7809
SWIDTH 682 0
DWIDTH 14 0
BBX 13 14 0 0
BITMAP
0C00
0600
0200
0000
C208
4308
4308
4510
2490
2490
28A0
18A0
1860
1860
ENDCHAR
STARTCHAR Wacute
ENCODING 7810
SWIDTH 795 0
DWIDTH 16 0
BBX 14 17 1 0
BITMAP
0080
0180
0100
0000
8304
8304
8304
850C
4488
4488
4488
4848
4850
2850
2850
3030
3030
ENDCHAR
STARTCHAR wacute
ENCODING 7811
SWIDTH 682 0
DWIDTH 14 0
BBX 13 14 0 0
BITMAP
0080
0100
0200
0000
C208
4308
4308
4510
2490
2490
28A0
18A0
1860
1860
ENDCHAR
STARTCHAR Wdieresis
ENCODING 7812
SWIDTH 795 0
DWIDTH 16 0
BBX 14 17 1 0
BITMAP
0480
0480
0480
0000
8304
8304
8304
850C
4488
4488
4488
4848
4850
2850
2850
3030
3030
ENDCHAR
STARTCHAR wdieresis
ENCODING 7813
SWIDTH 682 0
DWIDTH 14 0
BBX 13 14 0 0
BITMAP
0480
0480
0480
0000
C208
4308
4308
4510
2490
2490
28A0
18A0
1860
1860
ENDCHAR
STARTCHAR uni1E9E
ENCODING 7838
SWIDTH 542 0
DWIDTH 11 0
BBX 8 13 2 0
BITMAP
7E
82
82
84
84
88
8E
83
81
81
81
82
9E
ENDCHAR
STARTCHAR Ygrave
ENCODING 7922
SWIDTH 493 0
DWIDTH 10 0
BBX 8 17 1 0
BITMAP
20
30
10
00
81
81
42
42
24
24
18
18
10
10
10
10
10
ENDCHAR
STARTCHAR ygrave
ENCODING 7923
SWIDTH 459 0
DWIDTH 9 0
BBX 8 17 1 -3
BITMAP
20
10
10
00
83
82
82
44
44
44
28
28
18
10
10
30
E0
ENDCHAR
STARTCHAR uni200B
ENCODING 8203
SWIDTH 0 0
DWIDTH 0 0
BBX 1 1 0 0
BITMAP
00
ENDCHAR
STARTCHAR uni200C
ENCODING 8204
SWIDTH 0 0
DWIDTH 0 0
BBX 1 21 0 -4
BITMAP
80
80
80
80
80
80
80
80
80
80
80
80
80
80
80
80
80
80
80
80
80
ENDCHAR
STARTCHAR uni200D
ENCODING 8205
SWIDTH 0 0
DWIDTH 0 0
BBX 6 21 -3 -4
BITMAP
48
CC
30
30
DC
18
10
10
10
10
10
10
10
10
10
10
10
10
10
10
10
ENDCHAR
STARTCHAR endash
ENCODING 8211
SWIDTH 408 0
DWIDTH 8 0
BBX 6 1 1 6
BITMAP
FC
ENDCHAR
STARTCHAR emdash
ENCODING 8212
SWIDTH 537 0
DWIDTH 11 0
BBX 9 1 1 6
BITMAP
FF80
ENDCHAR
STARTCHAR quoteleft
ENCODING 8216
SWIDTH 179 0
DWIDTH 4 0
BBX 1 5 1 8
BITMAP
80
80
80
80
80
ENDCHAR
STARTCHAR quoteright
ENCODING 8217
SWIDTH 179 0
DWIDTH 4 0
BBX 1 5 1 8
BITMAP
80
80
80
80
80
ENDCHAR
STARTCHAR quotesinglbase
ENCODING 8218
SWIDTH 187 0
DWIDTH 4 0
BBX 1 5 1 -2
BITMAP
80
80
80
80
80
ENDCHAR
STARTCHAR quotedblleft
ENCODING 8220
SWIDTH 329 0
DWIDTH 7 0
BBX 4 5 1 8
BITMAP
50
90
90
90
90
ENDCHAR
STARTCHAR quotedblright
ENCODING 8221
SWIDTH 329 0
DWIDTH 7 0
BBX 4 5 1 8
BITMAP
90
90
90
90
90
ENDCHAR
STARTCHAR quotedblbase
ENCODING 8222
SWIDTH 337 0
DWIDTH 7 0
BBX 4 5 1 -2
BITMAP
90
90
90
90
90
ENDCHAR
STARTCHAR dagger
ENCODING 8224
SWIDTH 427 0
DWIDTH 9 0
BBX 7 13 1 0
BITMAP
10
10
10
10
FE
10
10
10
10
10
10
10
10
ENDCHAR
STARTCHAR daggerdbl
ENCODING 8225
SWIDTH 427 0
DWIDTH 9 0
BBX 7 13 1 0
BITMAP
10
10
10
10
FE
10
10
10
10
FE
10
10
10
ENDCHAR
STARTCHAR bullet
ENCODING 8226
SWIDTH 273 0
DWIDTH 5 0
BBX 2 3 2 5
BITMAP
C0
C0
C0
ENDCHAR
STARTCHAR ellipsis
ENCODING 8230
SWIDTH 591 0
DWIDTH 12 0
BBX 9 3 1 0
BITMAP
8880
8880
8880
ENDCHAR
STARTCHAR perthousand
ENCODING 8240
SWIDTH 1027 0
DWIDTH 21 0
BBX 19 13 1 0
BITMAP
708000
888000
890000
890000
890000
720000
020000
04F1C0
051220
091220
091220
091220
10F3C0
ENDCHAR
STARTCHAR guilsinglleft
ENCODING 8249
SWIDTH 290 0
DWIDTH 6 0
BBX 4 6 1 2
BITMAP
30
60
80
C0
60
30
ENDCHAR
STARTCHAR guilsinglright
ENCODING 8250
SWIDTH 290 0
DWIDTH 6 0
BBX 4 6 1 2
BITMAP
80
40
30
20
40
80
ENDCHAR
STARTCHAR fraction
ENCODING 8260
SWIDTH 117 0
DWIDTH 2 0
BBX 10 13 -4 0
BITMAP
0040
0080
0080
0100
0200
0400
0400
0800
1000
2000
2000
4000
8000
ENDCHAR
STARTCHAR Euro
ENCODING 8364
SWIDTH 523 0
DWIDTH 10 0
BBX 8 13 1 0
BITMAP
3E
61
41
41
40
FC
40
FC
40
41
41
61
3E
ENDCHAR
STARTCHAR uni20B9
ENCODING 8377
SWIDTH 414 0
DWIDTH 8 0
BBX 7 13 1 0
BITMAP
FE
10
10
FE
10
10
E0
80
40
20
20
10
08
ENDCHAR
STARTCHAR trademark
ENCODING 8482
SWIDTH 591 0
DWIDTH 12 0
BBX 10 5 1 8
BITMAP
F440
24C0
2740
2540
2440
ENDCHAR
STARTCHAR uni2126
ENCODING 8486
SWIDTH 629 0
DWIDTH 13 0
BBX 11 13 1 0
BITMAP
3F80
4080
4040
4040
4040
4040
4040
4040
4040
4040
4040
4080
FBE0
ENDCHAR
STARTCHAR partialdiff
ENCODING 8706
SWIDTH 481 0
DWIDTH 10 0
BBX 7 14 1 0
BITMAP
70
0C
02
02
02
7E
42
82
82
82
82
82
42
7C
ENDCHAR
STARTCHAR uni2206
ENCODING 8710
SWIDTH 594 0
DWIDTH 12 0
BBX 10 13 1 0
BITMAP
0C00
0C00
1400
1200
1200
2100
2100
2100
4080
4080
C080
8040
FFC0
ENDCHAR
STARTCHAR minus
ENCODING 8722
SWIDTH 523 0
DWIDTH 10 0
BBX 8 1 1 6
BITMAP
FF
ENDCHAR
STARTCHAR approxequal
ENCODING 8776
SWIDTH 523 0
DWIDTH 10 0
BBX 8 5 1 4
BITMAP
71
8F
00
00
FF
ENDCHAR
STARTCHAR notequal
ENCODING 8800
SWIDTH 523 0
DWIDTH 10 0
BBX 8 9 1 2
BITMAP
04
04
FF
08
08
10
FF
10
20
ENDCHAR
STARTCHAR lessequal
ENCODING 8804
SWIDTH 523 0
DWIDTH 10 0
BBX 8 8 1 3
BITMAP
03
1C
E0
70
0E
01
00
FF
ENDCHAR
STARTCHAR greaterequal
ENCODING 8805
SWIDTH 523 0
DWIDTH 10 0
BBX 8 8 1 3
BITMAP
C0
38
07
07
38
C0
00
FF
ENDCHAR
STARTCHAR uni25CC
ENCODING 9676
SWIDTH 701 0
DWIDTH 14 0
BBX 12 12 1 1
BITMAP
0580
35E0
1060
6000
4030
4030
C000
0030
6030
28C0
1B40
0300
ENDCHAR
STARTCHAR commaaccent
ENCODING 63171
SWIDTH 0 0
DWIDTH 0 0
BBX 1 4 4 -5
BITMAP
80
80
80
80
ENDCHAR
STARTCHAR .notdef
ENCODING -1
SWIDTH 600 0
DWIDTH 12 0
BBX 8 12 2 0
BITMAP
FF
81
81
81
81
81
81
81
81
81
81
FF
ENDCHAR
STARTCHAR .null
ENCODING -1
SWIDTH 0 0
DWIDTH 0 0
BBX 1 1 0 0
BITMAP
00
ENDCHAR
STARTCHAR nonmarkingreturn
ENCODING -1
SWIDTH 333 0
DWIDTH 7 0
BBX 1 1 0 0
BITMAP
00
ENDCHAR
STARTCHAR uni0915094D
ENCODING -1
SWIDTH 519 0
DWIDTH 10 0
BBX 13 13 0 0
BITMAP
FFF8
0100
0100
39F0
2108
4100
4100
4100
4100
2300
3D00
0100
0100
ENDCHAR
STARTCHAR uni0916094D
ENCODING -1
SWIDTH 468 0
DWIDTH 9 0
BBX 12 13 0 0
BITMAP
FFF0
0800
0800
09C0
0900
0A00
7200
4200
2110
31E0
1000
0800
0C00
ENDCHAR
STARTCHAR uni0917094D
ENCODING -1
SWIDTH 264 0
DWIDTH 5 0
BBX 6 8 0 5
BITMAP
FC
10
10
10
10
10
20
E0
ENDCHAR
STARTCHAR uni0918094D
ENCODING -1
SWIDTH 321 0
DWIDTH 6 0
BBX 9 11 0 2
BITMAP
FF80
2000
4000
4000
2000
1C00
2000
4000
4000
2080
3F00
ENDCHAR
STARTCHAR uni0919094D
ENCODING -1
SWIDTH 505 0
DWIDTH 10 0
BBX 10 17 0 -4
BITMAP
FFC0
0100
0100
3F00
2000
4080
2000
3E00
0100
0100
4100
2100
3E00
0000
0C00
0400
0200
ENDCHAR
STARTCHAR uni091A094D
ENCODING -1
SWIDTH 330 0
DWIDTH 7 0
BBX 9 11 0 2
BITMAP
FF80
0000
0000
0000
FC00
3000
2000
2000
2000
3080
1F00
ENDCHAR
STARTCHAR uni091B094D
ENCODING -1
SWIDTH 581 0
DWIDTH 12 0
BBX 12 12 0 1
BITMAP
FFF0
2000
2000
2180
2040
2040
1840
2040
2040
2040
2040
3F80
ENDCHAR
STARTCHAR uni091C094D
ENCODING -1
SWIDTH 309 0
DWIDTH 6 0
BBX 8 12 0 1
BITMAP
FF
00
00
00
7F
08
04
04
04
04
08
70
ENDCHAR
STARTCHAR uni091D094D
ENCODING -1
SWIDTH 432 0
DWIDTH 9 0
BBX 11 14 0 -1
BITMAP
FFE0
0200
0200
3E00
2000
4000
2000
3FE0
0100
4100
6100
5E00
4000
4000
ENDCHAR
STARTCHAR uni091E094D
ENCODING -1
SWIDTH 359 0
DWIDTH 7 0
BBX 9 11 0 2
BITMAP
FF80
0000
0000
7800
0800
0400
0400
0780
0400
0400
7800
ENDCHAR
STARTCHAR uni091F094D
ENCODING -1
SWIDTH 485 0
DWIDTH 10 0
BBX 10 17 0 -4
BITMAP
FFC0
0100
0100
0100
3F00
2000
4000
4000
4080
4080
2100
3F00
0000
0800
0400
0200
0200
ENDCHAR
STARTCHAR uni0920094D
ENCODING -1
SWIDTH 512 0
DWIDTH 10 0
BBX 11 17 0 -4
BITMAP
FFE0
0100
0100
0100
3E00
2100
4080
4080
4080
4080
2100
3F00
0000
0800
0400
0200
0200
ENDCHAR
STARTCHAR uni0921094D
ENCODING -1
SWIDTH 475 0
DWIDTH 10 0
BBX 10 17 0 -4
BITMAP
FFC0
0100
0100
3F00
2000
4000
2000
3E00
0100
0100
4100
2100
3E00
0000
0C00
0400
0200
ENDCHAR
STARTCHAR uni0922094D
ENCODING -1
SWIDTH 485 0
DWIDTH 10 0
BBX 10 17 0 -4
BITMAP
FFC0
0100
0100
0100
3F00
2000
4000
4700
4480
4480
2080
1F00
0000
0800
0400
0200
0200
ENDCHAR
STARTCHAR uni0923094D
ENCODING -1
SWIDTH 454 0
DWIDTH 9 0
BBX 9 9 0 4
BITMAP
FF80
2200
2200
2200
2200
2200
2200
2200
1C00
ENDCHAR
STARTCHAR uni0924094D
ENCODING -1
SWIDTH 263 0
DWIDTH 5 0
BBX 7 13 0 0
BITMAP
FE
00
00
00
3E
20
40
40
40
40
40
20
38
ENDCHAR
STARTCHAR uni0925094D
ENCODING -1
SWIDTH 359 0
DWIDTH 7 0
BBX 9 11 1 2
BITMAP
7800
4800
4400
0400
0800
F800
8000
8000
8000
4180
3E00
ENDCHAR
STARTCHAR uni0926094D
ENCODING -1
SWIDTH 489 0
DWIDTH 10 0
BBX 10 16 0 -3
BITMAP
FFC0
0100
0100
1F00
2000
4000
4000
4000
4100
2100
1F00
0100
0100
0C00
0400
0200
ENDCHAR
STARTCHAR uni0927094D
ENCODING -1
SWIDTH 321 0
DWIDTH 6 0
BBX 9 11 0 2
BITMAP
FB80
2000
4000
4000
2000
1C00
2000
4000
4000
2080
3F00
ENDCHAR
STARTCHAR uni0928094D
ENCODING -1
SWIDTH 233 0
DWIDTH 5 0
BBX 7 9 0 4
BITMAP
FE
00
00
00
00
7E
40
40
40
ENDCHAR
STARTCHAR uni092A094D
ENCODING -1
SWIDTH 269 0
DWIDTH 5 0
BBX 8 9 0 4
BITMAP
FF
20
20
20
20
20
20
21
1E
ENDCHAR
STARTCHAR uni092B094D
ENCODING -1
SWIDTH 530 0
DWIDTH 11 0
BBX 13 13 0 0
BITMAP
FFF8
2100
2100
21F0
2108
2100
2100
2100
1F00
0100
0100
0100
0100
ENDCHAR
STARTCHAR uni092C094D
ENCODING -1
SWIDTH 265 0
DWIDTH 5 0
BBX 8 11 0 2
BITMAP
FF
00
00
3C
20
50
48
45
43
21
3E
ENDCHAR
STARTCHAR uni092D094D
ENCODING -1
SWIDTH 261 0
DWIDTH 5 0
BBX 7 9 0 4
BITMAP
C6
40
20
20
20
20
3E
20
20
ENDCHAR
STARTCHAR uni092E094D
ENCODING -1
SWIDTH 261 0
DWIDTH 5 0
BBX 7 9 0 4
BITMAP
FE
20
20
20
20
20
3E
20
20
ENDCHAR
STARTCHAR uni092F094D
ENCODING -1
SWIDTH 323 0
DWIDTH 6 0
BBX 9 11 0 2
BITMAP
FF00
0800
0800
0800
0800
7000
4000
4000
4000
2080
1F00
ENDCHAR
STARTCHAR uni0930094D
ENCODING -1
SWIDTH 337 0
DWIDTH 7 0
BBX 7 17 0 -4
BITMAP
FE
08
08
08
08
08
70
40
20
20
10
08
08
00
10
18
0C
ENDCHAR
STARTCHAR uni0932094D
ENCODING -1
SWIDTH 431 0
DWIDTH 9 0
BBX 11 12 0 1
BITMAP
FFE0
0000
0000
0000
3DC0
2220
4200
4200
4200
4000
2000
3C00
ENDCHAR
STARTCHAR uni0933094D
ENCODING -1
SWIDTH 677 0
DWIDTH 14 0
BBX 14 12 0 1
BITMAP
FFFC
0000
0000
0000
3DE0
2310
4210
4210
4210
4210
2310
3DE0
ENDCHAR
STARTCHAR uni0935094D
ENCODING -1
SWIDTH 255 0
DWIDTH 5 0
BBX 8 11 0 2
BITMAP
FF
00
00
3C
20
40
40
41
41
21
3E
ENDCHAR
STARTCHAR uni0936094D
ENCODING -1
SWIDTH 378 0
DWIDTH 8 0
BBX 6 13 1 0
BITMAP
78
44
84
84
04
08
F8
80
40
20
20
10
18
ENDCHAR
STARTCHAR uni0937094D
ENCODING -1
SWIDTH 282 0
DWIDTH 6 0
BBX 8 9 0 4
BITMAP
FF
20
30
28
24
22
21
21
1E
ENDCHAR
STARTCHAR uni0938094D
ENCODING -1
SWIDTH 338 0
DWIDTH 7 0
BBX 9 13 0 0
BITMAP
FF80
0800
0800
0800
0800
1000
7F80
4000
2000
2000
1000
1000
0800
ENDCHAR
STARTCHAR uni0939094D
ENCODING -1
SWIDTH 457 0
DWIDTH 9 0
BBX 11 14 0 -1
BITMAP
FFC0
0100
0100
3F00
2000
2000
2000
1FE0
2000
2000
4000
2000
2000
1F00
ENDCHAR
STARTCHAR uni0915093C094D
ENCODING -1
SWIDTH 519 0
DWIDTH 10 0
BBX 13 14 0 -1
BITMAP
FFF8
0100
0100
39F0
2108
4100
4100
4100
4100
2300
3D00
0100
0100
2000
ENDCHAR
STARTCHAR uni0916093C094D
ENCODING -1
SWIDTH 463 0
DWIDTH 9 0
BBX 12 14 0 -1
BITMAP
FFF0
0800
0800
09C0
0900
0A00
7200
4200
2110
21E0
1000
0800
0C00
4000
ENDCHAR
STARTCHAR uni0917093C094D
ENCODING -1
SWIDTH 264 0
DWIDTH 5 0
BBX 6 13 0 0
BITMAP
FC
10
10
10
10
10
20
E0
00
00
00
00
20
ENDCHAR
STARTCHAR uni091C093C094D
ENCODING -1
SWIDTH 314 0
DWIDTH 6 0
BBX 8 15 0 -2
BITMAP
FF
00
00
00
7F
08
04
04
04
04
08
70
00
00
20
ENDCHAR
STARTCHAR uni0928093C094D
ENCODING -1
SWIDTH 241 0
DWIDTH 5 0
BBX 7 13 0 0
BITMAP
FE
00
00
00
00
7E
40
40
40
00
00
00
30
ENDCHAR
STARTCHAR uni092B093C094D
ENCODING -1
SWIDTH 530 0
DWIDTH 11 0
BBX 13 14 0 -1
BITMAP
FFF8
2100
2100
21F0
2108
2100
2100
2100
1F00
0100
0100
0100
0100
1000
ENDCHAR
STARTCHAR uni092F093C094D
ENCODING -1
SWIDTH 325 0
DWIDTH 7 0
BBX 9 14 0 -1
BITMAP
FF00
0800
0800
0800
0800
7000
4000
4000
4000
2080
1F00
0000
0000
1000
ENDCHAR
STARTCHAR uni09080902
ENCODING -1
SWIDTH 478 0
DWIDTH 10 0
BBX 10 19 0 -1
BITMAP
0380
0400
0500
0400
0400
FFC0
0100
0100
3F00
2000
4000
2000
3F00
0100
0100
4100
6100
5E00
4000
ENDCHAR
STARTCHAR uni09300941
ENCODING -1
SWIDTH 533 0
DWIDTH 11 0
BBX 11 13 0 0
BITMAP
FFE0
0800
0800
0F80
0880
0880
7080
4080
2080
2300
1000
0800
0800
ENDCHAR
STARTCHAR uni09300942
ENCODING -1
SWIDTH 645 0
DWIDTH 13 0
BBX 13 13 0 0
BITMAP
FFF8
0800
0800
09E0
0920
0910
7110
4010
2020
20C0
1100
0800
0800
ENDCHAR
STARTCHAR uni09390941
ENCODING -1
SWIDTH 495 0
DWIDTH 10 0
BBX 10 18 0 -5
BITMAP
FFC0
0100
0100
3F00
2000
2000
2000
1E00
2100
2100
4100
2000
2000
1F00
0080
4080
2100
1F00
ENDCHAR
STARTCHAR uni09390942
ENCODING -1
SWIDTH 492 0
DWIDTH 10 0
BBX 10 18 0 -5
BITMAP
FFC0
0100
0100
3F00
2000
2000
2000
1E00
2100
2100
4100
2000
2000
1E00
2100
2100
2080
3880
ENDCHAR
STARTCHAR uni09260943
ENCODING -1
SWIDTH 390 0
DWIDTH 8 0
BBX 8 12 0 1
BITMAP
FF
04
04
3C
20
40
20
1C
20
40
20
3E
ENDCHAR
STARTCHAR uni09390943
ENCODING -1
SWIDTH 519 0
DWIDTH 10 0
BBX 11 16 0 -3
BITMAP
FFE0
0100
0100
3F00
2000
4000
2000
1F80
2480
4880
4800
4400
4780
4000
2000
1F00
ENDCHAR
STARTCHAR uni094D0930
ENCODING -1
SWIDTH 0 0
DWIDTH 0 0
BBX 6 4 -8 -4
BITMAP
30
70
48
84
ENDCHAR
STARTCHAR uni0930094D.1
ENCODING -1
SWIDTH 192 0
DWIDTH 4 0
BBX 7 6 -1 7
BITMAP
78
00
00
00
82
7C
ENDCHAR
STARTCHAR uni0930094D.2
ENCODING -1
SWIDTH 0 0
DWIDTH 0 0
BBX 3 6 -3 12
BITMAP
60
80
80
80
80
80
ENDCHAR
STARTCHAR uni0930094D0902
ENCODING -1
SWIDTH 0 0
DWIDTH 0 0
BBX 3 6 -3 12
BITMAP
60
80
80
A0
80
80
ENDCHAR
STARTCHAR uni093E0930094D
ENCODING -1
SWIDTH 231 0
DWIDTH 5 0
BBX 5 18 0 0
BITMAP
18
20
20
20
20
F8
20
20
20
20
20
20
20
20
20
20
20
20
ENDCHAR
STARTCHAR uni093E0930094D0902
ENCODING -1
SWIDTH 231 0
DWIDTH 5 0
BBX 5 18 0 0
BITMAP
18
20
28
20
20
F8
20
20
20
20
20
20
20
20
20
20
20
20
ENDCHAR
STARTCHAR uni0930094D.aMatraI
ENCODING -1
SWIDTH 0 0
DWIDTH 0 0
BBX 3 4 -1 13
BITMAP
60
80
80
80
ENDCHAR
STARTCHAR uni0902.aMatraI
ENCODING -1
SWIDTH 0 0
DWIDTH 0 0
BBX 1 1 1 15
BITMAP
80
ENDCHAR
STARTCHAR uni0930094D0902.aMatraI
ENCODING -1
SWIDTH 0 0
DWIDTH 0 0
BBX 3 4 -1 13
BITMAP
60
80
A0
80
ENDCHAR
STARTCHAR uni09400930094D
ENCODING -1
SWIDTH 231 0
DWIDTH 5 0
BBX 8 18 -3 0
BITMAP
7B
84
84
84
04
1F
04
04
04
04
04
04
04
04
04
04
04
04
ENDCHAR
STARTCHAR uni09400902
ENCODING -1
SWIDTH 231 0
DWIDTH 5 0
BBX 8 18 -3 0
BITMAP
78
84
85
84
04
1F
04
04
04
04
04
04
04
04
04
04
04
04
ENDCHAR
STARTCHAR uni09400930094D0902
ENCODING -1
SWIDTH 231 0
DWIDTH 5 0
BBX 8 18 -3 0
BITMAP
7B
84
85
04
04
1F
04
04
04
04
04
04
04
04
04
04
04
04
ENDCHAR
STARTCHAR uni0940.aLong
ENCODING -1
SWIDTH 231 0
DWIDTH 5 0
BBX 13 18 -8 0
BITMAP
7FC0
8020
8020
8020
0020
00F8
0020
0020
0020
0020
0020
0020
0020
0020
0020
0020
0020
0020
ENDCHAR
STARTCHAR uni09400930094D.aLong
ENCODING -1
SWIDTH 231 0
DWIDTH 5 0
BBX 13 18 -8 0
BITMAP
7FD8
8020
8020
8020
0020
00F8
0020
0020
0020
0020
0020
0020
0020
0020
0020
0020
0020
0020
ENDCHAR
STARTCHAR uni09400902.aLong
ENCODING -1
SWIDTH 231 0
DWIDTH 5 0
BBX 13 18 -8 0
BITMAP
7FC0
8020
8028
8020
0020
00F8
0020
0020
0020
0020
0020
0020
0020
0020
0020
0020
0020
0020
ENDCHAR
STARTCHAR uni09400930094D0902.aLong
ENCODING -1
SWIDTH 231 0
DWIDTH 5 0
BBX 13 18 -8 0
BITMAP
7FD8
8020
8028
0020
0020
00F8
0020
0020
0020
0020
0020
0020
0020
0020
0020
0020
0020
0020
ENDCHAR
STARTCHAR uni09470930094D
ENCODING -1
SWIDTH 0 0
DWIDTH 0 0
BBX 6 5 -6 13
BITMAP
8C
50
70
30
10
ENDCHAR
STARTCHAR uni09470902
ENCODING -1
SWIDTH 0 0
DWIDTH 0 0
BBX 6 6 -6 12
BITMAP
80
40
44
20
10
18
ENDCHAR
STARTCHAR uni09470901
ENCODING -1
SWIDTH 0 0
DWIDTH 0 0
BBX 10 6 -6 12
BITMAP
8200
4840
4840
2F80
1000
1800
ENDCHAR
STARTCHAR uni09470930094D0902
ENCODING -1
SWIDTH 0 0
DWIDTH 0 0
BBX 6 5 -6 13
BITMAP
8C
50
34
30
10
ENDCHAR
STARTCHAR uni09480930094D
ENCODING -1
SWIDTH 0 0
DWIDTH 0 0
BBX 8 6 -7 12
BITMAP
DB
4C
28
28
18
08
ENDCHAR
STARTCHAR uni09480902
ENCODING -1
SWIDTH 0 0
DWIDTH 0 0
BBX 6 6 -6 12
BITMAP
90
D0
54
30
30
10
ENDCHAR
STARTCHAR uni09480901
ENCODING -1
SWIDTH 0 0
DWIDTH 0 0
BBX 11 6 -6 12
BITMAP
9080
D420
5420
33E0
3000
1000
ENDCHAR
STARTCHAR uni09480930094D0902
ENCODING -1
SWIDTH 0 0
DWIDTH 0 0
BBX 8 6 -7 12
BITMAP
DB
4C
28
2A
18
08
ENDCHAR
STARTCHAR uni094B0930094D
ENCODING -1
SWIDTH 231 0
DWIDTH 5 0
BBX 7 18 -2 0
BITMAP
C6
48
28
18
18
3E
08
08
08
08
08
08
08
08
08
08
08
08
ENDCHAR
STARTCHAR uni094B0902
ENCODING -1
SWIDTH 231 0
DWIDTH 5 0
BBX 7 18 -2 0
BITMAP
C0
40
24
10
10
3E
08
08
08
08
08
08
08
08
08
08
08
08
ENDCHAR
STARTCHAR uni094B0930094D0902
ENCODING -1
SWIDTH 231 0
DWIDTH 5 0
BBX 7 18 -2 0
BITMAP
C6
68
2A
18
08
3E
08
08
08
08
08
08
08
08
08
08
08
08
ENDCHAR
STARTCHAR uni094C0930094D
ENCODING -1
SWIDTH 231 0
DWIDTH 5 0
BBX 7 18 -2 0
BITMAP
96
58
38
28
18
3E
08
08
08
08
08
08
08
08
08
08
08
08
ENDCHAR
STARTCHAR uni094C0902
ENCODING -1
SWIDTH 231 0
DWIDTH 5 0
BBX 7 18 -2 0
BITMAP
C8
48
2A
18
18
3E
08
08
08
08
08
08
08
08
08
08
08
08
ENDCHAR
STARTCHAR uni094C0930094D0902
ENCODING -1
SWIDTH 231 0
DWIDTH 5 0
BBX 7 18 -2 0
BITMAP
96
58
3A
28
18
3E
08
08
08
08
08
08
08
08
08
08
08
08
ENDCHAR
STARTCHAR uni0915094D0937
ENCODING -1
SWIDTH 656 0
DWIDTH 13 0
BBX 12 13 1 0
BITMAP
3C70
2240
4240
4240
2440
7FC0
C040
8040
8240
8240
C640
7A40
0240
ENDCHAR
STARTCHAR uni0915094D0937094D
ENCODING -1
SWIDTH 429 0
DWIDTH 9 0
BBX 10 13 1 0
BITMAP
3C00
2200
4200
4200
2400
7FC0
C000
8000
8200
8200
C600
7A00
0200
ENDCHAR
STARTCHAR uni0915094D0937094D092E
ENCODING -1
SWIDTH 933 0
DWIDTH 19 0
BBX 18 13 1 0
BITMAP
3CFFC0
224100
424100
424100
244100
7FC100
C07F00
804100
824100
824100
C60100
7A0100
020100
ENDCHAR
STARTCHAR uni0915094D0937094D092E094D
ENCODING -1
SWIDTH 717 0
DWIDTH 14 0
BBX 16 13 1 0
BITMAP
3CFF
2240
4240
4240
2440
7FC0
C07F
8040
8240
8240
C600
7A00
0200
ENDCHAR
STARTCHAR uni0915094D0937094D092E094D092F
ENCODING -1
SWIDTH 1283 0
DWIDTH 26 0
BBX 25 13 1 0
BITMAP
3CFFFF80
22404200
42402200
42402200
24404200
7FC1C200
C07F0200
80410200
82410200
82010600
C600FA00
7A000200
02000200
ENDCHAR
STARTCHAR uni0915094D0937094D092F
ENCODING -1
SWIDTH 989 0
DWIDTH 20 0
BBX 19 13 1 0
BITMAP
3CFFE0
220880
420880
420880
240880
7FF080
C04080
804080
824080
824180
C63E80
7A0080
020080
ENDCHAR
STARTCHAR uni0915094D0937094D0935
ENCODING -1
SWIDTH 936 0
DWIDTH 19 0
BBX 18 13 1 0
BITMAP
3CFFC0
220100
420100
423900
242100
7FC100
C04100
804100
824100
822300
C63D00
7A0100
020100
ENDCHAR
STARTCHAR uni091C094D091E
ENCODING -1
SWIDTH 629 0
DWIDTH 13 0
BBX 13 14 0 -1
BITMAP
FFF8
0020
0020
3FE0
2020
4020
2020
3E20
0120
4120
6120
5E20
4020
4000
ENDCHAR
STARTCHAR uni091C094D091E094D
ENCODING -1
SWIDTH 398 0
DWIDTH 8 0
BBX 10 14 0 -1
BITMAP
FFC0
0000
0000
3FC0
2000
4000
2000
3E00
0100
4100
6100
5E00
4000
4000
ENDCHAR
STARTCHAR uni091C094D091E094D092F
ENCODING -1
SWIDTH 975 0
DWIDTH 20 0
BBX 20 14 0 -1
BITMAP
FFFFF0
000840
000440
3FC440
204840
407840
204040
3E4040
012040
4120C0
611F40
5E0040
400040
400000
ENDCHAR
STARTCHAR uni0915094D0928
ENCODING -1
SWIDTH 1003 0
DWIDTH 20 0
BBX 20 13 0 0
BITMAP
FFFFF0
010040
010040
39F040
210840
410FC0
410840
411040
410840
230040
3D0040
010040
010040
ENDCHAR
STARTCHAR uni0916094D0928
ENCODING -1
SWIDTH 958 0
DWIDTH 19 0
BBX 19 13 0 0
BITMAP
FFFFE0
080080
080080
09E080
091080
0A1F80
721080
411080
21F080
301080
100080
080080
0C0080
ENDCHAR
STARTCHAR uni0917094D0928
ENCODING -1
SWIDTH 736 0
DWIDTH 15 0
BBX 15 13 0 0
BITMAP
FFFE
1008
1008
1008
1008
11F8
2208
E208
0008
0008
0008
0008
0008
ENDCHAR
STARTCHAR uni0918094D0928
ENCODING -1
SWIDTH 814 0
DWIDTH 16 0
BBX 17 13 0 0
BITMAP
FFFF80
200400
400400
400400
200400
3CFC00
608400
408400
218400
3F8400
000400
000400
000400
ENDCHAR
STARTCHAR uni091A094D0928
ENCODING -1
SWIDTH 829 0
DWIDTH 17 0
BBX 17 13 0 0
BITMAP
FFFF80
000200
000200
000200
FC0200
207E00
208200
208200
308200
1F8200
000200
000200
000200
ENDCHAR
STARTCHAR uni091B094D0928
ENCODING -1
SWIDTH 977 0
DWIDTH 20 0
BBX 20 13 0 0
BITMAP
FFFFF0
200040
200040
218040
204040
204FC0
385040
205040
205040
204040
204040
1F8040
000040
ENDCHAR
STARTCHAR uni091C094D0928
ENCODING -1
SWIDTH 831 0
DWIDTH 17 0
BBX 17 13 0 0
BITMAP
FFFF80
000200
000200
000200
000200
7FFE00
088200
048200
048200
040200
080200
780200
000200
ENDCHAR
STARTCHAR uni091D094D0928
ENCODING -1
SWIDTH 935 0
DWIDTH 19 0
BBX 19 14 0 -1
BITMAP
FFFFE0
020080
020080
3E0080
200080
401F80
202080
3FE080
012080
410080
610080
5E0080
400080
400000
ENDCHAR
STARTCHAR uni091F094D0928
ENCODING -1
SWIDTH 494 0
DWIDTH 10 0
BBX 10 18 0 -5
BITMAP
FFC0
0100
0100
0100
1F00
2000
4000
4080
4080
2180
1F00
0100
0100
3F00
4100
4100
2100
0100
ENDCHAR
STARTCHAR uni0920094D0928
ENCODING -1
SWIDTH 516 0
DWIDTH 10 0
BBX 11 18 0 -5
BITMAP
FFE0
0100
0100
0100
3E00
2180
4080
4080
4080
2180
3F00
0100
0100
3F00
4100
4100
2100
0100
ENDCHAR
STARTCHAR uni0921094D0928
ENCODING -1
SWIDTH 481 0
DWIDTH 10 0
BBX 10 18 0 -5
BITMAP
FFC0
0100
0100
3F00
2000
4000
2000
3F00
0100
4100
2100
3F00
0100
3F00
2100
4100
2100
0100
ENDCHAR
STARTCHAR uni0924094D0928
ENCODING -1
SWIDTH 756 0
DWIDTH 15 0
BBX 15 13 0 0
BITMAP
FFFE
0008
0008
0008
3E08
21F8
4108
4108
4108
4008
4008
2008
3808
ENDCHAR
STARTCHAR uni0925094D0928
ENCODING -1
SWIDTH 855 0
DWIDTH 17 0
BBX 16 13 1 0
BITMAP
39FF
4804
4404
0404
0804
F8FC
8084
8084
4184
3E84
0004
0004
0004
ENDCHAR
STARTCHAR uni0926094D0928
ENCODING -1
SWIDTH 955 0
DWIDTH 19 0
BBX 19 17 0 -4
BITMAP
FFFFE0
010080
010080
1F0080
200080
401F80
401080
401080
411080
210080
1F0080
010080
010080
000000
018000
008000
004000
ENDCHAR
STARTCHAR uni0927094D0928
ENCODING -1
SWIDTH 814 0
DWIDTH 16 0
BBX 17 13 0 0
BITMAP
F9FF80
200400
400400
400400
200400
3CFC00
608400
408400
218400
3E8400
000400
000400
000400
ENDCHAR
STARTCHAR uni0928094D0928
ENCODING -1
SWIDTH 738 0
DWIDTH 15 0
BBX 15 13 0 0
BITMAP
FFFE
0008
0008
0008
0008
3FF8
4208
4208
4208
0008
0008
0008
0008
ENDCHAR
STARTCHAR uni092A094D0928
ENCODING -1
SWIDTH 782 0
DWIDTH 16 0
BBX 16 13 0 0
BITMAP
FFFF
2004
2004
2004
2004
20FC
2104
2104
1F04
0004
0004
0004
0004
ENDCHAR
STARTCHAR uni092B094D0928
ENCODING -1
SWIDTH 1013 0
DWIDTH 20 0
BBX 21 13 0 0
BITMAP
FFFFF8
210040
210040
21F040
210840
210FC0
210840
210840
1F0840
010040
010040
010040
010040
ENDCHAR
STARTCHAR uni092C094D0928
ENCODING -1
SWIDTH 810 0
DWIDTH 16 0
BBX 16 13 0 0
BITMAP
FFFF
0004
0004
3C04
2004
50FC
4884
4484
4284
2304
3E04
0004
0004
ENDCHAR
STARTCHAR uni092D094D0928
ENCODING -1
SWIDTH 757 0
DWIDTH 15 0
BBX 15 13 0 0
BITMAP
C7FE
4008
2008
2008
2008
21F8
3F08
2108
2108
0008
0008
0008
0008
ENDCHAR
STARTCHAR uni092E094D0928
ENCODING -1
SWIDTH 757 0
DWIDTH 15 0
BBX 15 13 0 0
BITMAP
FFFE
2008
2008
2008
2008
21F8
3F08
2108
2108
0008
0008
0008
0008
ENDCHAR
STARTCHAR uni092F094D0928
ENCODING -1
SWIDTH 829 0
DWIDTH 17 0
BBX 17 13 0 0
BITMAP
FFFF80
080200
080200
080200
080200
707E00
408200
408200
218200
1F8200
000200
000200
000200
ENDCHAR
STARTCHAR uni0935094D0928
ENCODING -1
SWIDTH 798 0
DWIDTH 16 0
BBX 16 13 0 0
BITMAP
FFFF
0004
0004
3C04
2004
40FC
4104
4104
4084
2304
3E04
0004
0004
ENDCHAR
STARTCHAR uni0936094D0928
ENCODING -1
SWIDTH 845 0
DWIDTH 17 0
BBX 16 13 1 0
BITMAP
79FF
4404
8404
8404
0404
08FC
F904
8104
4084
2004
2004
1004
1804
ENDCHAR
STARTCHAR uni0938094D0928
ENCODING -1
SWIDTH 831 0
DWIDTH 17 0
BBX 17 13 0 0
BITMAP
FFFF80
080200
080200
080200
080200
107E00
7F8200
408200
208200
200200
100200
100200
080200
ENDCHAR
STARTCHAR uni0939094D0928
ENCODING -1
SWIDTH 500 0
DWIDTH 10 0
BBX 10 15 0 -2
BITMAP
FFC0
0100
0100
3F00
2000
2000
2000
1F80
2180
4680
4480
4480
4400
2000
1F00
ENDCHAR
STARTCHAR uni0915094D0930
ENCODING -1
SWIDTH 725 0
DWIDTH 15 0
BBX 15 14 0 -1
BITMAP
FFFE
0100
0100
39F0
2108
4108
4108
4108
4108
6308
3D70
0900
1900
3000
ENDCHAR
STARTCHAR uni0916094D0930
ENCODING -1
SWIDTH 698 0
DWIDTH 14 0
BBX 14 14 0 -1
BITMAP
FFFC
0810
0810
08D0
0910
0A10
7210
4210
2110
21F0
1050
0890
0C90
0100
ENDCHAR
STARTCHAR uni0917094D0930
ENCODING -1
SWIDTH 494 0
DWIDTH 10 0
BBX 10 13 0 0
BITMAP
FFC0
1100
1100
1100
1100
1100
2100
E300
0500
0D00
0900
1100
2100
ENDCHAR
STARTCHAR uni0918094D0930
ENCODING -1
SWIDTH 559 0
DWIDTH 11 0
BBX 11 14 0 -1
BITMAP
FFE0
2080
4080
4080
2080
1C80
2080
4080
4080
2080
3F80
0680
0C80
1000
ENDCHAR
STARTCHAR uni0919094D0930
ENCODING -1
SWIDTH 505 0
DWIDTH 10 0
BBX 10 16 0 -3
BITMAP
FFC0
0100
0100
3F00
2000
4080
2000
3E00
0100
0100
4100
2100
3E00
1C00
1200
2100
ENDCHAR
STARTCHAR uni091A094D0930
ENCODING -1
SWIDTH 563 0
DWIDTH 11 0
BBX 12 13 0 0
BITMAP
FFF0
0080
0080
0080
FC80
3080
2080
2080
2080
3080
1F80
0680
1880
ENDCHAR
STARTCHAR uni091B094D0930
ENCODING -1
SWIDTH 581 0
DWIDTH 12 0
BBX 12 15 0 -2
BITMAP
FFF0
2040
2040
2040
2180
2040
1840
2040
2040
2040
2040
3F80
0A00
0900
1080
ENDCHAR
STARTCHAR uni091C094D0930
ENCODING -1
SWIDTH 547 0
DWIDTH 11 0
BBX 11 13 0 0
BITMAP
FFE0
0080
0080
0080
7F80
0880
0480
0480
0480
0980
7B80
0280
0C80
ENDCHAR
STARTCHAR uni091D094D0930
ENCODING -1
SWIDTH 684 0
DWIDTH 14 0
BBX 14 14 0 -1
BITMAP
FFFC
0210
0210
3E10
2010
4010
2010
3FF0
0110
4110
6130
5E50
4090
4100
ENDCHAR
STARTCHAR uni091E094D0930
ENCODING -1
SWIDTH 598 0
DWIDTH 12 0
BBX 12 13 0 0
BITMAP
FFF0
0040
0040
7840
0840
0440
0440
07C0
0440
04C0
7940
0340
0640
ENDCHAR
STARTCHAR uni091F094D0930
ENCODING -1
SWIDTH 485 0
DWIDTH 10 0
BBX 10 15 0 -2
BITMAP
FFC0
0100
0100
0100
3F00
2000
4000
4000
4080
4080
2100
3F00
0A00
1200
2100
ENDCHAR
STARTCHAR uni0920094D0930
ENCODING -1
SWIDTH 512 0
DWIDTH 10 0
BBX 11 15 0 -2
BITMAP
FFE0
0100
0100
0100
3E00
2100
4080
4080
4080
4080
2100
3F00
0E00
1200
3100
ENDCHAR
STARTCHAR uni0921094D0930
ENCODING -1
SWIDTH 475 0
DWIDTH 10 0
BBX 10 16 0 -3
BITMAP
FFC0
0100
0100
3F00
2000
4000
2000
3E00
0100
0100
4100
2100
3E00
1C00
1200
2100
ENDCHAR
STARTCHAR uni0922094D0930
ENCODING -1
SWIDTH 485 0
DWIDTH 10 0
BBX 10 15 0 -2
BITMAP
FFC0
0100
0100
0100
3F00
2000
4000
4700
4480
4480
2080
3F00
0E00
1200
3100
ENDCHAR
STARTCHAR uni0923094D0930
ENCODING -1
SWIDTH 681 0
DWIDTH 14 0
BBX 14 13 0 0
BITMAP
FFFC
2210
2210
2210
2210
2210
2210
2230
1C50
0090
0090
0110
0210
ENDCHAR
STARTCHAR uni0924094D0930
ENCODING -1
SWIDTH 493 0
DWIDTH 10 0
BBX 10 13 0 0
BITMAP
FFC0
0100
0100
0100
3F00
6100
4100
4100
0100
0700
0900
1100
6100
ENDCHAR
STARTCHAR uni0925094D0930
ENCODING -1
SWIDTH 593 0
DWIDTH 12 0
BBX 11 14 1 -1
BITMAP
78E0
4880
4480
0480
0880
F880
8080
8080
8080
4180
3E80
0480
0880
3000
ENDCHAR
STARTCHAR uni0926094D0930
ENCODING -1
SWIDTH 489 0
DWIDTH 10 0
BBX 10 13 0 0
BITMAP
FFC0
0100
0100
1F00
2000
4000
4000
4000
4100
2100
1F00
0500
1900
ENDCHAR
STARTCHAR uni0927094D0930
ENCODING -1
SWIDTH 560 0
DWIDTH 11 0
BBX 11 14 0 -1
BITMAP
FBE0
2080
4080
4080
2080
1C80
2080
4080
4080
2080
1F80
0280
0480
1800
ENDCHAR
STARTCHAR uni0928094D0930
ENCODING -1
SWIDTH 473 0
DWIDTH 9 0
BBX 10 13 0 0
BITMAP
FFC0
0100
0100
0100
0100
3F00
4100
4300
4500
0900
1100
3100
2100
ENDCHAR
STARTCHAR uni092A094D0930
ENCODING -1
SWIDTH 503 0
DWIDTH 10 0
BBX 10 13 0 0
BITMAP
FFC0
2100
2100
2100
2100
2100
2100
2100
1F00
0500
0900
1100
3100
ENDCHAR
STARTCHAR uni092B094D0930
ENCODING -1
SWIDTH 741 0
DWIDTH 15 0
BBX 15 13 0 0
BITMAP
FFFE
2100
2100
21F0
2108
2104
2104
2104
1F04
0508
0930
1100
2100
ENDCHAR
STARTCHAR uni092C094D0930
ENCODING -1
SWIDTH 491 0
DWIDTH 10 0
BBX 10 14 0 -1
BITMAP
FFC0
0100
0100
3D00
2100
5100
4900
4500
4300
2100
3F00
0500
1900
3000
ENDCHAR
STARTCHAR uni092D094D0930
ENCODING -1
SWIDTH 491 0
DWIDTH 10 0
BBX 10 13 0 0
BITMAP
C7C0
4100
2100
2100
2100
2100
3F00
2100
2300
0500
0900
1100
2100
ENDCHAR
STARTCHAR uni092E094D0930
ENCODING -1
SWIDTH 490 0
DWIDTH 10 0
BBX 10 13 0 0
BITMAP
FFC0
2100
2100
2100
2100
2100
3F00
2300
2300
0500
0900
1100
2100
ENDCHAR
STARTCHAR uni092F094D0930
ENCODING -1
SWIDTH 564 0
DWIDTH 11 0
BBX 12 14 0 -1
BITMAP
FFF0
0880
0880
0880
0880
7080
4080
4080
4080
2080
1F80
0680
0C80
1000
ENDCHAR
STARTCHAR uni0935094D0930
ENCODING -1
SWIDTH 484 0
DWIDTH 10 0
BBX 10 14 0 -1
BITMAP
FFC0
0100
0100
3900
2100
4100
4100
4100
4100
2300
3F00
0D00
1900
3000
ENDCHAR
STARTCHAR uni0936094D0930
ENCODING -1
SWIDTH 558 0
DWIDTH 11 0
BBX 10 13 1 0
BITMAP
79C0
C500
8500
8500
4900
3900
7900
C500
0700
0900
3100
2100
0100
ENDCHAR
STARTCHAR uni0938094D0930
ENCODING -1
SWIDTH 604 0
DWIDTH 12 0
BBX 12 13 0 0
BITMAP
FFF0
0840
0840
0840
0840
1040
7FC0
40C0
2140
2240
1240
1040
0840
ENDCHAR
STARTCHAR uni0939094D0930
ENCODING -1
SWIDTH 505 0
DWIDTH 10 0
BBX 10 15 0 -2
BITMAP
FFC0
0100
0100
3F00
6000
4000
2000
1F80
2380
4280
4480
4880
4000
2000
1F00
ENDCHAR
STARTCHAR uni0915093C094D0930
ENCODING -1
SWIDTH 725 0
DWIDTH 15 0
BBX 15 15 0 -2
BITMAP
FFFE
0100
0100
39F0
2108
4108
4108
4108
4108
6308
3D70
0900
1100
3000
0800
ENDCHAR
STARTCHAR uni0916093C094D0930
ENCODING -1
SWIDTH 698 0
DWIDTH 14 0
BBX 14 15 0 -2
BITMAP
FFFC
0810
0810
08D0
0910
0A10
7210
4210
2110
21F0
1050
0890
0D90
0100
0040
ENDCHAR
STARTCHAR uni0917093C094D0930
ENCODING -1
SWIDTH 494 0
DWIDTH 10 0
BBX 10 15 0 -2
BITMAP
FFC0
1100
1100
1100
1100
1100
2100
E300
0500
0500
0900
1100
2100
0000
0800
ENDCHAR
STARTCHAR uni091C093C094D0930
ENCODING -1
SWIDTH 547 0
DWIDTH 11 0
BBX 11 14 0 -1
BITMAP
FFE0
0080
0080
0080
7F80
0880
0480
0480
0480
0980
7B80
0280
0480
4800
ENDCHAR
STARTCHAR uni0921093C094D0930
ENCODING -1
SWIDTH 475 0
DWIDTH 10 0
BBX 10 16 0 -3
BITMAP
FFC0
0100
0100
3F00
2000
4000
2000
3E00
0100
0100
4100
2100
3E00
9C00
1200
2100
ENDCHAR
STARTCHAR uni0922093C094D0930
ENCODING -1
SWIDTH 485 0
DWIDTH 10 0
BBX 10 15 0 -2
BITMAP
FFC0
0100
0100
0100
3F00
2000
4000
4700
4480
4480
2080
3F00
8A00
1200
3100
ENDCHAR
STARTCHAR uni0928093C094D0930
ENCODING -1
SWIDTH 473 0
DWIDTH 9 0
BBX 10 15 0 -2
BITMAP
FFC0
0100
0100
0100
0100
3F00
4100
4300
4500
0900
1900
1100
2100
0000
1000
ENDCHAR
STARTCHAR uni092B093C094D0930
ENCODING -1
SWIDTH 741 0
DWIDTH 15 0
BBX 15 15 0 -2
BITMAP
FFFE
2100
2100
21F0
2108
2104
2104
2104
1F04
0508
0930
1100
2100
0000
0800
ENDCHAR
STARTCHAR uni092F093C094D0930
ENCODING -1
SWIDTH 564 0
DWIDTH 11 0
BBX 12 15 0 -2
BITMAP
FFF0
0880
0880
0880
0880
7080
4080
4080
4080
2080
1F80
0680
0C80
1000
0600
ENDCHAR
STARTCHAR uni0915094D0930094D
ENCODING -1
SWIDTH 518 0
DWIDTH 10 0
BBX 13 14 0 -1
BITMAP
FFF8
0100
0100
39F0
2108
4100
4100
4100
4100
6300
3D00
0900
1900
3000
ENDCHAR
STARTCHAR uni0916094D0930094D
ENCODING -1
SWIDTH 469 0
DWIDTH 9 0
BBX 12 14 0 -1
BITMAP
FFF0
0800
0800
08C0
0900
0A00
7200
4200
2110
21E0
1040
0880
0C80
0100
ENDCHAR
STARTCHAR uni0917094D0930094D
ENCODING -1
SWIDTH 264 0
DWIDTH 5 0
BBX 8 13 0 0
BITMAP
FC
10
10
10
10
10
21
E2
04
0C
08
10
20
ENDCHAR
STARTCHAR uni0918094D0930094D
ENCODING -1
SWIDTH 319 0
DWIDTH 6 0
BBX 9 14 0 -1
BITMAP
FF80
2000
4000
4000
2000
1C00
2000
4000
4000
2080
3F00
0600
0C00
1000
ENDCHAR
STARTCHAR uni091A094D0930094D
ENCODING -1
SWIDTH 331 0
DWIDTH 7 0
BBX 9 13 0 0
BITMAP
FF00
0000
0000
0000
FC00
3000
2000
2000
2000
3080
1F00
0600
1800
ENDCHAR
STARTCHAR uni091C094D0930094D
ENCODING -1
SWIDTH 312 0
DWIDTH 6 0
BBX 9 13 0 0
BITMAP
FF00
0000
0000
0000
7F00
0800
0400
0400
0400
0880
7900
0200
0C00
ENDCHAR
STARTCHAR uni091D094D0930094D
ENCODING -1
SWIDTH 441 0
DWIDTH 9 0
BBX 11 14 0 -1
BITMAP
FFE0
0200
0200
3E00
2000
4000
2000
3FE0
0120
4120
6120
5E40
4080
4100
ENDCHAR
STARTCHAR uni091E094D0930094D
ENCODING -1
SWIDTH 374 0
DWIDTH 7 0
BBX 10 13 0 0
BITMAP
FF80
0000
0000
7800
0800
0400
0400
07C0
0440
0440
7880
0100
0600
ENDCHAR
STARTCHAR uni091F094D0930094D
ENCODING -1
SWIDTH 485 0
DWIDTH 10 0
BBX 10 18 0 -5
BITMAP
FFC0
0100
0100
0100
3F00
2000
4000
4000
4080
4080
2100
3F00
0A00
1200
2100
0400
0600
0300
ENDCHAR
STARTCHAR uni0920094D0930094D
ENCODING -1
SWIDTH 512 0
DWIDTH 10 0
BBX 11 18 0 -5
BITMAP
FFE0
0100
0100
0100
3E00
2100
4080
4080
4080
4080
2100
3F00
0A00
1200
2100
0400
0600
0300
ENDCHAR
STARTCHAR uni0921094D0930094D
ENCODING -1
SWIDTH 475 0
DWIDTH 10 0
BBX 10 19 0 -6
BITMAP
FFC0
0100
0100
3F00
2000
4000
2000
3E00
0100
0100
4100
2100
3F00
1C00
1200
2100
0400
0400
0200
ENDCHAR
STARTCHAR uni0922094D0930094D
ENCODING -1
SWIDTH 485 0
DWIDTH 10 0
BBX 10 19 0 -6
BITMAP
FFC0
0100
0100
0100
3F00
2000
4000
4700
4480
4480
2080
1F00
0A00
1200
3100
0400
0400
0200
0300
ENDCHAR
STARTCHAR uni0923094D0930094D
ENCODING -1
SWIDTH 457 0
DWIDTH 9 0
BBX 12 13 0 0
BITMAP
FF80
2200
2200
2200
2200
2200
2210
2220
1C40
00C0
0080
0100
0200
ENDCHAR
STARTCHAR uni0924094D0930094D
ENCODING -1
SWIDTH 268 0
DWIDTH 5 0
BBX 8 13 0 0
BITMAP
FF
00
00
00
3E
61
41
41
01
06
08
10
60
ENDCHAR
STARTCHAR uni0925094D0930094D
ENCODING -1
SWIDTH 358 0
DWIDTH 7 0
BBX 9 14 1 -1
BITMAP
7800
4800
4400
0400
0800
F800
8000
8000
8000
4180
3E00
0400
0800
3000
ENDCHAR
STARTCHAR uni0926094D0930094D
ENCODING -1
SWIDTH 489 0
DWIDTH 10 0
BBX 10 17 0 -4
BITMAP
FFC0
0100
0100
1F00
2000
4000
4000
4000
4100
2100
1F00
0500
0900
1000
0200
0100
0100
ENDCHAR
STARTCHAR uni0927094D0930094D
ENCODING -1
SWIDTH 322 0
DWIDTH 6 0
BBX 9 14 0 -1
BITMAP
FB00
2000
4000
4000
2000
1C00
2000
4000
4000
2080
3F00
0200
0400
1800
ENDCHAR
STARTCHAR uni0928094D0930094D
ENCODING -1
SWIDTH 247 0
DWIDTH 5 0
BBX 8 13 0 0
BITMAP
FF
00
00
00
00
3F
41
42
44
0C
18
10
20
ENDCHAR
STARTCHAR uni092A094D0930094D
ENCODING -1
SWIDTH 270 0
DWIDTH 5 0
BBX 8 13 0 0
BITMAP
FE
20
20
20
20
20
20
21
1E
04
08
10
30
ENDCHAR
STARTCHAR uni092B094D0930094D
ENCODING -1
SWIDTH 523 0
DWIDTH 10 0
BBX 14 13 -1 0
BITMAP
FFFC
2080
2080
20F8
2084
2080
2080
1180
1E80
0280
0480
0880
3080
ENDCHAR
STARTCHAR uni092C094D0930094D
ENCODING -1
SWIDTH 267 0
DWIDTH 5 0
BBX 8 14 0 -1
BITMAP
FF
00
00
3C
20
50
48
44
43
23
3E
04
08
30
ENDCHAR
STARTCHAR uni092D094D0930094D
ENCODING -1
SWIDTH 257 0
DWIDTH 5 0
BBX 8 13 0 0
BITMAP
C7
40
20
20
20
20
3F
22
22
04
08
10
20
ENDCHAR
STARTCHAR uni092E094D0930094D
ENCODING -1
SWIDTH 261 0
DWIDTH 5 0
BBX 8 13 0 0
BITMAP
FF
20
20
20
20
20
3F
22
22
04
08
10
20
ENDCHAR
STARTCHAR uni092F094D0930094D
ENCODING -1
SWIDTH 323 0
DWIDTH 6 0
BBX 9 14 0 -1
BITMAP
FF00
0800
0800
0800
0800
7000
4000
4000
4000
2080
1F00
0600
0C00
1000
ENDCHAR
STARTCHAR uni0935094D0930094D
ENCODING -1
SWIDTH 255 0
DWIDTH 5 0
BBX 8 14 0 -1
BITMAP
FE
00
00
38
20
40
40
40
40
23
3E
0C
18
30
ENDCHAR
STARTCHAR uni0938094D0930094D
ENCODING -1
SWIDTH 347 0
DWIDTH 7 0
BBX 9 13 0 0
BITMAP
FF80
0800
0800
0800
0800
1000
7F80
4080
2100
2200
1400
1000
0800
ENDCHAR
STARTCHAR uni0915093C094D0930094D
ENCODING -1
SWIDTH 518 0
DWIDTH 10 0
BBX 13 15 0 -2
BITMAP
FFF8
0100
0100
39F0
2108
4100
4100
4100
4100
6300
3D00
0900
1900
3000
0800
ENDCHAR
STARTCHAR uni0916093C094D0930094D
ENCODING -1
SWIDTH 466 0
DWIDTH 9 0
BBX 12 15 0 -2
BITMAP
FFF0
0800
0800
08C0
0900
0A00
7200
4200
2110
21E0
1040
0880
0C80
0100
0040
ENDCHAR
STARTCHAR uni0917093C094D0930094D
ENCODING -1
SWIDTH 264 0
DWIDTH 5 0
BBX 8 15 0 -2
BITMAP
FC
10
10
10
10
10
21
E2
04
04
08
10
20
00
08
ENDCHAR
STARTCHAR uni091C093C094D0930094D
ENCODING -1
SWIDTH 320 0
DWIDTH 6 0
BBX 9 15 0 -2
BITMAP
FF00
0000
0000
0000
7F00
0800
0400
0400
0400
0880
7900
0200
0400
0C00
4000
ENDCHAR
STARTCHAR uni0928093C094D0930094D
ENCODING -1
SWIDTH 247 0
DWIDTH 5 0
BBX 8 15 0 -2
BITMAP
FF
00
00
00
00
3F
41
42
46
04
08
10
20
00
08
ENDCHAR
STARTCHAR uni092B093C094D0930094D
ENCODING -1
SWIDTH 523 0
DWIDTH 10 0
BBX 14 15 -1 -2
BITMAP
FFFC
2080
2080
20F8
2084
2080
2080
1180
1E80
0280
0480
0880
1080
2000
0400
ENDCHAR
STARTCHAR uni092F093C094D0930094D
ENCODING -1
SWIDTH 323 0
DWIDTH 6 0
BBX 9 15 0 -2
BITMAP
FF00
0800
0800
0800
0800
7000
4000
4000
4000
2080
1F00
0600
0C00
1000
0600
ENDCHAR
STARTCHAR uni0915094D0915
ENCODING -1
SWIDTH 1255 0
DWIDTH 25 0
BBX 25 13 0 0
BITMAP
FFFFFF80
01004000
01004000
39F75E00
21086300
41084100
41084100
41084100
41084100
23084300
3D07CE00
01004000
01004000
ENDCHAR
STARTCHAR uni0915094D0916
ENCODING -1
SWIDTH 1256 0
DWIDTH 25 0
BBX 25 13 0 0
BITMAP
FFFFFF80
01010200
01010200
39F11A00
21192200
41092200
410E2200
41082200
41042200
23021E00
3D020200
01010200
01008200
ENDCHAR
STARTCHAR uni0915094D091A
ENCODING -1
SWIDTH 1086 0
DWIDTH 22 0
BBX 22 13 0 0
BITMAP
FFFFFC
010010
010010
39E010
211F90
410410
410410
410410
410410
230430
3D03D0
010010
010010
ENDCHAR
STARTCHAR uni0915094D091C
ENCODING -1
SWIDTH 1071 0
DWIDTH 21 0
BBX 22 13 0 0
BITMAP
FFFFFC
010010
010010
390010
21EFF0
410110
410110
410110
410110
230110
3D0110
011E10
010010
ENDCHAR
STARTCHAR uni0915094D091F
ENCODING -1
SWIDTH 984 0
DWIDTH 20 0
BBX 20 13 0 0
BITMAP
FFFFF0
010040
010040
39F040
210FC0
410800
411000
411000
411020
231020
3D0840
010FC0
010000
ENDCHAR
STARTCHAR uni0915094D0923
ENCODING -1
SWIDTH 1183 0
DWIDTH 24 0
BBX 24 13 0 0
BITMAP
FFFFFF
010884
010884
390884
21F884
410884
410884
410884
410704
230004
3D0004
010004
010004
ENDCHAR
STARTCHAR uni0915094D0924
ENCODING -1
SWIDTH 761 0
DWIDTH 15 0
BBX 16 13 0 0
BITMAP
FFFF
0080
0080
0080
7FF8
1084
2084
2084
2084
2084
108C
1CB8
0080
ENDCHAR
STARTCHAR uni0915094D0925
ENCODING -1
SWIDTH 1118 0
DWIDTH 22 0
BBX 23 13 0 0
BITMAP
FFE70E
010888
010888
390088
210088
41FF08
410808
410808
410818
230818
3D07E8
010008
010008
ENDCHAR
STARTCHAR uni0915094D0926
ENCODING -1
SWIDTH 1009 0
DWIDTH 20 0
BBX 20 13 0 0
BITMAP
FFFFF0
010040
010040
39F7C0
210800
410800
410800
410800
410820
230820
3D07E0
010020
010020
ENDCHAR
STARTCHAR uni0915094D092A
ENCODING -1
SWIDTH 1007 0
DWIDTH 20 0
BBX 20 13 0 0
BITMAP
FFFFF0
010840
010840
390840
21F840
410840
410840
410840
4107C0
230040
3D0040
010040
010040
ENDCHAR
STARTCHAR uni0915094D092B
ENCODING -1
SWIDTH 1242 0
DWIDTH 25 0
BBX 25 13 0 0
BITMAP
FFFFFF80
01084000
01084000
39085C00
21F86200
41084100
41084100
41084100
4107C100
23004200
3D004C00
01004000
01004000
ENDCHAR
STARTCHAR uni0915094D092E
ENCODING -1
SWIDTH 994 0
DWIDTH 20 0
BBX 20 13 0 0
BITMAP
FFFFF0
010840
010840
390840
21F840
410840
410FC0
410840
410840
230040
3D0040
010040
010040
ENDCHAR
STARTCHAR uni0915094D092F
ENCODING -1
SWIDTH 1076 0
DWIDTH 22 0
BBX 22 13 0 0
BITMAP
FFFFFC
010210
010110
390210
21FE10
410810
410810
410810
410810
230830
3D07D0
010010
010010
ENDCHAR
STARTCHAR uni0915094D0932
ENCODING -1
SWIDTH 1178 0
DWIDTH 24 0
BBX 24 13 0 0
BITMAP
FFFFFF
010004
010004
39F004
210F74
41088C
411084
411084
411084
231004
3D0804
010704
010004
ENDCHAR
STARTCHAR uni0915094D0935
ENCODING -1
SWIDTH 1013 0
DWIDTH 20 0
BBX 21 13 0 0
BITMAP
FFFFF8
010040
010040
39F740
210840
410840
410840
410840
410840
230840
3D07C0
010040
010040
ENDCHAR
STARTCHAR uni0915094D0936
ENCODING -1
SWIDTH 1194 0
DWIDTH 24 0
BBX 24 13 0 0
BITMAP
FFF3C7
010444
010444
39F044
210844
410844
410F84
410404
410404
230204
3D0104
010104
010084
ENDCHAR
STARTCHAR uni0915094D0938
ENCODING -1
SWIDTH 1143 0
DWIDTH 23 0
BBX 23 13 0 0
BITMAP
FFFFFE
010108
010108
39F108
210908
410908
410FF8
410C08
410408
230208
3D0208
010108
010108
ENDCHAR
STARTCHAR uni0916094D0916
ENCODING -1
SWIDTH 1223 0
DWIDTH 24 0
BBX 25 13 0 0
BITMAP
FFFFFF80
08010200
08010200
09C13200
09014200
0A024200
721E4200
42084200
21184600
31E43A00
10020200
08020200
0C010200
ENDCHAR
STARTCHAR uni0916094D0924
ENCODING -1
SWIDTH 984 0
DWIDTH 20 0
BBX 20 13 0 0
BITMAP
FFFFF0
080040
080040
09C040
090FC0
0A1040
721040
421040
211040
21F040
101040
081840
0C0E40
ENDCHAR
STARTCHAR uni0916094D092E
ENCODING -1
SWIDTH 965 0
DWIDTH 19 0
BBX 20 13 0 0
BITMAP
FFFFF0
081080
081080
09D080
091080
0A1080
721F80
421080
211080
30E080
100080
080080
0C0080
ENDCHAR
STARTCHAR uni0916094D092F
ENCODING -1
SWIDTH 1047 0
DWIDTH 21 0
BBX 21 13 0 0
BITMAP
FFFFF8
080220
080220
09C220
090220
0A1C20
721020
421020
211020
31E860
1007A0
080020
0C0020
ENDCHAR
STARTCHAR uni0916094D0935
ENCODING -1
SWIDTH 975 0
DWIDTH 20 0
BBX 20 13 0 0
BITMAP
FFFFF0
080040
080040
08CE40
091840
0A1040
721040
421040
221040
3118C0
10EF40
080040
0C0040
ENDCHAR
STARTCHAR uni0916094D0936
ENCODING -1
SWIDTH 1123 0
DWIDTH 22 0
BBX 23 13 0 0
BITMAP
FFCF0E
080888
080888
09C088
090088
0A0088
723F08
421008
211008
31E808
100408
080408
0C0208
ENDCHAR
STARTCHAR uni0917094D0917
ENCODING -1
SWIDTH 744 0
DWIDTH 15 0
BBX 15 13 0 0
BITMAP
FFFE
1088
1088
1088
1088
1088
2108
E708
0008
0008
0008
0008
0008
ENDCHAR
STARTCHAR uni0917094D0918
ENCODING -1
SWIDTH 823 0
DWIDTH 16 0
BBX 17 13 0 0
BITMAP
FFFF80
110200
110200
110200
110200
10E200
210200
E10200
010200
010600
00FA00
000200
000200
ENDCHAR
STARTCHAR uni0917094D091C
ENCODING -1
SWIDTH 801 0
DWIDTH 16 0
BBX 16 13 0 0
BITMAP
FFFF
1004
1004
1004
13FC
1044
2024
E024
0024
0024
0044
03C4
0004
ENDCHAR
STARTCHAR uni0917094D0923
ENCODING -1
SWIDTH 945 0
DWIDTH 19 0
BBX 19 13 0 0
BITMAP
FFFFE0
110880
110880
110880
110880
110880
210880
E11080
00F080
000080
000080
000080
000080
ENDCHAR
STARTCHAR uni0917094D0926
ENCODING -1
SWIDTH 748 0
DWIDTH 15 0
BBX 15 13 0 0
BITMAP
FFFE
1008
1008
10F8
1100
1100
2100
E100
0108
0108
00F8
0008
0008
ENDCHAR
STARTCHAR uni0917094D0927
ENCODING -1
SWIDTH 823 0
DWIDTH 16 0
BBX 17 13 0 0
BITMAP
FFCF80
110200
110200
110200
110200
10E200
210200
E10200
010200
010200
010600
00FA00
000200
ENDCHAR
STARTCHAR uni0917094D092C
ENCODING -1
SWIDTH 755 0
DWIDTH 15 0
BBX 15 13 0 0
BITMAP
FFFE
1008
1008
10E8
1108
1188
2148
E138
0118
0108
00F8
0008
0008
ENDCHAR
STARTCHAR uni0917094D092D
ENCODING -1
SWIDTH 755 0
DWIDTH 15 0
BBX 15 13 0 0
BITMAP
FE3E
1108
1108
1108
1108
1108
21F8
E108
0108
0008
0008
0008
0008
ENDCHAR
STARTCHAR uni0917094D092E
ENCODING -1
SWIDTH 754 0
DWIDTH 15 0
BBX 15 13 0 0
BITMAP
FFFE
1108
1108
1108
1108
1108
21F8
E108
0108
0008
0008
0008
0008
ENDCHAR
STARTCHAR uni0917094D092F
ENCODING -1
SWIDTH 828 0
DWIDTH 17 0
BBX 17 13 0 0
BITMAP
FFFF80
104200
102200
102200
104200
11C200
210200
E10200
010200
010600
00FA00
000200
000200
ENDCHAR
STARTCHAR uni0917094D0932
ENCODING -1
SWIDTH 924 0
DWIDTH 18 0
BBX 19 13 0 0
BITMAP
FFFFE0
100080
100080
100080
11EE80
111180
221080
E21080
020080
020080
010080
01E080
000080
ENDCHAR
STARTCHAR uni0917094D0935
ENCODING -1
SWIDTH 747 0
DWIDTH 15 0
BBX 15 13 0 0
BITMAP
FFFE
1008
1008
10E8
1108
1108
2108
E108
0108
0108
00F8
0008
0008
ENDCHAR
STARTCHAR uni0917094D0938
ENCODING -1
SWIDTH 839 0
DWIDTH 17 0
BBX 17 13 0 0
BITMAP
FFFF80
104200
104200
104200
104200
104200
23FE00
E20200
010200
018200
008200
004200
004200
ENDCHAR
STARTCHAR uni0918094D092E
ENCODING -1
SWIDTH 818 0
DWIDTH 16 0
BBX 17 13 0 0
BITMAP
FFFF80
208200
408200
408200
208200
1C8200
20FE00
408200
408200
208200
3F0200
000200
000200
ENDCHAR
STARTCHAR uni0918094D092F
ENCODING -1
SWIDTH 867 0
DWIDTH 17 0
BBX 18 13 0 0
BITMAP
FFFFC0
202100
402100
402100
202100
3DC100
210100
410100
410300
208300
3F7D00
000100
000100
ENDCHAR
STARTCHAR uni091A094D091A
ENCODING -1
SWIDTH 868 0
DWIDTH 17 0
BBX 18 13 0 0
BITMAP
FFFFC0
000100
000100
000100
FDF900
304100
208100
208100
208100
30C300
1F7D00
000100
000100
ENDCHAR
STARTCHAR uni091A094D091B
ENCODING -1
SWIDTH 922 0
DWIDTH 18 0
BBX 19 12 0 1
BITMAP
FFFFE0
004100
008100
008100
FC8700
304080
203080
204080
208080
308080
1FC080
007F00
ENDCHAR
STARTCHAR uni091A094D092E
ENCODING -1
SWIDTH 830 0
DWIDTH 17 0
BBX 17 13 0 0
BITMAP
FFFF80
008200
008200
008200
FC8200
30FE00
208200
208200
208200
308200
1F0200
000200
000200
ENDCHAR
STARTCHAR uni091A094D092F
ENCODING -1
SWIDTH 904 0
DWIDTH 18 0
BBX 18 13 0 0
BITMAP
FFFFC0
001100
001100
001100
FC1100
30E100
208100
208100
208100
30C100
1F3F00
000100
000100
ENDCHAR
STARTCHAR uni091B094D092F
ENCODING -1
SWIDTH 1068 0
DWIDTH 21 0
BBX 22 13 0 0
BITMAP
FFFFFC
200010
200010
21FE10
204110
204110
184110
204E10
204830
204830
2047D0
3F8010
000010
ENDCHAR
STARTCHAR uni091B094D0935
ENCODING -1
SWIDTH 581 0
DWIDTH 12 0
BBX 12 15 0 -2
BITMAP
FFF0
2040
2040
2180
2040
1840
2040
2040
2040
2040
1FC0
2040
2040
2080
1F00
ENDCHAR
STARTCHAR uni091C094D0915
ENCODING -1
SWIDTH 1054 0
DWIDTH 21 0
BBX 21 13 0 0
BITMAP
FFFFF8
000400
000400
0075E0
7F8630
088410
048410
048410
048410
048430
087CE0
700400
000400
ENDCHAR
STARTCHAR uni091C094D091C
ENCODING -1
SWIDTH 903 0
DWIDTH 18 0
BBX 18 13 0 0
BITMAP
FFFFC0
000100
000100
000100
7F7F00
081100
040900
040900
040900
040900
081100
79F100
000100
ENDCHAR
STARTCHAR uni091C094D091D
ENCODING -1
SWIDTH 990 0
DWIDTH 20 0
BBX 20 14 0 -1
BITMAP
FFFFF0
000440
000440
007C40
7F8040
088040
048040
047FC0
040440
048440
088440
70F840
008040
008000
ENDCHAR
STARTCHAR uni091C094D091F
ENCODING -1
SWIDTH 815 0
DWIDTH 16 0
BBX 17 12 0 1
BITMAP
FFFF80
000400
000400
000400
7F7C00
088000
088000
088000
088200
088200
088200
F07C00
ENDCHAR
STARTCHAR uni091C094D0921
ENCODING -1
SWIDTH 797 0
DWIDTH 16 0
BBX 16 13 0 0
BITMAP
FFFF
0004
0004
007C
7F80
0880
0880
087C
0802
0802
0882
F086
007C
ENDCHAR
STARTCHAR uni091C094D0924
ENCODING -1
SWIDTH 830 0
DWIDTH 17 0
BBX 17 13 0 0
BITMAP
FFFF80
000200
000200
000200
7FFE00
088200
088200
088200
088200
088200
088200
F08200
006200
ENDCHAR
STARTCHAR uni091C094D0926
ENCODING -1
SWIDTH 817 0
DWIDTH 16 0
BBX 17 13 0 0
BITMAP
FFFF80
000200
000200
007E00
7F8000
088000
048000
048000
048200
048200
087E00
700200
000200
ENDCHAR
STARTCHAR uni091C094D092C
ENCODING -1
SWIDTH 820 0
DWIDTH 16 0
BBX 17 13 0 0
BITMAP
FFFF80
000200
000200
007200
7FC200
08A200
049200
048A00
048600
048600
087A00
700200
000200
ENDCHAR
STARTCHAR uni091C094D092E
ENCODING -1
SWIDTH 813 0
DWIDTH 16 0
BBX 17 13 0 0
BITMAP
FFFF80
008400
008400
008400
7F8400
088400
04FC00
048400
048400
048400
080400
700400
000400
ENDCHAR
STARTCHAR uni091C094D092F
ENCODING -1
SWIDTH 893 0
DWIDTH 18 0
BBX 18 13 0 0
BITMAP
FFFFC0
001100
001100
001100
7F9100
08E100
088100
088100
088100
08C300
087D00
F00100
000100
ENDCHAR
STARTCHAR uni091C094D0935
ENCODING -1
SWIDTH 813 0
DWIDTH 16 0
BBX 17 13 0 0
BITMAP
FFFF80
000400
000400
007400
7F8400
088400
048400
048400
048400
048400
087C00
700400
000400
ENDCHAR
STARTCHAR uni091D094D092E
ENCODING -1
SWIDTH 936 0
DWIDTH 19 0
BBX 19 14 0 -1
BITMAP
FFFFE0
022080
022080
3E2080
202080
402080
203F80
3FE080
012080
412080
610080
5E0080
400080
400000
ENDCHAR
STARTCHAR uni091D094D092F
ENCODING -1
SWIDTH 1000 0
DWIDTH 20 0
BBX 20 14 0 -1
BITMAP
FFFFF0
020440
020440
3E0440
200440
403840
202040
3FE040
012040
413040
611FC0
5E0040
400040
400000
ENDCHAR
STARTCHAR uni091E094D091B
ENCODING -1
SWIDTH 913 0
DWIDTH 18 0
BBX 19 12 0 1
BITMAP
FFFFE0
008100
008100
788100
0C8700
044080
07F080
048080
048080
088080
788180
007F00
ENDCHAR
STARTCHAR uni091E094D091C
ENCODING -1
SWIDTH 932 0
DWIDTH 19 0
BBX 19 13 0 0
BITMAP
FFFFE0
000080
000080
000080
787F80
040880
040880
070880
040880
040880
780880
00F080
000080
ENDCHAR
STARTCHAR uni091E094D0936
ENCODING -1
SWIDTH 975 0
DWIDTH 20 0
BBX 20 13 0 0
BITMAP
FE3870
004440
004440
784440
040440
040440
07F840
044040
044040
042040
782040
001040
000840
ENDCHAR
STARTCHAR uni091F094D091F
ENCODING -1
SWIDTH 494 0
DWIDTH 10 0
BBX 10 19 0 -6
BITMAP
FFC0
0100
0100
3F00
2000
4000
4000
4080
2100
3F00
0100
0100
3F00
2000
4000
4080
4080
2100
3F00
ENDCHAR
STARTCHAR uni091F094D0920
ENCODING -1
SWIDTH 495 0
DWIDTH 10 0
BBX 10 19 0 -6
BITMAP
FFC0
0100
0100
3F00
2000
4000
4000
4080
2100
3F00
0100
0100
3E00
2100
4080
4080
4080
2100
1F00
ENDCHAR
STARTCHAR uni091F094D092F
ENCODING -1
SWIDTH 990 0
DWIDTH 20 0
BBX 20 13 0 0
BITMAP
FFFFF0
010040
010040
010040
3FFC40
200440
400240
400440
409C40
409040
2190C0
3F0F40
000040
ENDCHAR
STARTCHAR uni091F094D0935
ENCODING -1
SWIDTH 501 0
DWIDTH 10 0
BBX 10 15 0 -2
BITMAP
FFC0
0100
0100
1F00
2000
4000
4000
4080
4080
2180
1F00
2100
2100
2100
3E00
ENDCHAR
STARTCHAR uni0920094D092F
ENCODING -1
SWIDTH 998 0
DWIDTH 20 0
BBX 20 13 0 0
BITMAP
FFFFF0
010040
010040
010040
3E7C40
218440
408240
408440
409C40
409040
2110C0
3F0FC0
000040
ENDCHAR
STARTCHAR uni0921094D0921
ENCODING -1
SWIDTH 493 0
DWIDTH 10 0
BBX 10 19 0 -6
BITMAP
FFC0
0100
0100
3F00
2000
6000
3F00
0100
4100
4100
2100
3E00
2000
6000
3F00
0100
4100
2100
3F00
ENDCHAR
STARTCHAR uni0921094D0922
ENCODING -1
SWIDTH 493 0
DWIDTH 10 0
BBX 10 18 0 -5
BITMAP
FFC0
0100
0100
3F00
2000
4000
2000
3F00
0100
4100
2100
3F00
2000
4700
4480
4480
2080
3F00
ENDCHAR
STARTCHAR uni0921094D092F
ENCODING -1
SWIDTH 973 0
DWIDTH 19 0
BBX 20 13 0 0
BITMAP
FFFFF0
010040
010040
3FF840
200440
400440
200440
3E3840
012040
012040
4110C0
410F40
3E0040
ENDCHAR
STARTCHAR uni0921094D0935
ENCODING -1
SWIDTH 493 0
DWIDTH 10 0
BBX 10 16 0 -3
BITMAP
FFC0
0100
0100
3F00
2000
6000
3F00
0100
4100
4100
2100
3F00
2100
2100
2100
1E00
ENDCHAR
STARTCHAR uni0922094D092F
ENCODING -1
SWIDTH 981 0
DWIDTH 20 0
BBX 20 13 0 0
BITMAP
FFFFF0
010040
010040
010040
3FF840
200440
400440
470440
44B840
44A040
2090C0
1F0F40
000040
ENDCHAR
STARTCHAR uni0923094D091F
ENCODING -1
SWIDTH 908 0
DWIDTH 18 0
BBX 18 12 0 1
BITMAP
FFFFC0
220100
220100
220100
221F00
222000
222000
222000
1C2080
002080
002080
001F00
ENDCHAR
STARTCHAR uni0923094D0920
ENCODING -1
SWIDTH 936 0
DWIDTH 19 0
BBX 19 12 0 1
BITMAP
FFFFE0
220100
220100
220100
221F00
222080
222080
222080
1C2080
002080
002080
001F00
ENDCHAR
STARTCHAR uni0923094D0921
ENCODING -1
SWIDTH 892 0
DWIDTH 18 0
BBX 18 13 0 0
BITMAP
FFFFC0
220100
220100
221F00
222000
222000
222000
221F00
1C0100
000080
002080
002100
001F00
ENDCHAR
STARTCHAR uni0923094D0922
ENCODING -1
SWIDTH 908 0
DWIDTH 18 0
BBX 18 12 0 1
BITMAP
FFFFC0
220100
220100
220100
221F00
222000
222000
222380
1C2480
002080
002080
001F00
ENDCHAR
STARTCHAR uni0923094D0923
ENCODING -1
SWIDTH 1127 0
DWIDTH 23 0
BBX 23 13 0 0
BITMAP
FFFFFE
221108
221108
221108
221108
221108
221108
221108
1C0E08
000008
000008
000008
000008
ENDCHAR
STARTCHAR uni0923094D092E
ENCODING -1
SWIDTH 932 0
DWIDTH 19 0
BBX 19 13 0 0
BITMAP
FFFFE0
222080
222080
222080
222080
222080
223F80
222080
1C2080
000080
000080
000080
000080
ENDCHAR
STARTCHAR uni0923094D092F
ENCODING -1
SWIDTH 998 0
DWIDTH 20 0
BBX 20 13 0 0
BITMAP
FFFFF0
220440
220440
220440
220440
223840
222040
222040
1C2040
0030C0
001F40
000040
000040
ENDCHAR
STARTCHAR uni0923094D0935
ENCODING -1
SWIDTH 923 0
DWIDTH 18 0
BBX 19 13 0 0
BITMAP
FFFFE0
220080
220080
221C80
222080
222080
222080
222080
1C2080
002180
001E80
000080
000080
ENDCHAR
STARTCHAR uni0924094D0915
ENCODING -1
SWIDTH 992 0
DWIDTH 20 0
BBX 20 13 0 0
BITMAP
FFFFF0
000800
000800
00EF80
3F0840
210820
410820
410820
410820
410840
40F980
200800
380800
ENDCHAR
STARTCHAR uni0924094D0916
ENCODING -1
SWIDTH 1014 0
DWIDTH 20 0
BBX 21 13 0 0
BITMAP
FFFFF8
002040
002040
002340
3E2440
212440
41E440
418440
408440
4043C0
404040
202040
381040
ENDCHAR
STARTCHAR uni0924094D0924
ENCODING -1
SWIDTH 542 0
DWIDTH 11 0
BBX 11 13 0 0
BITMAP
FFE0
0080
0080
0080
7F80
1080
2080
2080
2080
2080
2080
1080
1C80
ENDCHAR
STARTCHAR uni0924094D0925
ENCODING -1
SWIDTH 869 0
DWIDTH 17 0
BBX 18 13 0 0
BITMAP
FCE1C0
011100
011100
001100
001100
3FE100
210100
410100
410300
410300
40FD00
200100
380100
ENDCHAR
STARTCHAR uni0924094D092A
ENCODING -1
SWIDTH 757 0
DWIDTH 15 0
BBX 15 13 0 0
BITMAP
FFFE
0108
0108
0108
3F08
2108
4108
4108
40F8
4008
4008
2008
3808
ENDCHAR
STARTCHAR uni0924094D092B
ENCODING -1
SWIDTH 992 0
DWIDTH 20 0
BBX 20 13 0 0
BITMAP
FFFFF0
010800
010800
010F80
3F0840
210820
410820
410820
40F820
400840
400980
200800
380800
ENDCHAR
STARTCHAR uni0924094D092E
ENCODING -1
SWIDTH 764 0
DWIDTH 15 0
BBX 16 13 0 0
BITMAP
FFFF
0108
0108
0108
3F08
2108
41F8
4108
4108
4008
4008
2008
3808
ENDCHAR
STARTCHAR uni0924094D092F
ENCODING -1
SWIDTH 830 0
DWIDTH 17 0
BBX 17 13 0 0
BITMAP
FFFF80
004200
002200
002200
004200
3FC200
210200
410200
410200
410600
40FA00
200200
380200
ENDCHAR
STARTCHAR uni0924094D0932
ENCODING -1
SWIDTH 957 0
DWIDTH 19 0
BBX 19 13 0 0
BITMAP
FFFFE0
000080
000080
000080
3EF780
211880
410880
410880
410880
410080
410080
20E080
380080
ENDCHAR
STARTCHAR uni0924094D0935
ENCODING -1
SWIDTH 751 0
DWIDTH 15 0
BBX 15 13 0 0
BITMAP
FFFE
0008
0008
00E8
3F08
2108
4108
4108
4108
4108
40F8
2008
3808
ENDCHAR
STARTCHAR uni0924094D0938
ENCODING -1
SWIDTH 876 0
DWIDTH 18 0
BBX 18 13 0 0
BITMAP
FFFFC0
002100
002100
002100
3E2100
224100
41FF00
410100
408100
408100
404100
204100
382100
ENDCHAR
STARTCHAR uni0925094D092F
ENCODING -1
SWIDTH 931 0
DWIDTH 19 0
BBX 18 13 1 0
BITMAP
39FFC0
482100
441100
441100
082100
F8E100
808100
808100
808100
418300
3E7D00
000100
000100
ENDCHAR
STARTCHAR uni0925094D0935
ENCODING -1
SWIDTH 862 0
DWIDTH 17 0
BBX 17 13 1 0
BITMAP
39FF80
480400
440400
447400
088400
F88400
808400
808400
808400
418400
3E7C00
000400
000400
ENDCHAR
STARTCHAR uni0926094D0917
ENCODING -1
SWIDTH 489 0
DWIDTH 10 0
BBX 10 15 0 -2
BITMAP
FFC0
0100
0100
1F00
2000
4000
4000
4100
4100
2100
1F00
0900
0900
1000
7000
ENDCHAR
STARTCHAR uni0926094D0918
ENCODING -1
SWIDTH 686 0
DWIDTH 14 0
BBX 14 14 0 -1
BITMAP
FFFC
0010
0010
01F0
0200
3C00
4400
4400
4410
3A10
43F0
4110
4210
3E00
ENDCHAR
STARTCHAR uni0926094D0926
ENCODING -1
SWIDTH 506 0
DWIDTH 10 0
BBX 10 14 0 -1
BITMAP
FFC0
0100
0100
3F00
2000
2000
2000
1C00
2000
2080
2180
3E80
0080
0080
ENDCHAR
STARTCHAR uni0926094D0927
ENCODING -1
SWIDTH 686 0
DWIDTH 14 0
BBX 14 14 0 -1
BITMAP
FFFC
0010
0010
03F0
0200
3400
4400
4400
4410
3A10
43F0
4110
4210
3E00
ENDCHAR
STARTCHAR uni0926094D092C
ENCODING -1
SWIDTH 481 0
DWIDTH 10 0
BBX 10 16 0 -3
BITMAP
FFC0
0100
0100
1F00
2000
4000
4000
4100
4100
2100
3F00
3100
2900
2500
2300
1E00
ENDCHAR
STARTCHAR uni0926094D092D
ENCODING -1
SWIDTH 499 0
DWIDTH 10 0
BBX 10 16 0 -3
BITMAP
FFC0
0100
0100
1F00
2000
4000
4100
4100
2100
1F00
6100
2100
1100
1F00
1100
1100
ENDCHAR
STARTCHAR uni0926094D092E
ENCODING -1
SWIDTH 706 0
DWIDTH 14 0
BBX 14 13 0 0
BITMAP
FFFC
0210
0210
3E10
6010
4010
4110
4310
3D10
01F0
0110
0110
0010
ENDCHAR
STARTCHAR uni0926094D092F
ENCODING -1
SWIDTH 583 0
DWIDTH 12 0
BBX 12 13 0 0
BITMAP
FFF0
0440
0440
3C40
2040
4040
2040
1840
2040
4040
20C0
3FC0
0040
ENDCHAR
STARTCHAR uni0926094D0935
ENCODING -1
SWIDTH 483 0
DWIDTH 10 0
BBX 10 16 0 -3
BITMAP
FFC0
0100
0100
1F00
2000
4000
4000
4100
4100
2100
1F00
2100
2100
2100
2100
1E00
ENDCHAR
STARTCHAR uni0927094D092E
ENCODING -1
SWIDTH 817 0
DWIDTH 16 0
BBX 17 13 0 0
BITMAP
F9FF80
208200
408200
408200
208200
1C8200
20FE00
408200
408200
208200
3F0200
000200
000200
ENDCHAR
STARTCHAR uni0927094D092F
ENCODING -1
SWIDTH 886 0
DWIDTH 18 0
BBX 18 13 0 0
BITMAP
F9FFC0
202100
401100
401100
203100
3CE100
208100
408100
408100
208300
3F7D00
000100
000100
ENDCHAR
STARTCHAR uni0927094D0935
ENCODING -1
SWIDTH 810 0
DWIDTH 16 0
BBX 16 13 0 0
BITMAP
F9FF
2004
4004
4074
2084
1C84
2084
4084
4084
2084
3F7C
0004
0004
ENDCHAR
STARTCHAR uni0928094D0915
ENCODING -1
SWIDTH 973 0
DWIDTH 19 0
BBX 20 13 0 0
BITMAP
FFFFF0
000800
000800
01CF80
030840
7E0840
420840
420840
420840
031840
01EB80
000800
000800
ENDCHAR
STARTCHAR uni0928094D091A
ENCODING -1
SWIDTH 820 0
DWIDTH 16 0
BBX 17 13 0 0
BITMAP
FFFF80
000200
000200
000200
03F200
008200
7D0200
410200
410200
408600
00FA00
000200
000200
ENDCHAR
STARTCHAR uni0928094D091B
ENCODING -1
SWIDTH 781 0
DWIDTH 16 0
BBX 16 12 0 1
BITMAP
FFFF
0204
0204
0204
0218
3E04
4384
4204
4204
0204
0204
01F8
ENDCHAR
STARTCHAR uni0928094D091F
ENCODING -1
SWIDTH 715 0
DWIDTH 14 0
BBX 15 12 0 1
BITMAP
FFFE
0010
0010
0010
01F0
7E00
4200
4200
4208
0208
0208
01F0
ENDCHAR
STARTCHAR uni0928094D0921
ENCODING -1
SWIDTH 705 0
DWIDTH 14 0
BBX 14 13 0 0
BITMAP
FFFC
0010
0010
01F0
0200
7E00
4200
41F0
4008
0008
0208
0208
01F0
ENDCHAR
STARTCHAR uni0928094D0924
ENCODING -1
SWIDTH 717 0
DWIDTH 14 0
BBX 15 13 0 0
BITMAP
FFFE
0008
0008
0008
01F8
7E08
4208
4208
4208
0208
0208
0208
0188
ENDCHAR
STARTCHAR uni0928094D0925
ENCODING -1
SWIDTH 804 0
DWIDTH 16 0
BBX 16 13 0 0
BITMAP
F1C7
0224
0224
0024
0024
7FC4
4404
4404
4204
0204
01FC
0004
0004
ENDCHAR
STARTCHAR uni0928094D0926
ENCODING -1
SWIDTH 724 0
DWIDTH 14 0
BBX 15 13 0 0
BITMAP
FFFE
0008
0008
01F8
0300
7E00
4200
4200
4208
0308
01F8
0008
0008
ENDCHAR
STARTCHAR uni0928094D0927
ENCODING -1
SWIDTH 753 0
DWIDTH 15 0
BBX 15 13 0 0
BITMAP
FFBE
0208
0408
0408
0208
7F88
4208
4408
4408
0408
0208
03F8
0008
ENDCHAR
STARTCHAR uni0928094D092A
ENCODING -1
SWIDTH 742 0
DWIDTH 15 0
BBX 15 13 0 0
BITMAP
FFFE
0208
0208
0208
0208
0208
7E08
4108
41F8
0008
0008
0008
0008
ENDCHAR
STARTCHAR uni0928094D092B
ENCODING -1
SWIDTH 970 0
DWIDTH 19 0
BBX 20 13 0 0
BITMAP
FFFFF0
020800
020800
020F80
020840
7E0840
420840
411840
41E840
000840
000B80
000800
000800
ENDCHAR
STARTCHAR uni0928094D092D
ENCODING -1
SWIDTH 739 0
DWIDTH 15 0
BBX 15 13 0 0
BITMAP
FE3E
0208
0108
0108
0108
0108
7FF8
4108
4108
0008
0008
0008
0008
ENDCHAR
STARTCHAR uni0928094D092E
ENCODING -1
SWIDTH 735 0
DWIDTH 15 0
BBX 15 13 0 0
BITMAP
FFFE
0208
0208
0208
0208
0208
7FF8
4208
4208
0008
0008
0008
0008
ENDCHAR
STARTCHAR uni0928094D092F
ENCODING -1
SWIDTH 801 0
DWIDTH 16 0
BBX 16 13 0 0
BITMAP
FFFF
0044
0044
0044
0044
7F84
4204
4204
4204
0104
00FC
0004
0004
ENDCHAR
STARTCHAR uni0928094D0935
ENCODING -1
SWIDTH 732 0
DWIDTH 15 0
BBX 15 13 0 0
BITMAP
FFFE
0008
0008
01C8
0308
7E08
4208
4208
4208
0118
01E8
0008
0008
ENDCHAR
STARTCHAR uni0928094D0938
ENCODING -1
SWIDTH 867 0
DWIDTH 17 0
BBX 18 13 0 0
BITMAP
FFFFC0
002100
002100
002100
002100
7E4100
43FF00
410100
018100
008100
004100
004100
002100
ENDCHAR
STARTCHAR uni0928094D0939
ENCODING -1
SWIDTH 714 0
DWIDTH 14 0
BBX 15 14 0 -1
BITMAP
FFFE
0008
0008
01F0
0200
7E00
4200
41F0
4308
0208
0208
0200
0300
01F8
ENDCHAR
STARTCHAR uni092A094D091F
ENCODING -1
SWIDTH 489 0
DWIDTH 10 0
BBX 10 13 0 0
BITMAP
FFC0
2100
2100
2100
2100
2100
1F00
2000
4000
4080
4080
2100
1F00
ENDCHAR
STARTCHAR uni092A094D0920
ENCODING -1
SWIDTH 506 0
DWIDTH 10 0
BBX 10 13 0 0
BITMAP
FFC0
2080
2080
2080
2100
2100
3F00
2100
4080
4080
4080
2100
1F00
ENDCHAR
STARTCHAR uni092A094D0924
ENCODING -1
SWIDTH 495 0
DWIDTH 10 0
BBX 10 13 0 0
BITMAP
FFC0
4100
4100
4100
4100
2100
3F00
2100
4100
4100
4100
2100
3900
ENDCHAR
STARTCHAR uni092A094D092A
ENCODING -1
SWIDTH 770 0
DWIDTH 15 0
BBX 16 13 0 0
BITMAP
FFFF
2104
2104
2104
2104
2104
2104
210C
1EF4
0004
0004
0004
0004
ENDCHAR
STARTCHAR uni092A094D092B
ENCODING -1
SWIDTH 1003 0
DWIDTH 20 0
BBX 20 13 0 0
BITMAP
FFFFF0
210800
210800
210BC0
210C60
210820
210820
210820
1EF820
000860
0009C0
000800
000800
ENDCHAR
STARTCHAR uni092A094D092E
ENCODING -1
SWIDTH 774 0
DWIDTH 15 0
BBX 16 13 0 0
BITMAP
FFFF
2104
2104
2104
2104
2104
21FC
2104
1F04
0104
0004
0004
0004
ENDCHAR
STARTCHAR uni092A094D092F
ENCODING -1
SWIDTH 855 0
DWIDTH 17 0
BBX 17 13 0 0
BITMAP
FFFF80
202200
202200
202200
202200
21C200
210200
210200
1F0200
008200
007E00
000200
000200
ENDCHAR
STARTCHAR uni092A094D0932
ENCODING -1
SWIDTH 960 0
DWIDTH 19 0
BBX 19 13 0 0
BITMAP
FFFFE0
200080
200080
200080
20F780
211880
210880
210880
1F0080
010080
010080
00E080
000080
ENDCHAR
STARTCHAR uni092A094D0935
ENCODING -1
SWIDTH 780 0
DWIDTH 16 0
BBX 16 13 0 0
BITMAP
FFFF
2004
2004
20E4
2184
2104
2104
2104
1F04
008C
00F4
0004
0004
ENDCHAR
STARTCHAR uni092A094D0938
ENCODING -1
SWIDTH 880 0
DWIDTH 18 0
BBX 18 13 0 0
BITMAP
FFFFC0
202100
202100
202100
202100
206100
21FF00
210100
1E8100
008100
004100
004100
002100
ENDCHAR
STARTCHAR uni092B094D091C
ENCODING -1
SWIDTH 1100 0
DWIDTH 22 0
BBX 22 13 0 0
BITMAP
FFFFFC
210010
210010
210010
21F7F0
210110
210090
210090
1F0090
010090
010110
011F10
010010
ENDCHAR
STARTCHAR uni092B094D091F
ENCODING -1
SWIDTH 1006 0
DWIDTH 20 0
BBX 20 13 0 0
BITMAP
FFFFF0
210040
210040
21F040
210FC0
210800
210800
210800
1F0820
010820
010820
0107C0
010000
ENDCHAR
STARTCHAR uni092B094D0924
ENCODING -1
SWIDTH 1034 0
DWIDTH 21 0
BBX 21 13 0 0
BITMAP
FFFFF8
210020
210020
21F020
210FE0
210820
210820
210820
1F0820
010820
010820
010C20
010720
ENDCHAR
STARTCHAR uni092B094D092A
ENCODING -1
SWIDTH 1021 0
DWIDTH 20 0
BBX 21 13 0 0
BITMAP
FFFFF8
210820
210820
210820
21F820
210820
210820
210860
1F07A0
010020
010020
010020
010020
ENDCHAR
STARTCHAR uni092B094D092B
ENCODING -1
SWIDTH 1256 0
DWIDTH 25 0
BBX 25 13 0 0
BITMAP
FFFFFF80
21084000
21084000
21085E00
21F86300
21084100
21084100
21084100
1F07C100
01004300
01004E00
01004000
01004000
ENDCHAR
STARTCHAR uni092B094D092F
ENCODING -1
SWIDTH 1120 0
DWIDTH 22 0
BBX 22 13 0 0
BITMAP
FFFFFC
210110
210110
210110
210110
21FE10
210810
210810
1F0810
010C30
0107D0
010010
010010
ENDCHAR
STARTCHAR uni092B094D0932
ENCODING -1
SWIDTH 1202 0
DWIDTH 24 0
BBX 24 13 0 0
BITMAP
FFFFFF
210004
210004
21F004
210F3C
2108C4
210844
210844
1F0844
010804
010804
010704
010004
ENDCHAR
STARTCHAR uni092B094D0936
ENCODING -1
SWIDTH 1211 0
DWIDTH 24 0
BBX 25 13 0 0
BITMAP
FFF3C780
21026400
21042400
21F42400
21082400
21084400
210FC400
21080400
1F040400
01020400
01020400
01010400
01008400
ENDCHAR
STARTCHAR uni092C094D091C
ENCODING -1
SWIDTH 883 0
DWIDTH 18 0
BBX 18 13 0 0
BITMAP
FFFFC0
000100
000100
3C0100
20FF00
501100
501100
481100
441100
421100
221100
1FE100
000100
ENDCHAR
STARTCHAR uni092C094D091D
ENCODING -1
SWIDTH 962 0
DWIDTH 19 0
BBX 20 15 0 -2
BITMAP
FFFFF0
000880
000880
3CF880
210080
510080
490080
45FF80
430880
210480
3E0480
008880
00F880
008000
008000
ENDCHAR
STARTCHAR uni092C094D0924
ENCODING -1
SWIDTH 786 0
DWIDTH 16 0
BBX 16 13 0 0
BITMAP
FFFF
0004
0004
3C04
20FC
5104
4904
4504
4304
2104
3F04
0184
00E4
ENDCHAR
STARTCHAR uni092C094D0926
ENCODING -1
SWIDTH 775 0
DWIDTH 16 0
BBX 16 13 0 0
BITMAP
FFFF
0004
0004
3CFC
2180
5100
4900
4500
4304
2184
3EFC
0004
0004
ENDCHAR
STARTCHAR uni092C094D0927
ENCODING -1
SWIDTH 844 0
DWIDTH 17 0
BBX 17 13 0 0
BITMAP
FFCF80
010200
010200
390200
210200
50E200
490200
450200
430200
210200
3E8600
00FA00
000200
ENDCHAR
STARTCHAR uni092C094D092C
ENCODING -1
SWIDTH 783 0
DWIDTH 16 0
BBX 16 13 0 0
BITMAP
FFFF
0004
0004
3CE4
2184
5144
4924
4514
430C
218C
3EF4
0004
0004
ENDCHAR
STARTCHAR uni092C094D092D
ENCODING -1
SWIDTH 764 0
DWIDTH 15 0
BBX 16 13 0 0
BITMAP
FE3F
0108
0108
3D08
2108
5108
49F8
4508
4308
2108
3E08
0008
0008
ENDCHAR
STARTCHAR uni092C094D092F
ENCODING -1
SWIDTH 852 0
DWIDTH 17 0
BBX 17 13 0 0
BITMAP
FFFF80
002200
002200
3C2200
202200
51C200
490200
450200
430200
218200
3E7E00
000200
000200
ENDCHAR
STARTCHAR uni092C094D0932
ENCODING -1
SWIDTH 961 0
DWIDTH 19 0
BBX 20 13 0 0
BITMAP
FFFFF0
000080
000080
3C0080
20F780
511880
490880
450880
430880
210080
3F0080
00E080
000080
ENDCHAR
STARTCHAR uni092C094D0935
ENCODING -1
SWIDTH 776 0
DWIDTH 16 0
BBX 16 13 0 0
BITMAP
FFFF
0004
0004
3CE4
2184
5104
4904
4504
4304
218C
3EF4
0004
0004
ENDCHAR
STARTCHAR uni092C094D0936
ENCODING -1
SWIDTH 926 0
DWIDTH 19 0
BBX 19 13 0 0
BITMAP
FC70E0
008880
008880
3C8880
200880
500880
49F080
458080
438080
214080
3E6080
002080
001080
ENDCHAR
STARTCHAR uni092C094D0938
ENCODING -1
SWIDTH 897 0
DWIDTH 18 0
BBX 18 13 0 0
BITMAP
FFFFC0
002100
002100
3C2100
202100
502100
49FF00
458100
438100
214100
3E4100
002100
002100
ENDCHAR
STARTCHAR uni092D094D092F
ENCODING -1
SWIDTH 827 0
DWIDTH 17 0
BBX 17 13 0 0
BITMAP
C7FF80
404200
202200
202200
204200
21C200
3F0200
210200
210200
010600
00FA00
000200
000200
ENDCHAR
STARTCHAR uni092D094D0932
ENCODING -1
SWIDTH 941 0
DWIDTH 19 0
BBX 19 13 0 0
BITMAP
C7FFE0
400080
200080
200080
20EF80
211880
3F1080
211080
211080
010080
010080
00E080
000080
ENDCHAR
STARTCHAR uni092D094D0935
ENCODING -1
SWIDTH 755 0
DWIDTH 15 0
BBX 15 13 0 0
BITMAP
C7FE
4008
2008
20E8
2108
2108
3F08
2108
2108
0108
00F8
0008
0008
ENDCHAR
STARTCHAR uni092E094D0924
ENCODING -1
SWIDTH 765 0
DWIDTH 15 0
BBX 16 13 0 0
BITMAP
FFFF
2008
2008
2008
20F8
2108
3F08
2108
2108
0108
0108
0108
00C8
ENDCHAR
STARTCHAR uni092E094D0926
ENCODING -1
SWIDTH 766 0
DWIDTH 15 0
BBX 16 13 0 0
BITMAP
FFFF
2004
2004
20FC
2100
2100
3F00
2100
2104
0104
00FC
0004
0004
ENDCHAR
STARTCHAR uni092E094D092A
ENCODING -1
SWIDTH 762 0
DWIDTH 15 0
BBX 16 13 0 0
BITMAP
FFFF
2108
2108
2108
2108
2108
3F08
2108
20F8
0008
0008
0008
0008
ENDCHAR
STARTCHAR uni092E094D092C
ENCODING -1
SWIDTH 768 0
DWIDTH 15 0
BBX 16 13 0 0
BITMAP
FFFF
2004
2004
20E4
2104
2184
3F44
2124
2114
010C
00F4
0004
0004
ENDCHAR
STARTCHAR uni092E094D092D
ENCODING -1
SWIDTH 768 0
DWIDTH 15 0
BBX 16 13 0 0
BITMAP
FE1F
2104
2104
2104
2104
2104
3FFC
2104
2104
0004
0004
0004
0004
ENDCHAR
STARTCHAR uni092E094D092E
ENCODING -1
SWIDTH 759 0
DWIDTH 15 0
BBX 15 13 0 0
BITMAP
FFFE
2108
2108
2108
2108
2108
3FF8
2108
2108
0008
0008
0008
0008
ENDCHAR
STARTCHAR uni092E094D092F
ENCODING -1
SWIDTH 834 0
DWIDTH 17 0
BBX 17 13 0 0
BITMAP
FFFF80
204200
202200
202200
206200
21C200
3F0200
210200
210200
010600
00FA00
000200
000200
ENDCHAR
STARTCHAR uni092E094D0932
ENCODING -1
SWIDTH 945 0
DWIDTH 19 0
BBX 19 13 0 0
BITMAP
FFFFE0
200080
200080
200080
20E780
211880
3F1080
211080
211080
010080
010080
00E080
000080
ENDCHAR
STARTCHAR uni092E094D0935
ENCODING -1
SWIDTH 761 0
DWIDTH 15 0
BBX 16 13 0 0
BITMAP
FFFF
2008
2008
20E8
2108
2108
3F08
2108
2108
0108
00F8
0008
0008
ENDCHAR
STARTCHAR uni092E094D0936
ENCODING -1
SWIDTH 884 0
DWIDTH 18 0
BBX 18 13 0 0
BITMAP
F8E1C0
211100
211100
211100
201100
201100
3FE100
210100
210100
208100
004100
004100
002100
ENDCHAR
STARTCHAR uni092E094D0938
ENCODING -1
SWIDTH 816 0
DWIDTH 16 0
BBX 17 13 0 0
BITMAP
FFFF80
204200
204200
204200
204200
208200
3FFE00
220200
230200
010200
008200
008200
004200
ENDCHAR
STARTCHAR uni092E094D0939
ENCODING -1
SWIDTH 758 0
DWIDTH 15 0
BBX 15 14 0 -1
BITMAP
FFFE
2008
2008
20F8
2100
2100
3F00
20F8
210C
0104
0104
0100
0180
00F8
ENDCHAR
STARTCHAR uni092F094D092F
ENCODING -1
SWIDTH 897 0
DWIDTH 18 0
BBX 18 13 0 0
BITMAP
FFFFC0
081100
081100
081100
081100
70E100
408100
408100
408100
20C300
1F7F00
000100
000100
ENDCHAR
STARTCHAR uni0930094D092F
ENCODING -1
SWIDTH 713 0
DWIDTH 14 0
BBX 15 13 0 0
BITMAP
FFFE
0110
0110
0110
8110
7E10
0810
0810
0810
0410
03F0
0010
0010
ENDCHAR
STARTCHAR uni0930094D0939
ENCODING -1
SWIDTH 619 0
DWIDTH 12 0
BBX 13 14 0 -1
BITMAP
FFF8
0020
0020
07E0
C400
7800
0C00
07C0
0420
0820
0820
0800
0400
07E0
ENDCHAR
STARTCHAR uni0932094D0915
ENCODING -1
SWIDTH 1182 0
DWIDTH 24 0
BBX 24 13 0 0
BITMAP
FFFFFF
000080
000080
000CF8
3DF084
222084
422084
422084
422084
401184
201EB8
3C0080
000080
ENDCHAR
STARTCHAR uni0932094D0916
ENCODING -1
SWIDTH 1195 0
DWIDTH 24 0
BBX 24 13 0 0
BITMAP
FFFFFF
000204
000204
000274
3DE244
222284
421C84
421084
420844
40087C
200404
3C0204
000204
ENDCHAR
STARTCHAR uni0932094D0917
ENCODING -1
SWIDTH 950 0
DWIDTH 19 0
BBX 19 13 0 0
BITMAP
FFFFE0
000880
000880
000880
3DC880
220880
420880
421080
422080
400080
200080
3C0080
000080
ENDCHAR
STARTCHAR uni0932094D091C
ENCODING -1
SWIDTH 1035 0
DWIDTH 21 0
BBX 21 13 0 0
BITMAP
FFFFF8
000020
000020
000020
3DDFE0
220220
420220
420220
420220
400220
200220
3C3C20
000020
ENDCHAR
STARTCHAR uni0932094D091F
ENCODING -1
SWIDTH 929 0
DWIDTH 19 0
BBX 19 12 0 1
BITMAP
FFFFE0
000100
000100
000100
3DFF00
223000
422000
422000
422040
402040
201080
3C1F00
ENDCHAR
STARTCHAR uni0932094D0920
ENCODING -1
SWIDTH 953 0
DWIDTH 19 0
BBX 19 12 0 1
BITMAP
FFFFE0
000080
000080
000180
3DDF00
223080
422040
422040
422040
402040
203080
3C1F00
ENDCHAR
STARTCHAR uni0932094D0921
ENCODING -1
SWIDTH 916 0
DWIDTH 18 0
BBX 19 13 0 0
BITMAP
FFFFE0
000100
000100
001F00
3DE000
222000
422000
421F00
400080
400080
202080
3C2080
001F00
ENDCHAR
STARTCHAR uni0932094D0922
ENCODING -1
SWIDTH 924 0
DWIDTH 18 0
BBX 19 12 0 1
BITMAP
FFFFE0
000100
000100
000100
3DDF00
223000
422000
422380
422280
402440
203080
3C1F80
ENDCHAR
STARTCHAR uni0932094D0924
ENCODING -1
SWIDTH 929 0
DWIDTH 19 0
BBX 19 13 0 0
BITMAP
FFFFE0
000080
000080
000080
3DFF80
222080
422080
422080
422080
402080
202080
3C2080
001880
ENDCHAR
STARTCHAR uni0932094D0925
ENCODING -1
SWIDTH 1061 0
DWIDTH 21 0
BBX 22 13 0 0
BITMAP
FFCE3C
001120
001120
001120
3DC120
222120
423E20
422020
421020
401020
200FE0
3C0020
000020
ENDCHAR
STARTCHAR uni0932094D0926
ENCODING -1
SWIDTH 939 0
DWIDTH 19 0
BBX 19 13 0 0
BITMAP
FFFFE0
000080
000080
000F80
3DF000
222000
422000
422000
422080
401080
201F80
3C0080
000080
ENDCHAR
STARTCHAR uni0932094D092A
ENCODING -1
SWIDTH 939 0
DWIDTH 19 0
BBX 19 13 0 0
BITMAP
FFFFE0
002080
002080
002080
3DE080
222080
422080
421080
401F80
400080
200080
3C0080
000080
ENDCHAR
STARTCHAR uni0932094D092B
ENCODING -1
SWIDTH 1176 0
DWIDTH 24 0
BBX 24 13 0 0
BITMAP
FFFFFF
002080
002080
0020F8
3DE084
222084
422084
421184
421E84
400084
2000B8
3C0080
000080
ENDCHAR
STARTCHAR uni0932094D092C
ENCODING -1
SWIDTH 949 0
DWIDTH 19 0
BBX 19 13 0 0
BITMAP
FFFFE0
000080
000080
000E80
3DD080
222880
422480
422280
422180
401080
200F80
3C0080
000080
ENDCHAR
STARTCHAR uni0932094D092D
ENCODING -1
SWIDTH 931 0
DWIDTH 19 0
BBX 19 13 0 0
BITMAP
FFE3E0
002080
002080
002080
3DE080
222080
423F80
422080
422080
400080
200080
3C0080
000080
ENDCHAR
STARTCHAR uni0932094D092E
ENCODING -1
SWIDTH 931 0
DWIDTH 19 0
BBX 19 13 0 0
BITMAP
FFFFE0
002080
002080
002080
3DE080
222080
423F80
422080
422080
400080
200080
3C0080
000080
ENDCHAR
STARTCHAR uni0932094D092F
ENCODING -1
SWIDTH 1033 0
DWIDTH 21 0
BBX 21 13 0 0
BITMAP
FFFFF8
000420
000220
1DE220
222620
421C20
421020
421020
401020
401060
200FA0
1C0020
000020
ENDCHAR
STARTCHAR uni0932094D0932
ENCODING -1
SWIDTH 1112 0
DWIDTH 22 0
BBX 23 13 0 0
BITMAP
FFFFFE
000010
000010
000010
3DDEF0
222310
422110
422110
422110
402010
202010
3C1C10
000010
ENDCHAR
STARTCHAR uni0932094D0935
ENCODING -1
SWIDTH 940 0
DWIDTH 19 0
BBX 19 13 0 0
BITMAP
FFFFE0
000080
000080
000E80
3DF080
222080
422080
422080
422080
401080
200F80
3C0080
000080
ENDCHAR
STARTCHAR uni0932094D0938
ENCODING -1
SWIDTH 1068 0
DWIDTH 21 0
BBX 22 13 0 0
BITMAP
FFFFFC
000210
000210
000210
3DE210
222410
421FF0
421010
420810
400810
200410
3C0410
000210
ENDCHAR
STARTCHAR uni0932094D0939
ENCODING -1
SWIDTH 922 0
DWIDTH 18 0
BBX 19 14 0 -1
BITMAP
FFFFE0
000080
000080
001F80
3DF000
222000
421000
420F00
421080
402080
202000
3C2000
001000
000F80
ENDCHAR
STARTCHAR uni0933094D092F
ENCODING -1
SWIDTH 1050 0
DWIDTH 21 0
BBX 21 13 0 0
BITMAP
FFFFF8
000220
000220
3DE220
231220
421C20
421020
421020
421020
231820
3DEFE0
000020
000020
ENDCHAR
STARTCHAR uni0935094D092F
ENCODING -1
SWIDTH 852 0
DWIDTH 17 0
BBX 17 13 0 0
BITMAP
FFFF80
002200
002200
3C2200
202200
41C200
410200
410200
410200
218200
3E7E00
000200
000200
ENDCHAR
STARTCHAR uni0935094D0932
ENCODING -1
SWIDTH 961 0
DWIDTH 19 0
BBX 20 13 0 0
BITMAP
FFFFF0
000080
000080
3CF780
219880
410880
410880
410880
410080
210080
3E8080
00E080
000080
ENDCHAR
STARTCHAR uni0935094D0935
ENCODING -1
SWIDTH 776 0
DWIDTH 16 0
BBX 16 13 0 0
BITMAP
FFFF
0004
0004
3CE4
2184
4104
4104
4104
4104
218C
3EF4
0004
0004
ENDCHAR
STARTCHAR uni0935094D0939
ENCODING -1
SWIDTH 754 0
DWIDTH 15 0
BBX 15 14 0 -1
BITMAP
FFFE
0008
0008
3CF8
2100
4100
4100
40F8
4108
2104
3F00
0100
0100
00F8
ENDCHAR
STARTCHAR uni0936094D0915
ENCODING -1
SWIDTH 1093 0
DWIDTH 22 0
BBX 21 13 1 0
BITMAP
79FFF8
440400
840400
8477C0
048620
088410
F88410
808410
408410
208420
207CC0
100400
180400
ENDCHAR
STARTCHAR uni0936094D091A
ENCODING -1
SWIDTH 950 0
DWIDTH 19 0
BBX 18 13 1 0
BITMAP
79FFC0
440100
840100
840100
05F900
084100
F84100
804100
404100
204100
203F00
100100
180100
ENDCHAR
STARTCHAR uni0936094D091B
ENCODING -1
SWIDTH 968 0
DWIDTH 19 0
BBX 19 13 1 0
BITMAP
79FFE0
4CC100
848100
848100
048700
084080
F87080
80C080
408080
608080
20C180
107F00
180000
ENDCHAR
STARTCHAR uni0936094D091F
ENCODING -1
SWIDTH 854 0
DWIDTH 17 0
BBX 16 13 1 0
BITMAP
79FF
4404
8404
8404
047C
0880
F880
8080
4082
2082
2082
107C
1800
ENDCHAR
STARTCHAR uni0936094D0924
ENCODING -1
SWIDTH 864 0
DWIDTH 17 0
BBX 17 13 1 0
BITMAP
79FF80
440400
840400
840400
047C00
088400
F88400
808400
408400
208400
208400
108400
186400
ENDCHAR
STARTCHAR uni0936094D092E
ENCODING -1
SWIDTH 885 0
DWIDTH 18 0
BBX 17 13 1 0
BITMAP
79FF80
448200
848200
848200
048200
088200
F8FE00
808200
408200
200200
200200
100200
180200
ENDCHAR
STARTCHAR uni0936094D092F
ENCODING -1
SWIDTH 940 0
DWIDTH 19 0
BBX 18 13 1 0
BITMAP
79FFC0
441100
841100
841100
041100
08E100
F88100
808100
408100
208300
207D00
100100
180100
ENDCHAR
STARTCHAR uni0936094D0932
ENCODING -1
SWIDTH 1039 0
DWIDTH 21 0
BBX 20 13 1 0
BITMAP
79FFF0
440040
840040
840040
0477C0
088C40
F88840
808840
408040
208040
208040
107040
180040
ENDCHAR
STARTCHAR uni0936094D0935
ENCODING -1
SWIDTH 850 0
DWIDTH 17 0
BBX 16 13 1 0
BITMAP
79FF
4404
8404
8474
0484
0884
F884
8084
4084
2084
207C
1004
1804
ENDCHAR
STARTCHAR uni0936094D0936
ENCODING -1
SWIDTH 1009 0
DWIDTH 20 0
BBX 19 13 1 0
BITMAP
7878E0
444880
848480
848480
040480
080880
F8F880
808080
404080
206080
202080
101080
181880
ENDCHAR
STARTCHAR uni0937094D0915
ENCODING -1
SWIDTH 1039 0
DWIDTH 21 0
BBX 21 13 0 0
BITMAP
FFFFF8
200400
300400
2877C0
248420
230410
210410
210410
1F0410
008420
007DC0
000400
000400
ENDCHAR
STARTCHAR uni0937094D091F
ENCODING -1
SWIDTH 493 0
DWIDTH 10 0
BBX 10 13 0 0
BITMAP
FFC0
2100
3100
2D00
2300
2100
3F00
2000
4000
4080
4080
2180
1F00
ENDCHAR
STARTCHAR uni0937094D0920
ENCODING -1
SWIDTH 511 0
DWIDTH 10 0
BBX 11 13 0 0
BITMAP
FFE0
5F80
3F80
3F80
3F80
3F00
3F00
2080
4080
4080
4080
2180
1F00
ENDCHAR
STARTCHAR uni0937094D0923
ENCODING -1
SWIDTH 980 0
DWIDTH 20 0
BBX 20 13 0 0
BITMAP
FFFFF0
208840
308840
288840
248840
228840
218840
218840
1E7040
000040
000040
000040
000040
ENDCHAR
STARTCHAR uni0937094D092A
ENCODING -1
SWIDTH 980 0
DWIDTH 20 0
BBX 20 13 0 0
BITMAP
FFFFF0
208840
308840
288840
248840
228840
218840
218840
1E7040
000040
000040
000040
000040
ENDCHAR
STARTCHAR uni0937094D092B
ENCODING -1
SWIDTH 1036 0
DWIDTH 21 0
BBX 21 13 0 0
BITMAP
FFFFF8
208400
308400
2887C0
248420
228420
228420
218420
1E7C20
000420
0005C0
000400
000400
ENDCHAR
STARTCHAR uni0937094D092E
ENCODING -1
SWIDTH 791 0
DWIDTH 16 0
BBX 16 13 0 0
BITMAP
FFFF
2084
3084
2884
2484
2484
22FC
2184
1E84
0004
0004
0004
0004
ENDCHAR
STARTCHAR uni0937094D092F
ENCODING -1
SWIDTH 877 0
DWIDTH 18 0
BBX 18 13 0 0
BITMAP
FFFFC0
202100
301100
281100
242100
22E100
228100
218100
1E8100
008300
007D00
000100
000100
ENDCHAR
STARTCHAR uni0937094D0935
ENCODING -1
SWIDTH 802 0
DWIDTH 16 0
BBX 16 13 0 0
BITMAP
FFFF
2004
3004
2874
2484
2284
2184
2184
1E84
0084
007C
0004
0004
ENDCHAR
STARTCHAR uni0937094D0937
ENCODING -1
SWIDTH 804 0
DWIDTH 16 0
BBX 16 13 0 0
BITMAP
FFFF
2084
30C4
28A4
2494
228C
2184
2184
1E7C
0004
0004
0004
0004
ENDCHAR
STARTCHAR uni0938094D0915
ENCODING -1
SWIDTH 1089 0
DWIDTH 22 0
BBX 22 13 0 0
BITMAP
FFFFFC
080200
080200
083BE0
084210
108208
7F8208
408208
204208
204210
103EE0
100200
080200
ENDCHAR
STARTCHAR uni0938094D0916
ENCODING -1
SWIDTH 990 0
DWIDTH 20 0
BBX 20 13 0 0
BITMAP
FFFFF0
082040
082040
082740
082440
102840
7FC840
410840
208440
2087C0
104040
102040
082040
ENDCHAR
STARTCHAR uni0938094D091C
ENCODING -1
SWIDTH 970 0
DWIDTH 19 0
BBX 20 13 0 0
BITMAP
FFFFF0
080040
080040
080040
083FC0
100440
7F8440
400440
200440
200440
100440
107840
080040
ENDCHAR
STARTCHAR uni0938094D091F
ENCODING -1
SWIDTH 844 0
DWIDTH 17 0
BBX 17 13 0 0
BITMAP
FFFF80
080200
080200
080200
083E00
104000
7FC000
408000
208100
204100
104300
103E00
080000
ENDCHAR
STARTCHAR uni0938094D0924
ENCODING -1
SWIDTH 852 0
DWIDTH 17 0
BBX 17 13 0 0
BITMAP
FFFF80
080200
080200
080200
087E00
104200
7F8200
408200
208200
208200
108200
104200
083200
ENDCHAR
STARTCHAR uni0938094D0925
ENCODING -1
SWIDTH 960 0
DWIDTH 19 0
BBX 19 13 0 0
BITMAP
FF38E0
084480
084480
084480
080480
100480
7FF880
404080
204080
204080
103F80
100080
080080
ENDCHAR
STARTCHAR uni0938094D0926
ENCODING -1
SWIDTH 851 0
DWIDTH 17 0
BBX 17 13 0 0
BITMAP
FFFF80
080200
080200
083E00
084000
104000
7FC000
404000
204100
204300
103D00
100100
080100
ENDCHAR
STARTCHAR uni0938094D092A
ENCODING -1
SWIDTH 857 0
DWIDTH 17 0
BBX 17 13 0 0
BITMAP
FFFF80
084200
084200
084200
084200
104200
7FC200
404200
203E00
200200
100200
100200
080200
ENDCHAR
STARTCHAR uni0938094D092B
ENCODING -1
SWIDTH 1092 0
DWIDTH 22 0
BBX 22 13 0 0
BITMAP
FFFFFC
084200
084200
0842E0
084310
104208
7FC208
404208
203E08
200210
100260
100200
080200
ENDCHAR
STARTCHAR uni0938094D092C
ENCODING -1
SWIDTH 857 0
DWIDTH 17 0
BBX 17 13 0 0
BITMAP
FFFF80
080200
080200
083A00
084200
106200
7FD200
404A00
204600
204200
103E00
100200
080200
ENDCHAR
STARTCHAR uni0938094D092E
ENCODING -1
SWIDTH 850 0
DWIDTH 17 0
BBX 17 13 0 0
BITMAP
FFFF80
084200
084200
084200
084200
104200
7FFE00
404200
204200
200200
100200
100200
080200
ENDCHAR
STARTCHAR uni0938094D092F
ENCODING -1
SWIDTH 920 0
DWIDTH 18 0
BBX 19 13 0 0
BITMAP
FFFFE0
081080
081080
081080
081080
10E080
7F8080
408080
204180
204180
103E80
100080
080080
ENDCHAR
STARTCHAR uni0938094D0932
ENCODING -1
SWIDTH 1027 0
DWIDTH 21 0
BBX 21 13 0 0
BITMAP
FFFFF8
080020
080020
080020
087BA0
104460
7F8420
408420
208420
208020
104020
103820
080020
ENDCHAR
STARTCHAR uni0938094D0935
ENCODING -1
SWIDTH 842 0
DWIDTH 17 0
BBX 17 13 0 0
BITMAP
FFFF80
080200
080200
083A00
084200
108200
7F8200
408200
208200
204200
103E00
100200
080200
ENDCHAR
STARTCHAR uni0938094D0938
ENCODING -1
SWIDTH 871 0
DWIDTH 17 0
BBX 18 13 0 0
BITMAP
FFFFC0
082100
082100
082100
082100
104100
7FFF00
410100
208100
208100
104100
104100
082100
ENDCHAR
STARTCHAR uni0939094D0923
ENCODING -1
SWIDTH 1136 0
DWIDTH 23 0
BBX 23 18 0 -5
BITMAP
FFFFFE
011088
011088
3F1088
201088
201088
201088
1E1108
210F08
210008
400008
200008
200008
1F0000
000000
040000
020000
010000
ENDCHAR
STARTCHAR uni0939094D092E
ENCODING -1
SWIDTH 746 0
DWIDTH 15 0
BBX 15 15 0 -2
BITMAP
FFFE
0108
0108
3F08
2008
4008
2008
1F08
2108
41F8
4108
4108
4108
2008
1F00
ENDCHAR
STARTCHAR uni0939094D092F
ENCODING -1
SWIDTH 785 0
DWIDTH 16 0
BBX 16 15 0 -2
BITMAP
FFFF
0104
0104
3F04
2004
4004
2004
1FC4
2044
4044
43C4
4204
4104
210C
1EF4
ENDCHAR
STARTCHAR uni0939094D0932
ENCODING -1
SWIDTH 1110 0
DWIDTH 22 0
BBX 22 18 0 -5
BITMAP
FFFFFC
010010
010010
3F1EF0
202310
202110
202110
1E2110
212110
412010
403010
201C10
1F0000
000000
040000
040000
020000
030000
ENDCHAR
STARTCHAR uni0939094D0935
ENCODING -1
SWIDTH 920 0
DWIDTH 18 0
BBX 19 18 0 -5
BITMAP
FFFFE0
010080
010080
3F1C80
202080
202080
202080
1E2080
212080
212180
411E80
200080
200080
1F0000
000000
040000
020000
030000
ENDCHAR
STARTCHAR uni0915093C094D0915093C
ENCODING -1
SWIDTH 1275 0
DWIDTH 26 0
BBX 26 14 0 -1
BITMAP
FFFFFFC0
01002000
01002000
39F73E00
210C2100
41082100
41082100
41082100
41082100
23046100
3D07AE00
01002000
01002000
10020000
ENDCHAR
STARTCHAR uni0915093C094D0924
ENCODING -1
SWIDTH 1016 0
DWIDTH 20 0
BBX 21 14 0 -1
BITMAP
FFFFF8
010040
010040
39F040
210FC0
410840
410840
410840
410840
230840
3D0840
010840
010640
100000
ENDCHAR
STARTCHAR uni0915093C094D092B
ENCODING -1
SWIDTH 1246 0
DWIDTH 25 0
BBX 25 14 0 -1
BITMAP
FFFFFF80
01084000
01084000
39085E00
21F86200
41084100
41084100
41084100
4107C100
23004200
3D004E00
01004000
01004000
10000000
ENDCHAR
STARTCHAR uni0915093C094D092B093C
ENCODING -1
SWIDTH 1247 0
DWIDTH 25 0
BBX 25 14 0 -1
BITMAP
FFFFFF80
01084000
01084000
39085E00
21F86200
41084100
41084100
41084100
4107C100
23004200
3D004E00
01004000
01004000
10040000
ENDCHAR
STARTCHAR uni0915093C094D092C
ENCODING -1
SWIDTH 1043 0
DWIDTH 21 0
BBX 21 14 0 -1
BITMAP
FFFFF8
010020
010020
39F7A0
210C20
410A20
410920
4108A0
410860
230420
3D07E0
010020
010020
100000
ENDCHAR
STARTCHAR uni0915093C094D092E
ENCODING -1
SWIDTH 998 0
DWIDTH 20 0
BBX 20 14 0 -1
BITMAP
FFFFF0
010840
010840
390840
21F840
410840
410FC0
410840
410840
230040
3D0040
010040
010040
100000
ENDCHAR
STARTCHAR uni0916093C094D0924
ENCODING -1
SWIDTH 984 0
DWIDTH 20 0
BBX 20 14 0 -1
BITMAP
FFFFF0
080040
080040
09C040
090FC0
0A1040
721040
421040
211040
21F040
101040
081840
0C0E40
004000
ENDCHAR
STARTCHAR uni0916093C094D092E
ENCODING -1
SWIDTH 965 0
DWIDTH 19 0
BBX 20 14 0 -1
BITMAP
FFFFF0
081080
081080
09D080
091080
0A1080
721F80
421080
211080
20E080
100080
080080
0C0080
004000
ENDCHAR
STARTCHAR uni0916093C094D092F
ENCODING -1
SWIDTH 1045 0
DWIDTH 21 0
BBX 21 14 0 -1
BITMAP
FFFFF8
080220
080220
09C220
090220
0A1C20
721020
421020
211020
21E860
100FA0
080020
080020
044000
ENDCHAR
STARTCHAR uni0916093C094D0935
ENCODING -1
SWIDTH 972 0
DWIDTH 19 0
BBX 20 14 0 -1
BITMAP
FFFFF0
080040
080040
09CE40
091040
0A1040
721040
421040
211040
21F0C0
100F40
080040
080040
044000
ENDCHAR
STARTCHAR uni0916093C094D0936
ENCODING -1
SWIDTH 1123 0
DWIDTH 22 0
BBX 23 14 0 -1
BITMAP
FFCF0E
080888
080888
09C088
090088
0A0088
723F08
421008
211008
21E808
100C08
080408
080208
044000
ENDCHAR
STARTCHAR uni0916093C094D0938
ENCODING -1
SWIDTH 1066 0
DWIDTH 21 0
BBX 22 14 0 -1
BITMAP
FFFFFC
080210
080210
09C210
090210
0A0410
723FF0
421010
211010
21E810
100C10
080410
080210
044000
ENDCHAR
STARTCHAR uni091C093C094D091C093C
ENCODING -1
SWIDTH 934 0
DWIDTH 19 0
BBX 18 14 0 -1
BITMAP
FFFFC0
000100
000100
000100
7F7F00
081100
040900
040900
040900
040900
081100
79F100
000100
204000
ENDCHAR
STARTCHAR uni091C093C094D092F
ENCODING -1
SWIDTH 893 0
DWIDTH 18 0
BBX 18 14 0 -1
BITMAP
FFFFC0
001100
001100
001100
7F9100
08E100
088100
088100
088100
08C300
087D00
F00100
000100
200000
ENDCHAR
STARTCHAR uni092B093C094D091C093C
ENCODING -1
SWIDTH 1100 0
DWIDTH 22 0
BBX 22 14 0 -1
BITMAP
FFFFFC
210010
210010
210010
21F7F0
210110
210090
210090
1F0090
010090
010110
011F10
010010
200400
ENDCHAR
STARTCHAR uni092B093C094D0924
ENCODING -1
SWIDTH 1036 0
DWIDTH 21 0
BBX 21 14 0 -1
BITMAP
FFFFF8
210020
210020
21F020
210FE0
210820
210820
210820
1F0820
010820
010820
010C20
010720
200000
ENDCHAR
STARTCHAR uni092B093C094D092B093C
ENCODING -1
SWIDTH 1256 0
DWIDTH 25 0
BBX 25 14 0 -1
BITMAP
FFFFFF80
21084000
21084000
21085E00
21F86300
21084100
21084100
21084100
1F07C100
01004300
01004E00
01004000
01004000
20040000
ENDCHAR
STARTCHAR uni092B093C094D0938
ENCODING -1
SWIDTH 1141 0
DWIDTH 23 0
BBX 23 14 0 -1
BITMAP
FFFFFE
210108
210108
21F108
210908
210908
210FF8
210808
1F0408
010408
010208
010308
010108
200000
ENDCHAR
STARTCHAR uni092C094D091C093C
ENCODING -1
SWIDTH 883 0
DWIDTH 18 0
BBX 18 14 0 -1
BITMAP
FFFFC0
000100
000100
3C0100
20FF00
501100
501100
481100
441100
421100
221100
1FE100
000100
008000
ENDCHAR
STARTCHAR uni0932094D091C093C
ENCODING -1
SWIDTH 1062 0
DWIDTH 21 0
BBX 21 14 0 -1
BITMAP
FFFFF8
000020
000020
000020
3DDFE0
220220
420220
420220
420220
400220
200220
3C3C20
000020
001000
ENDCHAR
STARTCHAR uni0936094D0915093C
ENCODING -1
SWIDTH 1093 0
DWIDTH 22 0
BBX 21 14 1 -1
BITMAP
79FFF8
440400
840400
8475C0
048620
088410
F88410
808410
408410
608420
207CC0
100400
180400
004000
ENDCHAR
STARTCHAR uni0924094D0924094D
ENCODING -1
SWIDTH 309 0
DWIDTH 6 0
BBX 8 13 0 0
BITMAP
FF
00
00
00
7F
30
20
20
20
20
20
30
1C
ENDCHAR
STARTCHAR uni0928094D092D094D
ENCODING -1
SWIDTH 505 0
DWIDTH 10 0
BBX 12 9 0 4
BITMAP
FE30
0200
0200
0200
0200
7E00
43F0
4200
4200
ENDCHAR
STARTCHAR uni0928094D0938094D
ENCODING -1
SWIDTH 635 0
DWIDTH 13 0
BBX 15 13 0 0
BITMAP
FFFE
0020
0020
0020
0020
7E40
41FE
4100
0080
0080
0040
0040
0020
ENDCHAR
STARTCHAR uni092E094D092D094D
ENCODING -1
SWIDTH 533 0
DWIDTH 11 0
BBX 13 9 0 4
BITMAP
FE38
2100
2100
2100
2100
2100
3FF8
2100
2100
ENDCHAR
STARTCHAR uni0932094D092D094D
ENCODING -1
SWIDTH 694 0
DWIDTH 14 0
BBX 16 12 0 1
BITMAP
FFE3
0020
0020
0020
3DE0
2220
423F
4220
4220
4000
2000
3C00
ENDCHAR
STARTCHAR uni0938094D0924094D0930094D
ENCODING -1
SWIDTH 575 0
DWIDTH 12 0
BBX 14 13 0 0
BITMAP
FFF0
0800
0800
0800
08F8
1084
7F04
4004
2004
2018
1030
1040
0880
ENDCHAR
STARTCHAR uni0915094D0924094D092F
ENCODING -1
SWIDTH 1356 0
DWIDTH 27 0
BBX 27 13 0 0
BITMAP
FFFFFFE0
01000880
01000880
39F00880
21080880
410FF080
41084080
41084080
41084080
23082080
3D081F80
01080080
01060080
ENDCHAR
STARTCHAR uni0915094D0924094D0930
ENCODING -1
SWIDTH 997 0
DWIDTH 20 0
BBX 20 13 0 0
BITMAP
FFFFF0
010040
010040
39F040
210FC0
410840
411040
411040
410040
2301C0
3D0340
010440
010840
ENDCHAR
STARTCHAR uni0915094D0924094D0935
ENCODING -1
SWIDTH 1242 0
DWIDTH 25 0
BBX 25 13 0 0
BITMAP
FFFFFF80
01000200
01000200
39F07A00
210FC200
41188200
41108200
41108200
41108200
23104200
3D103E00
01180200
010E0200
ENDCHAR
STARTCHAR uni0915094D092A094D0930
ENCODING -1
SWIDTH 1007 0
DWIDTH 20 0
BBX 20 13 0 0
BITMAP
FFFFF0
010840
010840
390840
21F840
410840
410840
410840
4107C0
230140
3D0240
010440
010C40
ENDCHAR
STARTCHAR uni0915094D0935094D092F
ENCODING -1
SWIDTH 1384 0
DWIDTH 28 0
BBX 28 13 0 0
BITMAP
FFFFFFF0
01000840
01000440
39F70440
21080C40
41083840
41082040
41082040
41082040
230860C0
3D07DF40
01000040
01000040
ENDCHAR
STARTCHAR uni0915094D0938094D091F
ENCODING -1
SWIDTH 1376 0
DWIDTH 28 0
BBX 28 13 0 0
BITMAP
FFFFFFF0
01010080
01010080
39F10080
21090F80
41091800
410FF000
41041000
41041020
23021020
3D020840
01010F80
01018000
ENDCHAR
STARTCHAR uni0915094D0938094D0921
ENCODING -1
SWIDTH 1388 0
DWIDTH 28 0
BBX 28 13 0 0
BITMAP
FFFFFFF0
01010040
01010040
39F107C0
21090800
41090800
410FF800
41040FC0
41040040
23020020
3D020820
01010840
01018FC0
ENDCHAR
STARTCHAR uni0915094D0938094D0924
ENCODING -1
SWIDTH 1423 0
DWIDTH 28 0
BBX 29 13 0 0
BITMAP
FFFFFFF8
01010020
01010020
39F10020
210907E0
41090820
410FF820
41040820
41040820
23020820
3D020820
01010820
01018620
ENDCHAR
STARTCHAR uni0915094D0938094D092A094D0930
ENCODING -1
SWIDTH 1437 0
DWIDTH 29 0
BBX 29 13 0 0
BITMAP
FFFFFFF8
01010820
01010820
39F10820
21090820
41090820
410FF820
41040460
410407E0
230200A0
3D020120
01010220
01018420
ENDCHAR
STARTCHAR uni0915094D0938094D092A094D0932
ENCODING -1
SWIDTH 1866 0
DWIDTH 37 0
BBX 38 13 0 0
BITMAP
FFFFFFFFFC
0101080010
0101080010
39F1080010
2109083DD0
4109086230
410FF84230
4104044210
410407C010
2302004010
3D02002010
0101003810
0101800010
ENDCHAR
STARTCHAR uni0917094D0927094D092F
ENCODING -1
SWIDTH 1156 0
DWIDTH 23 0
BBX 23 13 0 0
BITMAP
FFCFFE
110088
110088
110088
110088
10E708
210408
E10408
010408
010608
00FDF8
000008
000008
ENDCHAR
STARTCHAR uni0917094D0927094D0935
ENCODING -1
SWIDTH 1084 0
DWIDTH 22 0
BBX 22 13 0 0
BITMAP
FFCFFC
110010
110010
110390
110210
10E410
210410
E10410
010410
010630
00F9D0
000010
000010
ENDCHAR
STARTCHAR uni0917094D0928094D092F
ENCODING -1
SWIDTH 1069 0
DWIDTH 21 0
BBX 22 13 0 0
BITMAP
FFFFFC
100210
100210
100210
100210
11FC10
121010
221010
E21030
000830
0007D0
000010
000010
ENDCHAR
STARTCHAR uni0917094D092D094D092F
ENCODING -1
SWIDTH 1102 0
DWIDTH 22 0
BBX 22 13 0 0
BITMAP
FE3FFC
110110
110110
110110
110110
110E10
21F810
E10810
010810
000410
0003F0
000010
000010
ENDCHAR
STARTCHAR uni0917094D0930094D092F
ENCODING -1
SWIDTH 817 0
DWIDTH 16 0
BBX 17 14 0 -1
BITMAP
FFFF80
104200
104200
104200
104200
138200
220200
E20200
020600
010600
00FA00
003200
006200
008000
ENDCHAR
STARTCHAR uni091A094D091B094D0935
ENCODING -1
SWIDTH 913 0
DWIDTH 18 0
BBX 19 15 0 -2
BITMAP
FFFFE0
008100
008100
008700
FCC080
307080
20C080
208080
208080
30C100
1F7F00
004100
004100
004100
003E00
ENDCHAR
STARTCHAR uni091C094D091C094D091E
ENCODING -1
SWIDTH 945 0
DWIDTH 19 0
BBX 19 14 0 -1
BITMAP
FFFFE0
000080
000080
007F80
7F8080
088080
048080
047C80
040480
048480
088480
70FC80
008080
008000
ENDCHAR
STARTCHAR uni091C094D091C094D092F
ENCODING -1
SWIDTH 1252 0
DWIDTH 25 0
BBX 25 13 0 0
BITMAP
FFFFFF80
00002200
00002200
00002200
7F7F2200
0811C200
04090200
04090200
04090200
04088200
08107E00
79E00200
00000200
ENDCHAR
STARTCHAR uni091C094D091C094D0935
ENCODING -1
SWIDTH 1243 0
DWIDTH 25 0
BBX 24 13 0 0
BITMAP
FFFFFF
000004
000004
0000E4
7F7F84
081104
040904
040904
040904
04098C
0810F4
79E004
000004
ENDCHAR
STARTCHAR uni0924094D0915094D092F
ENCODING -1
SWIDTH 1346 0
DWIDTH 27 0
BBX 27 13 0 0
BITMAP
FFFFFFE0
00080880
00080880
00E80880
3F0BF080
210C4080
41084080
41084080
41084080
41082180
40F81E80
20080080
38080080
ENDCHAR
STARTCHAR uni0924094D0915094D0930
ENCODING -1
SWIDTH 995 0
DWIDTH 20 0
BBX 20 14 0 -1
BITMAP
FFFFF0
000800
000800
00EBC0
3F0C40
210820
410820
410820
410820
410840
40F9C0
202800
384800
008000
ENDCHAR
STARTCHAR uni0924094D0915094D0935
ENCODING -1
SWIDTH 1282 0
DWIDTH 26 0
BBX 26 13 0 0
BITMAP
FFFFFFC0
00080100
00080100
00EBF900
3F0C6100
21084100
41084100
41084100
41084100
41082300
40F83D00
20080100
38080100
ENDCHAR
STARTCHAR uni0924094D0915094D0937
ENCODING -1
SWIDTH 943 0
DWIDTH 19 0
BBX 19 13 0 0
BITMAP
FE78E0
008880
008480
008480
3E8880
21FF80
410080
410080
410480
410480
410C80
20F480
380480
ENDCHAR
STARTCHAR uni0924094D0916094D0930
ENCODING -1
SWIDTH 1008 0
DWIDTH 20 0
BBX 20 14 0 -1
BITMAP
FFFFF0
002040
002040
002340
3E2440
212440
41C440
410440
408440
4043C0
404140
202340
383240
000400
ENDCHAR
STARTCHAR uni0924094D0924094D092F
ENCODING -1
SWIDTH 888 0
DWIDTH 18 0
BBX 18 13 0 0
BITMAP
FFFFC0
001100
001100
001100
7F1100
30E100
208100
208100
208100
208300
207D00
300100
1C0100
ENDCHAR
STARTCHAR uni0924094D0924094D0935
ENCODING -1
SWIDTH 788 0
DWIDTH 16 0
BBX 16 13 0 0
BITMAP
FFFF
0004
0004
00F4
7F84
3104
2104
2104
2104
208C
2074
3004
1C04
ENDCHAR
STARTCHAR uni0924094D0928094D092F
ENCODING -1
SWIDTH 1098 0
DWIDTH 22 0
BBX 22 13 0 0
BITMAP
FFFFFC
000110
000110
000110
3E0110
21FE10
410810
410810
410810
400C30
4007F0
200010
380010
ENDCHAR
STARTCHAR uni0924094D092A094D0930
ENCODING -1
SWIDTH 763 0
DWIDTH 15 0
BBX 16 13 0 0
BITMAP
FFFF
0108
0108
0108
3F08
2108
4108
4108
40F8
4028
4048
20C8
3988
ENDCHAR
STARTCHAR uni0924094D092A094D0932
ENCODING -1
SWIDTH 1219 0
DWIDTH 24 0
BBX 25 13 0 0
BITMAP
FFFFFF80
01000200
01000200
01000200
3F07BA00
210C4600
41084200
41084200
40F80200
40080200
40040200
20070200
38000200
ENDCHAR
STARTCHAR uni0924094D092E094D092F
ENCODING -1
SWIDTH 1096 0
DWIDTH 22 0
BBX 22 13 0 0
BITMAP
FFFFFC
010110
010110
010110
3F0110
210E10
41F810
410810
410810
400C30
4007D0
200010
380010
ENDCHAR
STARTCHAR uni0924094D0930094D092F
ENCODING -1
SWIDTH 848 0
DWIDTH 17 0
BBX 17 13 0 0
BITMAP
FFFF80
002200
002200
002200
3E2200
61C200
410200
410200
010200
068600
087E00
100200
600200
ENDCHAR
STARTCHAR uni0924094D0938094D092F
ENCODING -1
SWIDTH 1234 0
DWIDTH 25 0
BBX 25 13 0 0
BITMAP
FFFFFF80
00204200
00202200
00202200
3E206200
2121C200
41FF0200
40810200
40810200
40410600
4040FA00
20200200
38300200
ENDCHAR
STARTCHAR uni0924094D0938094D0935
ENCODING -1
SWIDTH 1155 0
DWIDTH 23 0
BBX 23 13 0 0
BITMAP
FFFFFE
002008
002008
0020E8
3E2108
212108
41FF08
408108
408108
404108
4040F8
202008
383008
ENDCHAR
STARTCHAR uni0926094D0917094D0930
ENCODING -1
SWIDTH 493 0
DWIDTH 10 0
BBX 10 17 0 -4
BITMAP
FFC0
0100
0100
1F00
2000
4000
4000
4100
4100
2100
1F00
0900
0900
1300
7300
0500
1900
ENDCHAR
STARTCHAR uni0926094D092C094D0930
ENCODING -1
SWIDTH 483 0
DWIDTH 10 0
BBX 10 18 0 -5
BITMAP
FFC0
0100
0100
0100
3F00
2000
4000
4000
4100
2100
1F00
3100
2900
2500
2300
1E00
0400
0800
ENDCHAR
STARTCHAR uni0926094D092F094D092D
ENCODING -1
SWIDTH 607 0
DWIDTH 12 0
BBX 12 16 0 -3
BITMAP
FFF0
0240
0240
3C40
2040
2040
1C40
2040
2040
2040
1FC0
0140
7240
0C40
0C40
0640
ENDCHAR
STARTCHAR uni0926094D092F094D0930
ENCODING -1
SWIDTH 595 0
DWIDTH 12 0
BBX 12 14 0 -1
BITMAP
FFF0
0440
0440
3C40
2040
4040
2040
1C40
2040
4040
2040
3FC0
0240
0400
ENDCHAR
STARTCHAR uni0927094D0928094D092F
ENCODING -1
SWIDTH 1138 0
DWIDTH 23 0
BBX 23 13 0 0
BITMAP
F9FFFE
200088
400088
200088
3C0088
20FF08
408408
410408
218408
1F8418
0003E8
000008
000008
ENDCHAR
STARTCHAR uni0928094D0915094D0938
ENCODING -1
SWIDTH 1384 0
DWIDTH 28 0
BBX 28 13 0 0
BITMAP
FFFFFFF0
00080840
00080840
01CF8840
0308C840
7E084840
42087FC0
42084040
42082040
01182040
01E81040
00081840
00080840
ENDCHAR
STARTCHAR uni0928094D0924094D092F
ENCODING -1
SWIDTH 1073 0
DWIDTH 21 0
BBX 22 13 0 0
BITMAP
FFFFFC
000210
000210
000210
000210
7FFE10
421010
421010
420810
020830
0207D0
030010
01C010
ENDCHAR
STARTCHAR uni0928094D0924094D0930
ENCODING -1
SWIDTH 732 0
DWIDTH 15 0
BBX 15 13 0 0
BITMAP
FFFE
0008
0008
0008
01E8
7E18
4208
4208
4018
0028
0048
0088
0308
ENDCHAR
STARTCHAR uni0928094D0924094D0938
ENCODING -1
SWIDTH 1134 0
DWIDTH 23 0
BBX 23 13 0 0
BITMAP
FFFFFE
000108
000108
000108
01F108
7E0908
420FF8
420808
420408
020408
020208
030308
01C108
ENDCHAR
STARTCHAR uni0928094D0925094D092F
ENCODING -1
SWIDTH 1168 0
DWIDTH 23 0
BBX 24 13 0 0
BITMAP
F9E7FF
012084
011084
011084
002084
7FE704
420404
420404
42040C
01060C
00F9F4
000004
000004
ENDCHAR
STARTCHAR uni0928094D0925094D0935
ENCODING -1
SWIDTH 1089 0
DWIDTH 22 0
BBX 22 13 0 0
BITMAP
F9E7FC
012010
011010
0111D0
002210
7FE410
420410
420410
420410
010610
00FBF0
000010
000010
ENDCHAR
STARTCHAR uni0928094D0926094D0930
ENCODING -1
SWIDTH 734 0
DWIDTH 15 0
BBX 15 13 0 0
BITMAP
FFFE
0008
0008
01F8
0100
7E00
4200
4200
4208
0108
01F8
0028
00C8
ENDCHAR
STARTCHAR uni0928094D0926094D0935
ENCODING -1
SWIDTH 732 0
DWIDTH 15 0
BBX 15 16 0 -3
BITMAP
FFFE
0008
0008
01F8
0100
7E00
4200
4208
4208
0108
01F8
0108
0208
0208
0108
01F0
ENDCHAR
STARTCHAR uni0928094D0927094D092F
ENCODING -1
SWIDTH 1097 0
DWIDTH 22 0
BBX 22 13 0 0
BITMAP
FF9FFC
020110
020110
020110
020110
7FCE10
420810
420810
420810
020C30
01FBF0
000010
000010
ENDCHAR
STARTCHAR uni0928094D0927094D0930
ENCODING -1
SWIDTH 783 0
DWIDTH 16 0
BBX 16 14 0 -1
BITMAP
FF9F
0204
0204
0204
0204
7FC4
4204
4204
4204
020C
01F4
0024
0044
0080
ENDCHAR
STARTCHAR uni0928094D0927094D0935
ENCODING -1
SWIDTH 1036 0
DWIDTH 21 0
BBX 21 13 0 0
BITMAP
FF9FF8
020020
020020
020720
020420
7FC820
420820
420820
420820
020C60
01F3A0
000020
000020
ENDCHAR
STARTCHAR uni0928094D0928094D092F
ENCODING -1
SWIDTH 1071 0
DWIDTH 21 0
BBX 22 13 0 0
BITMAP
FFFFFC
000210
000210
000210
000210
7FFE10
421010
421010
420810
000830
0007D0
000010
000010
ENDCHAR
STARTCHAR uni0928094D092A094D0930
ENCODING -1
SWIDTH 737 0
DWIDTH 15 0
BBX 15 13 0 0
BITMAP
FFFE
0208
0208
0208
0208
7E08
4208
4118
41F8
0028
0048
0088
0108
ENDCHAR
STARTCHAR uni0928094D092B094D0930
ENCODING -1
SWIDTH 975 0
DWIDTH 20 0
BBX 20 13 0 0
BITMAP
FFFFF0
020800
020800
020F80
020840
7E0840
420840
411840
41E840
006840
004B80
008800
030800
ENDCHAR
STARTCHAR uni0928094D092D094D092F
ENCODING -1
SWIDTH 1071 0
DWIDTH 21 0
BBX 22 13 0 0
BITMAP
FE3FFC
020210
020210
020210
020210
7E1E10
43F010
421010
420810
000830
0007D0
000010
000010
ENDCHAR
STARTCHAR uni0928094D092D094D0935
ENCODING -1
SWIDTH 995 0
DWIDTH 20 0
BBX 20 13 0 0
BITMAP
FE3FF0
020040
020040
020740
020840
7E1040
43F040
421040
421040
000840
0007C0
000040
000040
ENDCHAR
STARTCHAR uni0928094D092E094D092F
ENCODING -1
SWIDTH 1071 0
DWIDTH 21 0
BBX 22 13 0 0
BITMAP
FFFFFC
020210
020210
020210
020210
7E1E10
43F010
421010
420810
000830
0007D0
000010
000010
ENDCHAR
STARTCHAR uni0928094D0938094D091F
ENCODING -1
SWIDTH 1113 0
DWIDTH 22 0
BBX 23 13 0 0
BITMAP
FFFFFE
004010
004010
004010
0041F0
7E4200
43FE00
410200
010208
008208
008208
0041F0
006000
ENDCHAR
STARTCHAR uni0928094D0938094D092E094D092F
ENCODING -1
SWIDTH 1453 0
DWIDTH 29 0
BBX 29 13 0 0
BITMAP
FFFFFFF8
00420220
00420220
00420220
00420220
7E421C20
43FFF020
43021020
41021020
00820820
008007E0
00400020
00400020
ENDCHAR
STARTCHAR uni0928094D0938094D092F
ENCODING -1
SWIDTH 1194 0
DWIDTH 24 0
BBX 24 13 0 0
BITMAP
FFFFFF
004084
004044
004044
0040C4
7E4384
43FE04
430204
410204
00820C
0081F4
004004
004004
ENDCHAR
STARTCHAR uni092A094D0924094D092F
ENCODING -1
SWIDTH 1119 0
DWIDTH 22 0
BBX 23 13 0 0
BITMAP
FFFFFE
200108
200108
200108
200108
20FE08
210808
210808
1F0418
010418
0103E8
010008
00C008
ENDCHAR
STARTCHAR uni092C094D091C094D092F
ENCODING -1
SWIDTH 1235 0
DWIDTH 25 0
BBX 25 13 0 0
BITMAP
FFFFFF80
00004200
00002200
3C002200
20FE6200
6011C200
50110200
48110200
44110200
42110600
2210FA00
1FE00200
00000200
ENDCHAR
STARTCHAR uni092C094D0927094D0935
ENCODING -1
SWIDTH 1097 0
DWIDTH 22 0
BBX 22 13 0 0
BITMAP
FFE7FC
010010
010010
3D01D0
210210
50E210
490210
450210
430210
210210
3EFDF0
000010
000010
ENDCHAR
STARTCHAR uni092C094D092D094D0930
ENCODING -1
SWIDTH 764 0
DWIDTH 15 0
BBX 16 13 0 0
BITMAP
FE3F
0108
0108
3D08
2108
5108
49F8
4508
4318
2128
3E68
00C8
0188
ENDCHAR
STARTCHAR uni092C094D0932094D092F
ENCODING -1
SWIDTH 480 0
DWIDTH 10 0
BBX 27 13 0 0
BITMAP
FFFFFFE0
00001080
00001080
3CF71080
21989080
5108E080
49088080
45088080
43004180
21004180
3E803E80
00E00080
00000080
ENDCHAR
STARTCHAR uni092D094D0930094D092F
ENCODING -1
SWIDTH 830 0
DWIDTH 17 0
BBX 17 13 0 0
BITMAP
C7FF80
404200
202200
202200
204200
21C200
3F0200
210200
230200
050600
08FA00
100200
200200
ENDCHAR
STARTCHAR uni092E094D092A094D0930
ENCODING -1
SWIDTH 765 0
DWIDTH 15 0
BBX 16 13 0 0
BITMAP
FFFF
2108
2108
2108
2108
2108
3F08
2108
20F8
0028
0048
00C8
0188
ENDCHAR
STARTCHAR uni092E094D092C094D092F
ENCODING -1
SWIDTH 1124 0
DWIDTH 22 0
BBX 23 13 0 0
BITMAP
FFFFFE
200108
200088
20E088
210108
218708
3F4408
212408
211408
010C18
00F3E8
000008
000008
ENDCHAR
STARTCHAR uni092E094D092C094D0930
ENCODING -1
SWIDTH 768 0
DWIDTH 15 0
BBX 16 14 0 -1
BITMAP
FFFF
2004
2004
20E4
2104
2184
3F44
2124
2114
010C
00F4
0024
0044
0080
ENDCHAR
STARTCHAR uni092E094D092D094D092F
ENCODING -1
SWIDTH 1101 0
DWIDTH 22 0
BBX 22 13 0 0
BITMAP
FE3FFC
210110
210110
210110
210110
210E10
3FF810
210810
210810
000410
0003F0
000010
000010
ENDCHAR
STARTCHAR uni092E094D092D094D0930
ENCODING -1
SWIDTH 759 0
DWIDTH 15 0
BBX 15 13 0 0
BITMAP
FE3E
2108
2108
2108
2108
2108
3FF8
2108
2118
0028
0048
0088
0188
ENDCHAR
STARTCHAR uni092E094D092D094D0935
ENCODING -1
SWIDTH 1028 0
DWIDTH 21 0
BBX 21 13 0 0
BITMAP
FE3FF8
210020
210020
210720
210C20
210820
3FF820
210820
210820
000C60
0007A0
000020
000020
ENDCHAR
STARTCHAR uni0932094D0915094D092F
ENCODING -1
SWIDTH 1534 0
DWIDTH 31 0
BBX 31 13 0 0
BITMAP
FFFFFFFE
00008088
00008088
001C8088
3DF0FF08
22208408
42208408
42208408
42208408
40118418
200E83E8
3C008008
00008008
ENDCHAR
STARTCHAR uni0932094D0925094D092F
ENCODING -1
SWIDTH 1397 0
DWIDTH 28 0
BBX 28 13 0 0
BITMAP
FFCE7FF0
00110440
00110440
00110440
3DC10440
22213840
423E2040
42202040
42102040
401030C0
200FDF40
3C000040
00000040
ENDCHAR
STARTCHAR uni0932094D0926094D0930
ENCODING -1
SWIDTH 933 0
DWIDTH 19 0
BBX 19 13 0 0
BITMAP
FFFFE0
000080
000080
001F80
3DF000
222000
422000
422000
422080
401080
201F80
3C0280
000C80
ENDCHAR
STARTCHAR uni0932094D0932094D092F
ENCODING -1
SWIDTH 1476 0
DWIDTH 30 0
BBX 30 13 0 0
BITMAP
FFFFFFFC
00000210
00000110
1DDEE110
22311210
42210E10
42210810
42210810
40200810
40200830
201007D0
1C1C0010
00000010
ENDCHAR
STARTCHAR uni0932094D0935094D0921
ENCODING -1
SWIDTH 1247 0
DWIDTH 25 0
BBX 25 13 0 0
BITMAP
FFFFFF80
00000200
00000200
001E3E00
3DF04000
22204000
42204000
42203E00
40208100
40108100
201F8100
3C008100
00007E00
ENDCHAR
STARTCHAR uni0937094D0915094D0930
ENCODING -1
SWIDTH 1042 0
DWIDTH 21 0
BBX 21 14 0 -1
BITMAP
FFFFF8
200400
300400
2875C0
248620
228410
218410
218410
1E8410
008420
007CC0
001400
002400
004000
ENDCHAR
STARTCHAR uni0937094D091F094D092F
ENCODING -1
SWIDTH 997 0
DWIDTH 20 0
BBX 20 13 0 0
BITMAP
FFFFF0
210040
310040
2DFC40
230440
210240
3F0440
201C40
401040
4090C0
408FC0
218040
1F0040
ENDCHAR
STARTCHAR uni0937094D091F094D0930
ENCODING -1
SWIDTH 493 0
DWIDTH 10 0
BBX 10 16 0 -3
BITMAP
FFC0
2100
3100
2D00
2300
2100
3F00
2000
4000
4080
4080
2180
3F00
0A00
1200
2100
ENDCHAR
STARTCHAR uni0937094D091F094D0935
ENCODING -1
SWIDTH 493 0
DWIDTH 10 0
BBX 10 17 0 -4
BITMAP
FFC0
2100
3100
2900
2500
2300
1F00
2000
4080
4080
2180
1F00
2100
4100
4100
2100
1E00
ENDCHAR
STARTCHAR uni0937094D0920094D092F
ENCODING -1
SWIDTH 1006 0
DWIDTH 20 0
BBX 20 13 0 0
BITMAP
FFFFF0
3F8040
3F8040
3FFC40
3F8240
3F0240
3F0240
209C40
409040
409040
408FC0
218040
1F0040
ENDCHAR
STARTCHAR uni0937094D0920094D0930
ENCODING -1
SWIDTH 512 0
DWIDTH 10 0
BBX 11 16 0 -3
BITMAP
FFE0
5F80
3F80
3F80
3F80
3F00
3F00
2080
4080
4080
4080
2180
3F00
0E00
1200
2100
ENDCHAR
STARTCHAR uni0937094D0923094D092F
ENCODING -1
SWIDTH 1273 0
DWIDTH 25 0
BBX 26 13 0 0
BITMAP
FFFFFFC0
21082100
31082100
29082100
25082100
2508E100
23088100
21888100
1EF08100
00008300
00007D00
00000100
00000100
ENDCHAR
STARTCHAR uni0937094D092A094D0930
ENCODING -1
SWIDTH 798 0
DWIDTH 16 0
BBX 16 13 0 0
BITMAP
FFFF
2104
3104
2904
2504
2304
2184
2184
1E7C
0014
0024
0044
0084
ENDCHAR
STARTCHAR uni0937094D092E094D092F
ENCODING -1
SWIDTH 1121 0
DWIDTH 22 0
BBX 23 13 0 0
BITMAP
FFFFFE
210108
310108
290108
250108
250E08
22F808
210808
1F0408
000418
0003E8
000008
000008
ENDCHAR
STARTCHAR uni0938094D0915094D0930
ENCODING -1
SWIDTH 1084 0
DWIDTH 22 0
BBX 22 14 0 -1
BITMAP
FFFFFC
080200
080200
0833E0
084210
108210
7F8210
408210
208210
204610
103EE0
101A00
083200
006000
ENDCHAR
STARTCHAR uni0938094D0915094D0935
ENCODING -1
SWIDTH 1369 0
DWIDTH 27 0
BBX 28 13 0 0
BITMAP
FFFFFFF0
08020040
08020040
0833EE40
08421040
10821040
7F821040
40821040
20821040
204610C0
103A0F40
10020040
08020040
ENDCHAR
STARTCHAR uni0938094D0924094D092F
ENCODING -1
SWIDTH 1185 0
DWIDTH 24 0
BBX 24 13 0 0
BITMAP
FFFFFF
080084
080044
080044
0800C4
107F84
7FC204
408204
208204
20820C
1081F4
104004
083004
ENDCHAR
STARTCHAR uni0938094D0924094D0930
ENCODING -1
SWIDTH 818 0
DWIDTH 16 0
BBX 17 13 0 0
BITMAP
FFFF80
080200
080200
080200
087A00
108600
7F8200
400200
200600
200A00
103200
106200
088200
ENDCHAR
STARTCHAR uni0938094D0924094D0935
ENCODING -1
SWIDTH 1126 0
DWIDTH 23 0
BBX 23 13 0 0
BITMAP
FFFFFE
080008
080008
0801C8
087F08
104208
7F8208
408208
208208
208318
1081E8
104008
083008
ENDCHAR
STARTCHAR uni0938094D0925094D092F
ENCODING -1
SWIDTH 1303 0
DWIDTH 26 0
BBX 26 13 0 0
BITMAP
FF39FFC0
08441100
08441100
08441100
08041100
1078E100
7FC08100
40408100
20408100
2040C100
103F3F00
10000100
08000100
ENDCHAR
STARTCHAR uni0938094D092A094D0930
ENCODING -1
SWIDTH 850 0
DWIDTH 17 0
BBX 17 13 0 0
BITMAP
FFFF80
084200
084200
084200
084200
104200
7FC200
404200
203E00
200A00
101200
102200
086200
ENDCHAR
STARTCHAR uni0938094D092E094D092F
ENCODING -1
SWIDTH 1189 0
DWIDTH 24 0
BBX 24 13 0 0
BITMAP
FFFFFF
084044
084044
084044
084044
104384
7FFE04
404204
204204
20420C
1001F4
100004
080004
ENDCHAR
STARTCHAR uni093F.a01
ENCODING -1
SWIDTH 231 0
DWIDTH 5 0
BBX 10 18 0 0
BITMAP
1F80
2040
2040
2040
2000
F800
2000
2000
2000
2000
2000
2000
2000
2000
2000
2000
2000
2000
ENDCHAR
STARTCHAR uni093F.a04
ENCODING -1
SWIDTH 231 0
DWIDTH 5 0
BBX 13 18 0 0
BITMAP
1FF0
2010
2008
2008
2000
F800
2000
2000
2000
2000
2000
2000
2000
2000
2000
2000
2000
2000
ENDCHAR
STARTCHAR uni093F.a05
ENCODING -1
SWIDTH 231 0
DWIDTH 5 0
BBX 14 18 0 0
BITMAP
1FF8
2008
2004
2004
2000
F800
2000
2000
2000
2000
2000
2000
2000
2000
2000
2000
2000
2000
ENDCHAR
STARTCHAR uni093F.a06
ENCODING -1
SWIDTH 231 0
DWIDTH 5 0
BBX 14 18 0 0
BITMAP
1FFC
2004
2004
2004
2000
F800
2000
2000
2000
2000
2000
2000
2000
2000
2000
2000
2000
2000
ENDCHAR
STARTCHAR uni093F.a07
ENCODING -1
SWIDTH 231 0
DWIDTH 5 0
BBX 15 18 0 0
BITMAP
1FFE
2002
2002
2002
2000
F800
2000
2000
2000
2000
2000
2000
2000
2000
2000
2000
2000
2000
ENDCHAR
STARTCHAR uni093F.a08
ENCODING -1
SWIDTH 231 0
DWIDTH 5 0
BBX 16 18 0 0
BITMAP
1FFE
2001
2001
2001
2000
F800
2000
2000
2000
2000
2000
2000
2000
2000
2000
2000
2000
2000
ENDCHAR
STARTCHAR uni093F.a09
ENCODING -1
SWIDTH 231 0
DWIDTH 5 0
BBX 17 18 0 0
BITMAP
1FFF00
200080
200080
200080
200000
F80000
200000
200000
200000
200000
200000
200000
200000
200000
200000
200000
200000
200000
ENDCHAR
STARTCHAR uni093F.a10
ENCODING -1
SWIDTH 231 0
DWIDTH 5 0
BBX 18 18 0 0
BITMAP
1FFF80
200040
200040
200040
200000
F80000
200000
200000
200000
200000
200000
200000
200000
200000
200000
200000
200000
200000
ENDCHAR
STARTCHAR uni093F.a11
ENCODING -1
SWIDTH 231 0
DWIDTH 5 0
BBX 19 18 0 0
BITMAP
1FFFC0
200020
200020
200020
200000
F80000
200000
200000
200000
200000
200000
200000
200000
200000
200000
200000
200000
200000
ENDCHAR
STARTCHAR uni093F.a12
ENCODING -1
SWIDTH 231 0
DWIDTH 5 0
BBX 20 18 0 0
BITMAP
1FFFE0
200010
200010
200010
200000
F80000
200000
200000
200000
200000
200000
200000
200000
200000
200000
200000
200000
200000
ENDCHAR
STARTCHAR uni093F.a13
ENCODING -1
SWIDTH 231 0
DWIDTH 5 0
BBX 21 18 0 0
BITMAP
1FFFF0
200008
200008
200008
200000
F80000
200000
200000
200000
200000
200000
200000
200000
200000
200000
200000
200000
200000
ENDCHAR
STARTCHAR uni093F.a14
ENCODING -1
SWIDTH 231 0
DWIDTH 5 0
BBX 22 18 0 0
BITMAP
1FFFF8
200004
200004
200004
200000
F80000
200000
200000
200000
200000
200000
200000
200000
200000
200000
200000
200000
200000
ENDCHAR
STARTCHAR uni093F.a15
ENCODING -1
SWIDTH 231 0
DWIDTH 5 0
BBX 23 18 0 0
BITMAP
1FFFFC
200002
200002
200002
200000
F80000
200000
200000
200000
200000
200000
200000
200000
200000
200000
200000
200000
200000
ENDCHAR
STARTCHAR uni093F.a16
ENCODING -1
SWIDTH 231 0
DWIDTH 5 0
BBX 24 18 0 0
BITMAP
1FFFFE
200001
200001
200001
200000
F80000
200000
200000
200000
200000
200000
200000
200000
200000
200000
200000
200000
200000
ENDCHAR
STARTCHAR uni093F.a17
ENCODING -1
SWIDTH 231 0
DWIDTH 5 0
BBX 25 18 0 0
BITMAP
1FFFFF00
20000080
20000080
20000080
20000000
F8000000
20000000
20000000
20000000
20000000
20000000
20000000
20000000
20000000
20000000
20000000
20000000
20000000
ENDCHAR
STARTCHAR uni093F.a18
ENCODING -1
SWIDTH 231 0
DWIDTH 5 0
BBX 26 18 0 0
BITMAP
1FFFFF80
20000040
20000040
20000040
20000000
F8000000
20000000
20000000
20000000
20000000
20000000
20000000
20000000
20000000
20000000
20000000
20000000
20000000
ENDCHAR
STARTCHAR uni093F.a19
ENCODING -1
SWIDTH 231 0
DWIDTH 5 0
BBX 27 18 0 0
BITMAP
1FFFFFC0
20000060
20000020
20000020
20000000
F8000000
20000000
20000000
20000000
20000000
20000000
20000000
20000000
20000000
20000000
20000000
20000000
20000000
ENDCHAR
STARTCHAR uni093F.a20
ENCODING -1
SWIDTH 231 0
DWIDTH 5 0
BBX 28 18 0 0
BITMAP
1FFFFFE0
20000020
20000010
20000010
20000000
F8000000
20000000
20000000
20000000
20000000
20000000
20000000
20000000
20000000
20000000
20000000
20000000
20000000
ENDCHAR
STARTCHAR uni093F.a21
ENCODING -1
SWIDTH 231 0
DWIDTH 5 0
BBX 29 18 0 0
BITMAP
1FFFFFF0
20000010
20000008
20000008
20000000
F8000000
20000000
20000000
20000000
20000000
20000000
20000000
20000000
20000000
20000000
20000000
20000000
20000000
ENDCHAR
STARTCHAR uni093F.a22
ENCODING -1
SWIDTH 231 0
DWIDTH 5 0
BBX 30 18 0 0
BITMAP
1FFFFFF8
20000008
20000004
20000004
20000000
F8000000
20000000
20000000
20000000
20000000
20000000
20000000
20000000
20000000
20000000
20000000
20000000
20000000
ENDCHAR
STARTCHAR uni093F.a23
ENCODING -1
SWIDTH 231 0
DWIDTH 5 0
BBX 30 18 0 0
BITMAP
1FFFFFFC
20000004
20000004
20000004
20000000
F8000000
20000000
20000000
20000000
20000000
20000000
20000000
20000000
20000000
20000000
20000000
20000000
20000000
ENDCHAR
STARTCHAR uni093F.a24
ENCODING -1
SWIDTH 231 0
DWIDTH 5 0
BBX 31 18 0 0
BITMAP
1FFFFFFE
20000002
20000002
20000002
20000000
F8000000
20000000
20000000
20000000
20000000
20000000
20000000
20000000
20000000
20000000
20000000
20000000
20000000
ENDCHAR
STARTCHAR uni093F.a25
ENCODING -1
SWIDTH 231 0
DWIDTH 5 0
BBX 32 18 0 0
BITMAP
1FFFFFFE
20000001
20000001
20000001
20000000
F8000000
20000000
20000000
20000000
20000000
20000000
20000000
20000000
20000000
20000000
20000000
20000000
20000000
ENDCHAR
STARTCHAR uni093F.a26
ENCODING -1
SWIDTH 231 0
DWIDTH 5 0
BBX 33 18 0 0
BITMAP
1FFFFFFF00
2000000080
2000000080
2000000080
2000000000
F800000000
2000000000
2000000000
2000000000
2000000000
2000000000
2000000000
2000000000
2000000000
2000000000
2000000000
2000000000
2000000000
ENDCHAR
STARTCHAR uni093F.a32
ENCODING -1
SWIDTH 231 0
DWIDTH 5 0
BBX 40 18 0 0
BITMAP
1FFFFFFFFF
2000000001
2000000001
2000000001
2000000000
F800000000
2000000000
2000000000
2000000000
2000000000
2000000000
2000000000
2000000000
2000000000
2000000000
2000000000
2000000000
2000000000
ENDCHAR
STARTCHAR uni093E0901
ENCODING -1
SWIDTH 231 0
DWIDTH 5 0
BBX 7 18 -1 0
BITMAP
10
82
84
7C
00
7C
10
10
10
10
10
10
10
10
10
10
10
10
ENDCHAR
STARTCHAR dvNG_GA
ENCODING -1
SWIDTH 562 0
DWIDTH 11 0
BBX 12 19 0 -6
BITMAP
FFF0
0080
0080
3F80
2000
4060
2000
3F80
0080
4080
4080
3F80
1100
1100
1100
1100
6100
0100
0100
ENDCHAR
STARTCHAR dvNG_MA
ENCODING -1
SWIDTH 728 0
DWIDTH 15 0
BBX 15 18 0 -5
BITMAP
FFFE
0108
0108
3F08
2008
6048
3F08
0108
0108
4108
2108
3F08
0208
03F8
0208
0208
0008
0008
ENDCHAR
STARTCHAR dvNY_CA
ENCODING -1
SWIDTH 963 0
DWIDTH 19 0
BBX 20 13 0 0
BITMAP
FFFFF0
000080
000080
780080
08FC80
043080
042080
072080
042080
043080
781F80
000080
000080
ENDCHAR
STARTCHAR dvTT_GA
ENCODING -1
SWIDTH 510 0
DWIDTH 10 0
BBX 11 18 0 -5
BITMAP
FFE0
0100
0100
0100
3F00
2000
4000
4080
4080
2080
1F00
1100
1100
1100
1100
6100
0100
0100
ENDCHAR
STARTCHAR dvTTH_TTHA
ENCODING -1
SWIDTH 511 0
DWIDTH 10 0
BBX 11 19 0 -6
BITMAP
FFE0
0100
0100
3E00
2100
4080
4080
4080
2100
3F00
0100
0100
3E00
2100
4080
4080
4080
2100
3F00
ENDCHAR
STARTCHAR dvDD_GA
ENCODING -1
SWIDTH 541 0
DWIDTH 11 0
BBX 11 19 0 -6
BITMAP
FFE0
0080
0080
3F80
2000
4000
2000
3F80
0080
4080
4080
3F80
1100
1100
1100
1100
6100
0100
0100
ENDCHAR
STARTCHAR dvDDH_DDHA
ENCODING -1
SWIDTH 487 0
DWIDTH 10 0
BBX 10 17 0 -4
BITMAP
FFC0
0100
0100
1F00
2000
4700
4480
4480
4080
2100
1F00
2000
4700
4480
4480
2080
1F00
ENDCHAR
STARTCHAR dvSHA_MatraVocalicR
ENCODING -1
SWIDTH 558 0
DWIDTH 11 0
BBX 11 18 1 -5
BITMAP
79C0
C500
8500
8500
4900
6900
3100
4D00
8700
0100
0100
0100
0100
0700
0400
0400
0420
07C0
ENDCHAR
STARTCHAR dvT_KH_NA
ENCODING -1
SWIDTH 1341 0
DWIDTH 27 0
BBX 27 13 0 0
BITMAP
FFFFFFE0
00200080
00200080
00238080
3E244080
21245F80
41C46080
41046080
40845080
40438080
40400080
20200080
38300080
ENDCHAR
STARTCHAR dvT_S_NA
ENCODING -1
SWIDTH 1169 0
DWIDTH 23 0
BBX 24 13 0 0
BITMAP
FFFFFF
002004
002004
002004
3E2004
2121FC
41FF04
408104
408104
404004
404004
202004
383004
ENDCHAR
ENDFONT
